<?xml version="1.0" encoding="UTF-8"?>
<svg width="34px" height="34px" viewBox="0 0 34 34" version="1.1" xmlns="http://www.w3.org/2000/svg" xmlns:xlink="http://www.w3.org/1999/xlink">
    <title>编组 4备份</title>
    <defs>
        <rect id="path-1" x="1" y="1" width="32" height="32" rx="16"></rect>
        <filter x="-18.8%" y="-18.8%" width="137.5%" height="137.5%" filterUnits="objectBoundingBox" id="filter-2">
            <feOffset dx="0" dy="0" in="SourceAlpha" result="shadowOffsetOuter1"></feOffset>
            <feGaussianBlur stdDeviation="2" in="shadowOffsetOuter1" result="shadowBlurOuter1"></feGaussianBlur>
            <feColorMatrix values="0 0 0 0 0.75987885   0 0 0 0 0.75987885   0 0 0 0 0.75987885  0 0 0 0.5 0" type="matrix" in="shadowBlurOuter1"></feColorMatrix>
        </filter>
        <rect id="path-3" x="4" y="4" width="26" height="26" rx="13"></rect>
        <filter x="-23.1%" y="-23.1%" width="146.2%" height="146.2%" filterUnits="objectBoundingBox" id="filter-4">
            <feOffset dx="0" dy="0" in="SourceAlpha" result="shadowOffsetOuter1"></feOffset>
            <feGaussianBlur stdDeviation="2" in="shadowOffsetOuter1" result="shadowBlurOuter1"></feGaussianBlur>
            <feColorMatrix values="0 0 0 0 0.75987885   0 0 0 0 0.75987885   0 0 0 0 0.75987885  0 0 0 0.5 0" type="matrix" in="shadowBlurOuter1"></feColorMatrix>
        </filter>
    </defs>
    <g id="页面-1" stroke="none" stroke-width="1" fill="none" fill-rule="evenodd">
        <g id="事件桥接-新建桥接器" transform="translate(-939.000000, -304.000000)" fill-rule="nonzero">
            <g id="编组-4备份" transform="translate(939.000000, 304.000000)">
                <g id="矩形备份-2">
                    <use fill="black" fill-opacity="1" filter="url(#filter-2)" xlink:href="#path-1"></use>
                    <use fill="#096DD9" xlink:href="#path-1"></use>
                </g>
                <g id="矩形备份-5">
                    <use fill="black" fill-opacity="1" filter="url(#filter-4)" xlink:href="#path-3"></use>
                    <use fill="#FFFFFF" xlink:href="#path-3"></use>
                </g>
                <g id="连接" transform="translate(8.000000, 8.000000)">
                    <rect id="矩形" fill="#000000" opacity="0" x="0" y="0" width="18" height="18"></rect>
                    <path d="M16.875,12.2695312 L13.3101563,9.89121094 L13.3101563,11.3765625 L10.7595703,11.3765625 L9.19863281,9.46757812 L8.04726563,10.8755859 L9.646875,12.8320312 C9.815625,13.0394531 10.06875,13.1589844 10.3359375,13.1589844 L13.3083984,13.1589844 L13.3083984,14.6460938 L16.875,12.2695312 Z M4.98867188,4.83925781 L2.01621094,4.83925781 C1.52402344,4.83925781 1.125,5.23828125 1.125,5.73046875 C1.125,6.22265625 1.52402344,6.62167969 2.01621094,6.62167969 L4.56503906,6.61992187 L6.12597656,8.52890625 L7.27734375,7.12089844 L5.67773438,5.16445312 C5.50898438,4.95878906 5.25585938,4.83925781 4.98867188,4.83925781 L4.98867188,4.83925781 Z M16.875,5.73046875 L13.3101563,3.35390625 L13.3101563,4.83925781 L10.3376953,4.83925781 C10.06875,4.83925781 9.815625,4.95878906 9.64863281,5.16621094 L4.56503906,11.3765625 L2.01621094,11.3765625 C1.52402344,11.3765625 1.125,11.7755859 1.125,12.2677734 C1.125,12.7599609 1.52402344,13.1589844 2.01621094,13.1589844 L4.98867187,13.1589844 C5.25585937,13.1589844 5.50898437,13.0394531 5.67773437,12.8320312 L10.7578125,6.62167969 L13.3083984,6.62167969 L13.3083984,8.10878906 L16.875,5.73046875 Z" id="形状" fill="#096DD9"></path>
                </g>
            </g>
        </g>
    </g>
</svg>