<?xml version="1.0" encoding="UTF-8"?>
<svg width="16px" height="16px" viewBox="0 0 16 16" version="1.1" xmlns="http://www.w3.org/2000/svg" xmlns:xlink="http://www.w3.org/1999/xlink">
    <title>复制</title>
    <g id="页面-1" stroke="none" stroke-width="1" fill="none" fill-rule="evenodd">
        <g id="事件桥接-新建桥接器" transform="translate(-755.000000, -303.000000)" fill-rule="nonzero">
            <g id="复制" transform="translate(755.000000, 303.000000)">
                <rect id="矩形" fill="#000000" opacity="0" x="0" y="0" width="16" height="16"></rect>
                <path d="M10.4693333,4.43466667 L3.22933333,4.43466667 C2.78666666,4.43466667 2.42933333,4.792 2.42933333,5.23466667 L2.42933333,13.0666667 C2.42933333,13.5093333 2.78666666,13.8666667 3.22933333,13.8666667 L10.472,13.8666667 C10.9146667,13.8666667 11.272,13.5093333 11.272,13.0666667 L11.272,5.23466667 C11.2705307,4.79240787 10.9115946,4.43466667 10.4693333,4.43466667 Z M10.2026667,12.8 L3.496,12.8 L3.496,5.50133333 L10.2053333,5.50133333 L10.2053333,12.8 L10.2026667,12.8 Z M12.4213333,1.86666667 L5.34666667,1.86666667 C5.05333334,1.86666667 4.81333333,2.10666667 4.81333333,2.4 C4.81333333,2.69333333 5.05333333,2.93333333 5.34666667,2.93333333 L12.4213333,2.93333333 C12.616,2.93333333 12.7733333,3.09066666 12.7733333,3.28533333 L12.7733333,11.2426667 C12.7733333,11.536 13.0133333,11.776 13.3066667,11.776 C13.6,11.776 13.84,11.536 13.84,11.2426667 L13.84,3.28533333 C13.8373333,2.50133333 13.2026667,1.86666667 12.4213333,1.86666667 Z" id="形状" fill="#7B8C9C"></path>
            </g>
        </g>
    </g>
</svg>