<?xml version="1.0" encoding="UTF-8"?>
<svg width="16px" height="16px" viewBox="0 0 16 16" version="1.1" xmlns="http://www.w3.org/2000/svg" xmlns:xlink="http://www.w3.org/1999/xlink">
    <title>刷新</title>
    <g id="页面-1" stroke="none" stroke-width="1" fill="none" fill-rule="evenodd">
        <g id="事件桥接-新建桥接器" transform="translate(-675.000000, -337.000000)" fill-rule="nonzero">
            <g id="刷新备份" transform="translate(675.000000, 337.000000)">
                <rect id="矩形" fill="#000000" opacity="0" x="0" y="0" width="16" height="16"></rect>
                <path d="M13.942541,3.73567022 L13.1079988,4.38821119 C11.9701212,2.93368108 10.2004182,2 8.2132016,2 C4.78181264,2 2.00444435,4.77440892 2,8.20727757 C1.99556624,11.6431056 4.77885327,14.429352 8.2132016,14.429352 C10.8958701,14.429352 13.181983,12.7277145 14.0520377,10.3439424 C14.0742329,10.2817956 14.0416799,10.2122504 13.9795331,10.1915348 L13.1405518,9.9029963 C13.0798848,9.88228071 13.0132989,9.91335409 12.9911037,9.97402116 C12.9644694,10.0480054 12.9348757,10.1219896 12.9038023,10.1944942 C12.6478168,10.8011649 12.280855,11.3456889 11.8132746,11.8132693 C11.3456942,12.2808497 10.8011702,12.6478115 10.1959792,12.9052767 C9.57007253,13.1701403 8.9027347,13.3047916 8.21616097,13.3047916 C7.52810756,13.3047916 6.86224941,13.1701402 6.23634277,12.9052767 C5.63115169,12.6492912 5.08662771,12.2823294 4.61904732,11.8132693 C4.15146694,11.3456889 3.78450511,10.801165 3.52851965,10.1944942 C3.26365607,9.56710785 3.12900476,8.9012497 3.12900477,8.21319629 C3.12900479,7.52514288 3.26365609,6.85928474 3.52851965,6.23189841 C3.78450511,5.62522766 4.15146694,5.08070367 4.61904732,4.61312328 C5.08662771,4.14554289 5.63115169,3.77858107 6.23634277,3.52111593 C6.86224942,3.25625235 7.52958725,3.12160104 8.21616097,3.12160105 C8.90421438,3.12160105 9.57007253,3.25625236 10.1959792,3.52111593 C10.8011703,3.77710139 11.3456942,4.14406321 11.8132746,4.61312328 C11.9597634,4.75961206 12.0973741,4.91497898 12.224627,5.0777443 L11.3338568,5.77319613 C11.2554335,5.8338632 11.2820678,5.95815672 11.3782473,5.98183168 L13.9765737,6.61809613 C14.050558,6.63585234 14.1230625,6.57962433 14.1230625,6.5041604 L14.1349,3.82741067 C14.1334203,3.72975148 14.0194846,3.67500315 13.942541,3.73567022 L13.942541,3.73567022 Z" id="路径" fill="#7B8C9C"></path>
            </g>
        </g>
    </g>
</svg>