<?xml version="1.0" encoding="UTF-8"?>
<svg width="16px" height="16px" viewBox="0 0 16 16" version="1.1" xmlns="http://www.w3.org/2000/svg" xmlns:xlink="http://www.w3.org/1999/xlink">
    <title>137设置、系统设置、功能设置、属性-线</title>
    <g id="页面-1" stroke="none" stroke-width="1" fill="none" fill-rule="evenodd">
        <g id="事件桥接-新建桥接器" transform="translate(-1390.000000, -372.000000)" fill-rule="nonzero">
            <g id="137设置、系统设置、功能设置、属性-线" transform="translate(1390.000000, 372.000000)">
                <rect id="矩形" fill="#000000" opacity="0" x="0" y="0" width="16" height="16"></rect>
                <path d="M10.0265625,14.553125 C9.7671875,14.553125 9.515625,14.45 9.334375,14.26875 C8.8046875,13.740625 8.296875,13.4390625 7.94375,13.4390625 C7.475,13.4390625 6.90625,13.9265625 6.6328125,14.1609375 L6.625,14.1671875 L6.596875,14.190625 C6.584375,14.2015625 6.5734375,14.2109375 6.5640625,14.21875 L6.553125,14.2265625 L6.54375,14.2375 C6.3953125,14.409375 6.1390625,14.5125 5.859375,14.5125 C5.7359375,14.5125 5.6125,14.4734375 5.4953125,14.4328125 L5.4921875,14.43125 C5.4890625,14.4296875 5.484375,14.428125 5.4796875,14.425 L3.809375,13.503125 C3.803125,13.5 3.7984375,13.496875 3.7953125,13.4953125 C3.4296875,13.2484375 3.2703125,12.7671875 3.43125,12.3984375 L3.4328125,12.3953125 C3.434375,12.390625 3.575,12.0375 3.575,11.7609375 C3.575,10.825 2.8109375,10.0640625 1.871875,10.0640625 L1.8328125,10.0640625 C1.50625,10.0640625 1.2390625,9.790625 1.153125,9.3671875 L1.1515625,9.3625 L1.1515625,9.359375 L1.15,9.35 C1.1484375,9.3375 1.1421875,9.303125 1.1375,9.26875 L1.1375,9.265625 C1.096875,9.028125 1.0015625,8.471875 1.0015625,8.0171875 C1.0015625,7.5625 1.096875,7.00625 1.1375,6.76875 C1.140625,6.7484375 1.14375,6.7265625 1.146875,6.7109375 L1.153125,6.675 L1.153125,6.671875 L1.1546875,6.6671875 C1.2359375,6.2296875 1.4890625,5.96875 1.834375,5.96875 L1.909375,5.96875 C2.8484375,5.96875 3.6125,5.2078125 3.6125,4.271875 C3.6125,3.96875 3.475,3.65625 3.44375,3.5859375 L3.434375,3.5640625 C3.2640625,3.1828125 3.39375,2.7046875 3.725,2.496875 C3.7265625,2.4953125 3.728125,2.4953125 3.7296875,2.49375 L5.5265625,1.5234375 C5.5265625,1.5234375 5.5359375,1.5203125 5.5375,1.51875 L5.5515625,1.5140625 C5.6453125,1.4828125 5.7734375,1.4421875 5.8953125,1.4421875 C6.1546875,1.4421875 6.40625,1.5453125 6.5875,1.7265625 C6.8921875,2.0296875 7.5046875,2.48125 7.9453125,2.48125 C8.38125,2.48125 8.9953125,2.0296875 9.303125,1.7265625 C9.4734375,1.55625 9.753125,1.4421875 9.996875,1.4421875 C10.1203125,1.4421875 10.24375,1.48125 10.3609375,1.521875 L10.365625,1.5234375 L10.3671875,1.5234375 L10.3703125,1.5265625 L12.0875,2.4921875 C12.5140625,2.725 12.703125,3.175 12.5359375,3.5609375 L12.534375,3.5640625 C12.5328125,3.5671875 12.3921875,3.9203125 12.3921875,4.1984375 C12.3921875,5.134375 13.15625,5.8953125 14.0953125,5.8953125 L14.1703125,5.8953125 C14.496875,5.8953125 14.7640625,6.16875 14.85,6.5921875 L14.8515625,6.596875 L14.8515625,6.6 L14.853125,6.609375 C14.8546875,6.6234375 14.8609375,6.6578125 14.8671875,6.69375 C14.9078125,6.93125 15.003125,7.4890625 15.003125,7.9421875 C15.003125,8.428125 14.9046875,8.9875 14.8671875,9.1984375 L14.865625,9.203125 C14.859375,9.234375 14.8546875,9.2609375 14.853125,9.2765625 L14.8515625,9.2859375 L14.8515625,9.2921875 C14.7703125,9.7296875 14.5171875,9.990625 14.171875,9.990625 L14.096875,9.990625 C13.1578125,9.990625 12.3953125,10.75 12.39375,11.684375 L12.39375,11.6859375 L12.3921875,11.696875 C12.3671875,11.9546875 12.459375,12.21875 12.51875,12.3578125 L12.51875,12.3875 L12.5421875,12.4109375 C12.7,12.7875 12.56875,13.2546875 12.246875,13.459375 L12.234375,13.46875 L10.4828125,14.4328125 L10.4796875,14.434375 C10.3296875,14.5078125 10.2015625,14.553125 10.0265625,14.553125 Z M7.8671875,12.4921875 C8.321875,12.4921875 8.8234375,12.6828125 9.3546875,13.05625 L9.3609375,13.0609375 L9.3671875,13.0640625 C9.5765625,13.1796875 9.7765625,13.3265625 9.9453125,13.4890625 L10.0203125,13.5609375 L11.5546875,12.7265625 L11.5140625,12.6125 C11.4546875,12.4453125 11.35625,12.1125 11.35625,11.7625 C11.35625,11.075 11.6171875,10.421875 12.0921875,9.9234375 C12.525,9.465625 13.10625,9.171875 13.728125,9.1 L13.8359375,9.0875 L13.8515625,8.9796875 C13.8796875,8.79375 13.9265625,8.3734375 13.9265625,7.984375 C13.9265625,7.69375 13.8765625,7.31875 13.8453125,7.0703125 L13.8421875,7.0515625 C13.8390625,7.03125 13.8375,7.0109375 13.8359375,6.996875 L13.8265625,6.88125 L13.7109375,6.8671875 C13.0921875,6.7921875 12.5171875,6.50625 12.0921875,6.059375 C11.6171875,5.5625 11.3546875,4.903125 11.3546875,4.203125 C11.3546875,3.9546875 11.409375,3.66875 11.51875,3.3515625 L11.5578125,3.2390625 L10.03125,2.3890625 L9.9546875,2.4578125 C9.7921875,2.60625 9.61875,2.7421875 9.4390625,2.859375 L9.4375,2.8609375 C8.9375,3.2046875 8.4328125,3.3953125 8.0140625,3.3953125 C7.578125,3.3953125 7.128125,3.23125 6.553125,2.8625 L6.5328125,2.85 C6.3125,2.7015625 6.140625,2.5390625 6.034375,2.4296875 L5.9578125,2.3515625 L4.359375,3.2359375 L4.4,3.35 C4.4734375,3.55625 4.559375,3.871875 4.559375,4.2015625 C4.559375,4.8890625 4.2984375,5.5421875 3.8234375,6.040625 C3.3953125,6.49375 2.81875,6.7859375 2.203125,6.8625 L2.096875,6.875 L2.0796875,6.9796875 C2.0765625,6.996875 2.075,7.0140625 2.0734375,7.0296875 L2.0734375,7.03125 C2.071875,7.040625 2.071875,7.05 2.0703125,7.0609375 L2.06875,7.0765625 C2.0375,7.321875 1.9890625,7.6921875 1.9890625,7.978125 C1.9890625,8.26875 2.0390625,8.64375 2.0703125,8.8921875 L2.0734375,8.909375 C2.0765625,8.93125 2.0796875,8.9515625 2.0796875,8.965625 L2.0890625,9.08125 L2.2046875,9.0953125 C2.8234375,9.1703125 3.3984375,9.45625 3.8234375,9.903125 C4.2984375,10.4 4.5609375,11.059375 4.5609375,11.759375 C4.5609375,12.0890625 4.475,12.4078125 4.403125,12.615625 L4.3640625,12.7265625 L5.825,13.55625 L5.9015625,13.478125 C6.0609375,13.3171875 6.2296875,13.1765625 6.4015625,13.0625 L6.4046875,13.0609375 C6.9375,12.684375 7.4296875,12.4921875 7.8671875,12.4921875 Z" id="形状" fill="#7B8C9C"></path>
                <path d="M7.9421875,10.4375 C7.290625,10.4375 6.671875,10.1796875 6.2,9.7125 C5.73125,9.2453125 5.4734375,8.6296875 5.4734375,7.9796875 C5.4734375,7.3296875 5.73125,6.7140625 6.2,6.2453125 C6.66875,5.778125 7.2875,5.521875 7.940625,5.521875 C8.5921875,5.521875 9.2109375,5.7796875 9.6828125,6.246875 C10.1515625,6.7140625 10.409375,7.3296875 10.409375,7.9796875 C10.409375,8.634375 10.15625,9.25 9.6953125,9.7109375 C9.234375,10.1796875 8.6109375,10.4375 7.9421875,10.4375 Z M7.9421875,6.5078125 C7.125,6.5078125 6.459375,7.1703125 6.459375,7.984375 C6.459375,8.7984375 7.125,9.4609375 7.9421875,9.4609375 C8.759375,9.4609375 9.425,8.7984375 9.425,7.984375 C9.4203125,7.15625 8.76875,6.5078125 7.9421875,6.5078125 L7.9421875,6.5078125 Z" id="形状" fill="#7B8C9C"></path>
            </g>
        </g>
    </g>
</svg>