<?xml version="1.0" encoding="UTF-8"?>
<svg width="14px" height="14px" viewBox="0 0 14 14" version="1.1" xmlns="http://www.w3.org/2000/svg" xmlns:xlink="http://www.w3.org/1999/xlink">
    <title>编组 7</title>
    <g id="页面-1" stroke="none" stroke-width="1" fill="none" fill-rule="evenodd">
        <g id="建木自动化-组详情-添加项目" transform="translate(-963.000000, -235.000000)">
            <g id="编组-26" transform="translate(309.000000, 100.000000)">
                <g id="编组-7" transform="translate(654.000000, 135.000000)">
                    <rect id="矩形" fill="#000000" fill-rule="nonzero" opacity="0" transform="translate(7.000000, 7.000000) scale(1, -1) rotate(-270.000000) translate(-7.000000, -7.000000) " x="0" y="0" width="14" height="14"></rect>
                    <path d="M8.35623108,11.6863988 L4.20314194,7.88848071 C4.07401742,7.77500768 4,7.61143202 4,7.43953301 C4,7.26762183 4.07400827,7.10403147 4.20314194,6.9905504 L8.35623108,3.1926498 C8.55205872,3.00724372 8.8374734,2.94995131 9.08956352,3.04577034 C9.34165364,3.14158937 9.51768555,3.37285382 9.54163594,3.64161495 L9.54163594,11.2343263 C9.51871548,11.5041174 9.34373097,11.7363943 9.09059346,11.8322308 C8.8374734,11.9291147 8.55310611,11.8718223 8.35623108,11.6863988 L8.35623108,11.6863988 Z" id="路径" fill="#6B7B8D" transform="translate(6.770818, 7.439367) scale(1, -1) rotate(-270.000000) translate(-6.770818, -7.439367) "></path>
                </g>
            </g>
        </g>
    </g>
</svg>