<?xml version="1.0" encoding="UTF-8"?>
<svg width="16px" height="16px" viewBox="0 0 16 16" version="1.1" xmlns="http://www.w3.org/2000/svg" xmlns:xlink="http://www.w3.org/1999/xlink">
    <title>搜索备份 2</title>
    <g id="页面-1" stroke="none" stroke-width="1" fill="none" fill-rule="evenodd">
        <g id="建木自动化-组详情-添加项目" transform="translate(-363.000000, -416.000000)" fill-rule="nonzero">
            <g id="编组-26" transform="translate(309.000000, 100.000000)">
                <g id="搜索备份-2" transform="translate(54.000000, 316.000000)">
                    <rect id="矩形" fill="#000000" opacity="0" x="0" y="0" width="16" height="16"></rect>
                    <path d="M16,14.7422222 L12.72,11.4622222 C13.6935426,10.2208237 14.2225011,8.68872175 14.2222222,7.11111111 C14.2222222,3.18375289 11.0384693,0 7.11111111,0 C3.18375289,0 0,3.18375289 0,7.11111111 C0,11.0384693 3.18375289,14.2222222 7.11111111,14.2222222 C8.68872175,14.2225011 10.2208237,13.6935426 11.4622222,12.72 L14.7422222,16 L16,14.7422222 Z M1.77777778,7.11111111 C1.77777778,4.16559245 4.16559245,1.77777778 7.11111111,1.77777778 C10.0566298,1.77777778 12.4444444,4.16559245 12.4444444,7.11111111 C12.4444444,10.0566298 10.0566298,12.4444444 7.11111111,12.4444444 C5.69662316,12.4444444 4.34006896,11.8825413 3.33987495,10.8823473 C2.33968093,9.88215325 1.77777778,8.52559905 1.77777778,7.11111111 Z" id="形状" fill="#7B8C9C"></path>
                </g>
            </g>
        </g>
    </g>
</svg>