<?xml version="1.0" encoding="UTF-8"?>
<svg width="20px" height="20px" viewBox="0 0 20 20" version="1.1" xmlns="http://www.w3.org/2000/svg" xmlns:xlink="http://www.w3.org/1999/xlink">
    <title>选择</title>
    <g id="页面-1" stroke="none" stroke-width="1" fill="none" fill-rule="evenodd">
        <g id="建木自动化-组详情-添加项目" transform="translate(-615.000000, -472.000000)" fill-rule="nonzero">
            <g id="编组-26" transform="translate(309.000000, 100.000000)">
                <g id="选择" transform="translate(306.000000, 372.000000)">
                    <rect id="矩形" fill="#000000" opacity="0" x="0" y="0" width="20" height="20"></rect>
                    <path d="M19.9090909,20 C19.8181818,19.8636364 19.7272727,19.6818182 19.5909091,19.5909091 C13.1818182,13.1818182 6.77272727,6.77272727 0.363636367,0.409090918 C0.272727266,0.272727266 0.136363633,0.181818184 0,0.090909082 C0.136363633,0.0454545508 0.272727266,0 0.409090918,0 L20,0 L20,19.5909091 C20,19.7272727 19.9545454,19.8636363 19.9090909,20 Z M14.1050507,9.77138075 C15.5851854,8.291246 17.0653202,6.81111123 18.5454549,5.38383842 C18.3868691,5.17239059 18.1754212,4.96094277 17.9111114,4.59090908 C16.6424245,5.91245797 15.4265995,7.18114491 14.1579126,8.44983186 C13.4178452,7.70976449 12.7306398,7.02255905 12.0962963,6.33535362 L11.4090909,7.02255905 C12.3077442,7.92121229 13.2063974,8.87272749 14.1050507,9.77138075 L14.1050507,9.77138075 Z" id="形状" fill="#096DD9"></path>
                </g>
            </g>
        </g>
    </g>
</svg>