<?xml version="1.0" encoding="UTF-8"?>
<svg width="44px" height="44px" viewBox="0 0 44 44" version="1.1" xmlns="http://www.w3.org/2000/svg" xmlns:xlink="http://www.w3.org/1999/xlink">
    <title>设置</title>
    <g id="页面-1" stroke="none" stroke-width="1" fill="none" fill-rule="evenodd">
        <g id="工作流程图备份" transform="translate(-451.000000, -485.000000)" fill-rule="nonzero">
            <g id="设置" transform="translate(451.000000, 485.000000)">
                <rect id="矩形" fill="#000000" opacity="0" x="0" y="0" width="44" height="44"></rect>
                <path d="M41.1125,32.175 C41.25,32.725 41.284375,33.275 41.284375,33.859375 C41.421875,33.928125 43.484375,34.925 43.10625,36.09375 L42.96875,36.50625 C42.69375,37.4 40.7,37.365625 40.184375,37.33125 C39.875,37.8125 39.496875,38.259375 39.084375,38.6375 C39.11875,38.70625 39.978125,40.90625 38.84375,41.490625 L38.29375,41.8 C37.434375,42.246875 36.128125,40.734375 35.853125,40.35625 C35.26875,40.49375 34.684375,40.528125 34.065625,40.49375 L34.16875,40.528125 C34.16875,40.528125 33.1375,42.728125 31.9,42.35 L31.4875,42.2125 C30.559375,41.9375 30.628125,39.771875 30.6625,39.39375 C30.146875,39.05 29.7,38.671875 29.321875,38.259375 L29.390625,38.3625 C29.390625,38.3625 27.121875,39.221875 26.503125,38.0875 L26.228125,37.640625 C25.78125,36.78125 27.396875,35.3375 27.70625,35.0625 C27.603125,34.5125 27.534375,33.9625 27.534375,33.4125 C27.190625,33.20625 25.36875,32.071875 25.678125,31.14375 L25.815625,30.73125 C26.159375,29.63125 28.153125,29.871875 28.634375,29.940625 C28.94375,29.459375 29.2875,29.046875 29.7,28.66875 C29.596875,28.290625 29.0125,26.19375 29.90625,25.7125 L30.421875,25.50625 C31.41875,24.990625 32.65625,26.5375 32.965625,26.95 C33.515625,26.8125 34.065625,26.778125 34.65,26.778125 C34.925,26.365625 35.990625,24.68125 36.91875,24.95625 L37.33125,25.09375 C38.396875,25.4375 38.225,27.328125 38.15625,27.878125 C38.6375,28.1875 39.084375,28.565625 39.4625,28.978125 C39.94375,28.840625 41.903125,28.359375 42.35,29.184375 L42.625,29.7 C43.071875,30.6625 41.559375,31.865625 41.1125,32.175 Z M35.853125,28.80625 C33.171875,27.98125 30.31875,29.49375 29.459375,32.175 C28.634375,34.85625 30.146875,37.709375 32.828125,38.56875 C35.509375,39.39375 38.3625,37.88125 39.221875,35.2 C40.08125,32.484375 38.56875,29.63125 35.853125,28.80625 Z M33.34375,36.91875 C31.55625,36.36875 30.559375,34.478125 31.109375,32.65625 C31.659375,30.86875 33.55,29.871875 35.371875,30.421875 C37.159375,30.971875 38.15625,32.8625 37.60625,34.684375 C37.05625,36.471875 35.165625,37.46875 33.34375,36.91875 Z M34.85625,32.0375 C33.9625,31.7625 33,32.278125 32.725,33.171875 C32.45,34.065625 32.965625,35.028125 33.859375,35.303125 C34.753125,35.578125 35.715625,35.0625 35.990625,34.16875 C36.265625,33.275 35.75,32.3125 34.85625,32.0375 Z M28.290625,20.2125 C28.015625,21.175 27.6375,22.103125 27.15625,22.928125 C27.225,23.03125 29.803125,26.228125 28.221875,27.809375 L27.43125,28.6 C26.2625,29.76875 23.30625,27.946875 22.584375,27.465625 C21.690625,27.98125 20.728125,28.359375 19.696875,28.634375 L19.903125,28.634375 C19.903125,28.634375 19.353125,32.8625 17.084375,32.8625 L16.29375,32.8625 C14.575,32.8625 13.6125,29.253125 13.440625,28.565625 C12.44375,28.290625 11.48125,27.878125 10.5875,27.328125 L10.759375,27.5 C10.759375,27.5 7.425,30.1125 5.84375,28.53125 L5.121875,27.946875 C3.91875,26.74375 5.878125,23.5125 6.25625,22.89375 C5.775,22.06875 5.396875,21.175 5.15625,20.2125 C4.503125,20.040625 0.859375,19.078125 0.859375,17.359375 L0.859375,16.56875 C0.859375,14.575 4.33125,13.921875 5.121875,13.784375 C5.396875,12.821875 5.775,11.928125 6.221875,11.103125 C5.84375,10.553125 3.815625,7.321875 5.053125,6.084375 L5.809375,5.465625 C7.21875,4.05625 10.10625,6.05 10.759375,6.565625 C11.61875,6.084375 12.5125,5.671875 13.475,5.43125 C13.68125,4.571875 14.64375,1.203125 16.29375,1.203125 L17.084375,1.203125 C19.009375,1.203125 19.696875,4.46875 19.86875,5.396875 C20.83125,5.671875 21.759375,6.05 22.653125,6.53125 C23.375,6.05 26.4,4.228125 27.56875,5.396875 L28.290625,6.153125 C29.665625,7.528125 27.775,10.3125 27.190625,11.06875 C27.671875,11.928125 28.05,12.821875 28.325,13.81875 C28.565625,13.853125 32.51875,14.4375 32.51875,16.6375 L32.51875,17.428125 C32.484375,19.009375 29.184375,19.971875 28.290625,20.2125 Z M16.671875,8.1125 C11.75625,8.1125 7.76875,12.1 7.76875,17.015625 C7.76875,21.93125 11.75625,25.91875 16.671875,25.91875 C21.5875,25.91875 25.575,21.93125 25.575,17.015625 C25.575,12.1 21.5875,8.1125 16.671875,8.1125 Z M16.671875,22.9625 C13.40625,22.9625 10.725,20.315625 10.725,17.015625 C10.725,13.75 13.371875,11.06875 16.671875,11.06875 C19.9375,11.06875 22.61875,13.715625 22.61875,17.015625 C22.61875,20.28125 19.9375,22.9625 16.671875,22.9625 Z M16.671875,14.059375 C15.021875,14.059375 13.715625,15.4 13.715625,17.015625 C13.715625,18.63125 15.05625,19.971875 16.671875,19.971875 C18.321875,19.971875 19.628125,18.63125 19.628125,17.015625 C19.628125,15.4 18.321875,14.059375 16.671875,14.059375 Z" id="形状" fill="#979797"></path>
            </g>
        </g>
    </g>
</svg>