<svg id="图层_1" data-name="图层 1" xmlns="http://www.w3.org/2000/svg" viewBox="0 0 596.17 190.82"><defs><style>.cls-1{fill:#012c53;}.cls-2{fill:#096dd9;}.cls-3{opacity:0.3;}</style></defs><path class="cls-1" d="M45.63,79.51v50.78a33.39,33.39,0,0,1-33.05,33.59,11.18,11.18,0,0,1,.27-22.35h-.54a11,11,0,0,0,11-11.24V79.51A11.3,11.3,0,0,1,34.52,68.26,11.1,11.1,0,0,1,45.63,79.51ZM23.28,51.88A11.3,11.3,0,0,1,34.52,40.64a11.17,11.17,0,0,1,0,22.34A11.27,11.27,0,0,1,23.28,51.88Z"/><path class="cls-1" d="M59.17,52.56a11.11,11.11,0,1,1,11.11,11.1A11.11,11.11,0,0,1,59.17,52.56Z"/><path class="cls-1" d="M81.38,79.64V125a11.11,11.11,0,0,1-22.21,0V79.64a11.11,11.11,0,1,1,22.21,0Z"/><path class="cls-1" d="M162.77,102.37h0a.13.13,0,0,1-.13-.14V79.75h0A11.3,11.3,0,0,0,151.4,68.51a10.73,10.73,0,0,0-6.52,2.08,10.94,10.94,0,0,0-1.51,1.29c-5.42-3.23-14.45-3.37-14.45-3.37a34,34,0,0,0-16.82,4.43l-.79.31L109,74.74a33.83,33.83,0,0,0-13.9,24.07l0,.3c0,.47-.08.93-.1,1.4s0,.73,0,1.1c0,.21,0,.41,0,.62v.14h0v.13c0,.21,0,.42,0,.63,0,.37,0,.74,0,1.1s.06.93.1,1.4l0,.3A33.83,33.83,0,0,0,109,130l2.3,1.49.79.31a34,34,0,0,0,16.82,4.43s9-.14,14.45-3.37a10.94,10.94,0,0,0,1.51,1.29,10.73,10.73,0,0,0,6.52,2.08A11.3,11.3,0,0,0,162.64,125h0V102.5a.13.13,0,0,1,.13-.13Zm-33.85,11.11a11.35,11.35,0,0,1-11.26-9.63,9.19,9.19,0,0,1,0-3,11.35,11.35,0,0,1,11.26-9.63A11.16,11.16,0,0,1,140,102.37h0A11.16,11.16,0,0,1,128.92,113.48Z"/><path class="cls-1" d="M244,102.26v22.61a11.25,11.25,0,0,1-22.49,0V102.26a11.31,11.31,0,0,0-22.61,0v22.61a11.21,11.21,0,0,1-11.24,11.24,11.33,11.33,0,0,1-11.38-11.24V102.26a33.86,33.86,0,1,1,67.72,0Z"/><path class="cls-2" d="M370.66,102.39V125a11.3,11.3,0,0,1-11.37,11.1A11.18,11.18,0,0,1,348.05,125V102.39a11.38,11.38,0,0,0-22.76,0V125a11.18,11.18,0,0,1-11.24,11.1A11.3,11.3,0,0,1,302.68,125V102.39A11.21,11.21,0,0,0,291.57,91a11.43,11.43,0,0,0-11.37,11.37V125A11.18,11.18,0,0,1,269,136.11,11.3,11.3,0,0,1,257.58,125V102.39a34,34,0,0,1,34-34,33.2,33.2,0,0,1,22.48,8.67,33.56,33.56,0,0,1,22.62-8.67A34.1,34.1,0,0,1,370.66,102.39Z"/><path class="cls-2" d="M384.21,101.63V79a11.24,11.24,0,1,1,22.48,0v22.62a11.33,11.33,0,0,0,11.38,11.24,11.21,11.21,0,0,0,11.24-11.24V79a11.21,11.21,0,0,1,11.24-11.24A11.33,11.33,0,0,1,451.93,79v22.62a33.86,33.86,0,0,1-67.72,0Z"/><path class="cls-2" d="M463.63,68.4h9.94v1.21h-4.28V80.54h-1.38V69.61h-4.28Z"/><path class="cls-2" d="M475.08,68.4h1.74l4.52,10.35h.05l4.5-10.35h1.74V80.54h-1.4V70.88h-.05L482,80.54h-1.25l-4.2-9.66h0v9.66h-1.4Z"/><g class="cls-3"><path class="cls-2" d="M531,87.57h15.91a8,8,0,0,1,0,15.91H531a7.91,7.91,0,0,0,0,15.82h15.91a8,8,0,0,1,7.91,8,7.89,7.89,0,0,1-7.91,7.91H531a23.82,23.82,0,0,1,0-47.64Z"/><path class="cls-2" d="M566.22,76A7.81,7.81,0,1,1,574,83.76,7.81,7.81,0,0,1,566.22,76Zm15.62,19.53V127.4a7.81,7.81,0,0,1-15.62,0V95.48a7.81,7.81,0,0,1,15.62,0Z"/></g></svg>