<?xml version="1.0" encoding="UTF-8"?>
<svg width="283px" height="64px" viewBox="0 0 283 64" version="1.1" xmlns="http://www.w3.org/2000/svg" xmlns:xlink="http://www.w3.org/1999/xlink">
    <title>编组 4</title>
    <g id="页面-1" stroke="none" stroke-width="1" fill="none" fill-rule="evenodd">
        <g id="jianmuLOGO" transform="translate(-233.000000, -322.000000)">
            <g id="编组-4" transform="translate(233.000000, 322.000000)">
                <path d="M11.1466049,5.78240741 C11.1466049,2.5781893 13.7937243,1.56319402e-13 16.9284979,1.56319402e-13 C20.1332305,1.56319402e-13 22.6414609,2.5781893 22.6414609,5.78240741 C22.6414609,8.91718107 20.1332305,11.494856 16.9284979,11.494856 C13.7937243,11.494856 11.1466049,8.91718107 11.1466049,5.78240741 M22.6414609,19.9943416 L22.6414609,46.1183128 C22.6414609,55.593107 15.117284,63.3261317 5.64300412,63.3950617 C2.50771605,63.3261317 -1.73727699e-12,60.8179012 -1.73727699e-12,57.6831276 C-1.73727699e-12,54.4778807 2.5776749,51.9007202 5.781893,51.9007202 L5.50308642,51.9007202 C8.63837449,51.9007202 11.1466049,49.3924897 11.1466049,46.1183128 L11.1466049,19.9943416 C11.1466049,16.7885802 13.7937243,14.2119342 16.9284979,14.2119342 C20.1332305,14.2119342 22.6414609,16.7885802 22.6414609,19.9943416" id="Fill-17" fill="#012C53"></path>
                <path d="M29.6083333,6.13101852 C29.6083333,2.92680041 32.1160494,0.348611111 35.3202675,0.348611111 C38.5255144,0.348611111 41.0332305,2.92680041 41.0332305,6.13101852 C41.0332305,9.26630658 38.5255144,11.8434671 35.3202675,11.8434671 C32.1160494,11.8434671 29.6083333,9.26630658 29.6083333,6.13101852" id="Fill-19" fill="#012C53"></path>
                <path d="M41.0332305,20.0636317 L41.0332305,43.4015947 C41.0332305,46.5363683 38.5255144,49.1145576 35.3207819,49.1145576 C32.1160494,49.1145576 29.6083333,46.5363683 29.6083333,43.4015947 L29.6083333,20.0636317 C29.6083333,16.9283436 32.1160494,14.3511831 35.3207819,14.3511831 C38.5255144,14.3511831 41.0332305,16.9283436 41.0332305,20.0636317" id="Fill-21" fill="#012C53"></path>
                <path d="M65.4859568,37.46893 C62.5456276,37.46893 60.080607,35.2966049 59.6932613,32.517284 C59.6634259,32.2703704 59.6341049,32.0219136 59.6341049,31.7559671 C59.6341049,31.4895062 59.6634259,31.2415638 59.6932613,30.9941358 C60.080607,28.2148148 62.5456276,26.0424897 65.4859568,26.0424897 C68.6207305,26.0424897 71.1984053,28.620679 71.1984053,31.7554527 L71.2678498,31.7554527 L71.2678498,31.7564815 L71.1984053,31.7564815 C71.1984053,34.8907407 68.6207305,37.46893 65.4859568,37.46893 L65.4859568,37.46893 Z M82.9005658,31.7559671 L82.9021091,31.7554527 L82.899537,31.7554527 C82.8938786,31.7554527 82.833179,31.7533951 82.833179,31.6865226 L82.833179,20.1217078 L82.833179,20.1211934 C82.833179,16.9169753 80.1850309,14.3393004 77.0502572,14.3393004 C75.7539609,14.3393004 74.6274177,14.7199588 73.6984053,15.4092593 C73.4201132,15.6073045 73.1587963,15.8274691 72.9201132,16.0702675 C70.1315329,14.4092593 65.4859568,14.3393004 65.4859568,14.3393004 C62.3336934,14.3393004 59.3841049,15.1700617 56.8347222,16.6175926 C56.6989198,16.6674897 56.5631173,16.7173868 56.4298868,16.777572 L55.245216,17.5445473 C51.3069444,20.3567901 48.609928,24.8547325 48.0960391,29.9262346 C48.0908951,29.9776749 48.0867798,30.0291152 48.0821502,30.08107 C48.0600309,30.3197531 48.0394547,30.5579218 48.0276235,30.7986626 C48.0173354,30.9859053 48.0137346,31.1757202 48.0096193,31.3645062 C48.0075617,31.4720165 47.9998457,31.5784979 47.9998457,31.6865226 L47.9998457,31.7554527 L47.9998457,31.7564815 L47.9998457,31.8248971 C47.9998457,31.9329218 48.0075617,32.0394033 48.0096193,32.1469136 C48.0137346,32.3356996 48.0173354,32.5255144 48.0276235,32.7127572 C48.0394547,32.9534979 48.0600309,33.1921811 48.0821502,33.4303498 C48.0867798,33.4823045 48.0908951,33.5342593 48.0960391,33.5851852 C48.609928,38.6572016 51.3069444,43.1546296 55.245216,45.9673868 L56.4298868,46.7338477 C56.5631173,46.7940329 56.6989198,46.84393 56.8347222,46.8938272 C59.3841049,48.341358 62.3336934,49.1721193 65.4859568,49.1721193 C65.4859568,49.1721193 70.1315329,49.1021605 72.9201132,47.4411523 C73.1587963,47.684465 73.4201132,47.9041152 73.6984053,48.1021605 C74.6274177,48.7914609 75.7539609,49.1721193 77.0502572,49.1721193 C80.1850309,49.1721193 82.833179,46.5949588 82.833179,43.3902263 L82.833179,43.3897119 L82.833179,31.8248971 C82.833179,31.7580247 82.8938786,31.7564815 82.899537,31.7564815 L82.9021091,31.7564815 L82.9005658,31.7559671 Z" id="Fill-23" fill="#012C53"></path>
                <path d="M124.703138,31.6974794 L124.703138,43.3317387 C124.703138,46.5364712 122.125463,49.1141461 118.92073,49.1141461 C115.715998,49.1141461 113.138837,46.5364712 113.138837,43.3317387 L113.138837,31.6974794 C113.138837,28.4932613 110.491204,25.9161008 107.286986,25.9161008 C104.082253,25.9161008 101.504578,28.4932613 101.504578,31.6974794 L101.504578,43.3317387 C101.504578,46.5364712 98.9274177,49.1141461 95.7221708,49.1141461 C92.5179527,49.1141461 89.8703189,46.5364712 89.8703189,43.3317387 L89.8703189,31.6974794 C89.8703189,22.0843107 97.6727881,14.2818416 107.286986,14.2818416 C116.900669,14.2818416 124.703138,22.0843107 124.703138,31.6974794" id="Fill-25" fill="#012C53"></path>
                <path d="M189.841461,31.7673354 L189.841461,43.4015947 C189.841461,46.5363683 187.194342,49.1145576 183.989095,49.1145576 C180.784877,49.1145576 178.207202,46.5363683 178.207202,43.4015947 L178.207202,31.7673354 C178.207202,28.5631173 175.559568,25.9159979 172.35535,25.9159979 C169.150617,25.9159979 166.503498,28.5631173 166.503498,31.7673354 L166.503498,43.4015947 C166.503498,46.5363683 163.925309,49.1145576 160.721091,49.1145576 C157.516358,49.1145576 154.869753,46.5363683 154.869753,43.4015947 L154.869753,31.7673354 C154.869753,28.5631173 152.361523,25.9159979 149.15679,25.9159979 C145.952572,25.9159979 143.304938,28.5631173 143.304938,31.7673354 L143.304938,43.4015947 C143.304938,46.5363683 140.727263,49.1145576 137.522531,49.1145576 C134.317798,49.1145576 131.670679,46.5363683 131.670679,43.4015947 L131.670679,31.7673354 C131.670679,22.0842078 139.543107,14.2817387 149.15679,14.2817387 C153.615123,14.2817387 157.656276,15.9535494 160.721091,18.7405864 C163.786934,15.9535494 167.896502,14.2817387 172.35535,14.2817387 C181.969033,14.2817387 189.841461,22.1541667 189.841461,31.7673354" id="Fill-27" fill="#096DD9"></path>
                <path d="M196.810494,31.3729938 L196.810494,19.739249 C196.810494,16.5340021 199.388169,13.957356 202.592387,13.957356 C205.797119,13.957356 208.37428,16.5340021 208.37428,19.739249 L208.37428,31.3729938 C208.37428,34.5772119 211.022428,37.1554012 214.226646,37.1554012 C217.431379,37.1554012 220.009568,34.5772119 220.009568,31.3729938 L220.009568,19.739249 C220.009568,16.5340021 222.586728,13.957356 225.791461,13.957356 C228.995679,13.957356 231.643313,16.5340021 231.643313,19.739249 L231.643313,31.3729938 C231.643313,40.9871914 223.840844,48.7896605 214.226646,48.7896605 C204.612963,48.7896605 196.810494,40.9871914 196.810494,31.3729938" id="Fill-29" fill="#096DD9"></path>
                <g id="编组" transform="translate(243.372634, 13.699743)" fill="#096DD9" opacity="0.303120458">
                    <path d="M12.582716,10.304784 L20.7673868,10.304784 C23.0220165,10.304784 24.8352881,12.1180556 24.8352881,14.3721708 C24.8352881,16.6268004 23.0220165,18.4894547 20.7673868,18.4894547 L12.582716,18.4894547 C10.3286008,18.4894547 8.51532922,20.3027263 8.51532922,22.5568416 C8.51532922,24.8114712 10.3286008,26.6252572 12.582716,26.6252572 L20.7673868,26.6252572 C23.0220165,26.6252572 24.8352881,28.4873971 24.8352881,30.7415123 C24.8352881,32.996142 23.0220165,34.809928 20.7673868,34.809928 L12.582716,34.809928 C5.81985597,34.809928 0.330658436,29.3207305 0.330658436,22.5568416 C0.330658436,15.7939815 5.81985597,10.304784 12.582716,10.304784" id="Fill-91"></path>
                    <path d="M38.7520062,14.3723251 L38.7520062,30.7910494 C38.7520062,32.9962963 36.9870885,34.8095679 34.7329733,34.8095679 C32.478858,34.8095679 30.7139403,32.9962963 30.7139403,30.7910494 L30.7139403,14.3723251 C30.7139403,12.1670782 32.478858,10.3538066 34.7329733,10.3538066 C36.9870885,10.3538066 38.7520062,12.1670782 38.7520062,14.3723251 M30.7139403,4.3255144 C30.7139403,2.07088477 32.478858,0.257613169 34.7329733,0.257613169 C36.9870885,0.257613169 38.7520062,2.07088477 38.7520062,4.3255144 C38.7520062,6.53076132 36.9870885,8.34403292 34.7329733,8.34403292 C32.478858,8.34403292 30.7139403,6.53076132 30.7139403,4.3255144" id="Fill-93"></path>
                </g>
            </g>
        </g>
    </g>
</svg>