<?xml version="1.0" encoding="UTF-8"?>
<svg width="56px" height="56px" viewBox="0 0 56 56" version="1.1" xmlns="http://www.w3.org/2000/svg" xmlns:xlink="http://www.w3.org/1999/xlink">
    <title>组件信息</title>
    <g id="页面-1" stroke="none" stroke-width="1" fill="none" fill-rule="evenodd">
        <g id="建木CI-图形编辑器入口备份-6" transform="translate(-1568.000000, -104.000000)">
            <g id="组件信息备份" transform="translate(1568.000000, 104.000000)">
                <circle id="椭圆形备份-3" fill="#EAE9FF" cx="28" cy="28" r="28"></circle>
                <path d="M43.84,29.98 L22.06,29.98 L22.06,31.96 C22.06,33.0535238 21.1735238,33.94 20.08,33.94 L18.1,33.94 C17.0064762,33.94 16.12,33.0535238 16.12,31.96 L16.12,29.98 L12.16,29.98 C11.0664762,29.98 10.18,29.0935238 10.18,28 C10.18,26.9064762 11.0664762,26.02 12.16,26.02 L16.12,26.02 L16.12,24.04 C16.12,22.9465 17.0065,22.06 18.1,22.06 L20.08,22.06 C21.1735,22.06 22.06,22.9465 22.06,24.04 L22.06,26.02 L43.84,26.02 C44.9335238,26.02 45.82,26.9064762 45.82,28 C45.82,29.0935238 44.9335238,29.98 43.84,29.98 L43.84,29.98 Z M43.84,18.1 L37.9,18.1 L37.9,20.08 C37.9,21.1735238 37.0135238,22.06 35.92,22.06 L33.94,22.06 C32.8464762,22.06 31.96,21.1735238 31.96,20.08 L31.96,18.1 L12.16,18.1 C11.0664762,18.1 10.18,17.2135238 10.18,16.12 C10.18,15.0264762 11.0664762,14.14 12.16,14.14 L31.96,14.14 L31.96,12.16 C31.96,11.0665 32.8465,10.18 33.94,10.18 L35.92,10.18 C37.0135,10.18 37.9,11.0665 37.9,12.16 L37.9,14.14 L43.84,14.14 C44.9335238,14.14 45.82,15.0264762 45.82,16.12 C45.82,17.2135238 44.9335238,18.1 43.84,18.1 L43.84,18.1 Z M12.16,37.9 L31.96,37.9 L31.96,35.92 C31.96,34.8265 32.8465,33.94 33.94,33.94 L35.92,33.94 C37.0135,33.94 37.9,34.8265 37.9,35.92 L37.9,37.9 L43.84,37.9 C44.9335238,37.9 45.82,38.7864762 45.82,39.88 C45.82,40.9735238 44.9335238,41.86 43.84,41.86 L37.9,41.86 L37.9,43.84 C37.9,44.9335238 37.0135238,45.82 35.92,45.82 L33.94,45.82 C32.8464762,45.82 31.96,44.9335238 31.96,43.84 L31.96,41.86 L12.16,41.86 C11.4526141,41.86 10.7989626,41.4826142 10.4452696,40.87 C10.0915767,40.2573859 10.0915767,39.5026141 10.4452696,38.89 C10.7989626,38.2773858 11.4526141,37.9 12.16,37.9 L12.16,37.9 Z" id="形状" fill="#2D26EF" fill-rule="nonzero"></path>
            </g>
        </g>
    </g>
</svg>