<?xml version="1.0" encoding="UTF-8"?>
<svg width="45px" height="20px" viewBox="0 0 45 20" version="1.1" xmlns="http://www.w3.org/2000/svg" xmlns:xlink="http://www.w3.org/1999/xlink">
    <title>git备份 6</title>
    <g id="页面-1" stroke="none" stroke-width="1" fill="none" fill-rule="evenodd">
        <g id="建木自动化-首页备份-4" transform="translate(-1063.000000, -500.000000)">
            <g id="git备份-6" transform="translate(1063.000000, 500.000000)">
                <polygon id="路径-5备份-7" fill="#E4E4E4" transform="translate(22.500000, 10.000000) scale(-1, 1) translate(-22.500000, -10.000000) " points="0 0 0 20 36.8181818 20 45 10 36.8181818 0"></polygon>
                <rect id="矩形" fill="#000000" fill-rule="nonzero" opacity="0" x="19" y="3" width="14" height="14"></rect>
                <path d="M24.9141797,7.33097656 L22.7460938,7.33097656 C21.6523438,7.04414062 19.1780078,7.11878906 19.1780078,9.37601562 C19.1780078,10.1987891 19.5881641,10.7768359 20.1350391,11.0439844 C19.4487109,11.6728906 19.1233203,11.9695703 19.1233203,12.3895703 C19.1233203,12.6903516 19.2455469,12.9676172 19.6125,13.1226562 C19.2223047,13.4893359 19,13.7556641 19,14.2560547 C19,15.1340625 19.7669922,15.6456641 21.7789453,15.6456641 C23.7135156,15.6456641 24.8357031,14.9232422 24.8357031,13.6446484 C24.8357031,12.0406641 23.6008594,12.0997266 20.6895703,11.9219922 L21.0567969,11.3327344 C21.8024609,11.54 24.3025,11.6061719 24.3025,9.47636719 C24.3025,8.96503906 24.0911328,8.60929687 23.8923438,8.35335937 L24.9152734,8.27570312 L24.9141797,7.33097656 Z M23.1800391,13.9454297 C23.1800391,14.8220703 20.3119531,14.8231641 20.3119531,14.011875 C20.3119531,13.7892969 20.4560547,13.6017187 20.6009766,13.4228906 C22.7258594,13.5678125 23.1800391,13.5150391 23.1800391,13.9454297 Z M21.7907031,10.2655078 C20.3469531,10.2655078 20.4109375,8.31972656 21.8235156,8.31972656 C23.178125,8.31972656 23.213125,10.2655078 21.7907031,10.2655078 Z M25.435625,13.0138281 L25.435625,12.1360937 C26.1670703,12.0360156 26.1804688,12.0814062 26.1804688,11.8353125 L26.1804688,8.56746094 C26.1804688,8.33503906 26.1244141,8.36566406 25.435625,8.12285156 L25.5578516,7.22269531 L27.859375,7.22269531 L27.859375,11.8358594 C27.859375,12.0138672 27.8703125,12.0360156 28.0373828,12.0584375 L28.6042188,12.1360937 L28.6042188,13.0138281 L25.435625,13.0138281 Z M26.8698047,6.33347656 C26.23625,6.33347656 25.8692969,5.96625 25.8692969,5.33242187 C25.8692969,4.69859375 26.23625,4.35433594 26.8698047,4.35433594 C27.5145703,4.35433594 27.8815234,4.69941406 27.8815234,5.33242187 C27.8815234,5.96542969 27.5145703,6.33347656 26.8698047,6.33347656 Z M33,12.5828906 C32.5217578,12.8161328 31.8214844,13.0275 31.1876562,13.0275 C29.8647656,13.0275 29.3646484,12.4942969 29.3646484,11.2375781 L29.3646484,8.32519531 C29.3646484,8.17699219 29.3933594,8.21417969 28.4975781,8.21417969 L28.4975781,7.22460937 C29.4759375,7.11332031 29.8647656,6.62304687 29.9869922,5.41253906 L31.0432812,5.41253906 C31.0432812,7.21257812 31.0066406,7.10265625 31.1324219,7.10265625 L32.6992188,7.10265625 L32.6992188,8.21417969 L31.0432812,8.21417969 L31.0432812,10.870625 C31.0432812,11.0598437 30.90875,12.2763672 32.6994922,11.6045312 L33,12.5828906 Z" id="形状" fill="#979797" fill-rule="nonzero"></path>
            </g>
        </g>
    </g>
</svg>