<?xml version="1.0" encoding="UTF-8"?>
<svg width="44px" height="44px" viewBox="0 0 44 44" version="1.1" xmlns="http://www.w3.org/2000/svg" xmlns:xlink="http://www.w3.org/1999/xlink">
    <title>git</title>
    <g id="页面-1" stroke="none" stroke-width="1" fill="none" fill-rule="evenodd">
        <g id="建木CI-图形编辑器入口备份-3" transform="translate(-458.000000, -104.000000)" fill-rule="nonzero">
            <g id="git" transform="translate(458.000000, 104.000000)">
                <rect id="矩形" fill="#000000" opacity="0" x="0" y="0" width="44" height="44"></rect>
                <path d="M41.2434036,20.2166113 L23.7783723,2.75328739 C22.7702894,1.7489042 21.1397821,1.7489042 20.1316991,2.75328739 L16.5133593,6.37828545 L21.1133676,10.9782829 C22.2205776,10.603182 23.444747,10.8909437 24.2688884,11.7200415 C25.0930299,12.5491393 25.3734442,13.7750099 24.9917079,14.8799475 L29.4217158,19.3132784 C30.7719566,18.843794 32.2674089,19.37062 33.0252395,20.5827474 C33.7830701,21.7948747 33.601778,23.3700084 32.5883882,24.3782757 C32.0140723,24.9535153 31.2345773,25.2767594 30.4217176,25.2767594 C29.6088579,25.2767594 28.829363,24.9535153 28.255047,24.3782757 C27.3839266,23.504679 27.1188821,22.195205 27.5817125,21.0516108 L23.4333717,16.9249464 L23.4333717,27.7999405 C23.7267056,27.9432737 24.0033728,28.1382737 24.2467065,28.3799402 C25.4346372,29.5801423 25.4346372,31.5130691 24.2467065,32.7132712 C23.6702633,33.2902397 22.8881223,33.6144215 22.072536,33.6144215 C21.2569497,33.6144215 20.4748087,33.2902397 19.8983654,32.7132712 C19.3229164,32.1397443 18.9994705,31.3607212 18.9994705,30.5482724 C18.9994705,29.7358235 19.3229164,28.9568004 19.8983654,28.3832735 C20.2016993,28.0832737 20.5433665,27.8566072 20.9067005,27.7066072 L20.9067005,16.7249465 C20.1509809,16.4160071 19.5502589,15.817582 19.2384277,15.0630525 C18.9265966,14.308523 18.9295744,13.4606027 19.2466976,12.708282 L14.7266895,8.16661782 L2.75000133,20.1349446 C1.74999956,21.1432774 1.74999956,22.7749432 2.75000133,23.783276 L20.2166993,41.2449332 C20.6996767,41.7283696 21.3550107,42 22.0383693,42 C22.7217278,42 23.3770619,41.7283696 23.8600392,41.2449332 L41.2434036,23.8616093 C41.7277615,23.3787838 42,22.7230122 42,22.0391103 C42,21.3552083 41.7277615,20.6994367 41.2434036,20.2166113" id="路径" fill="#CF1322"></path>
            </g>
        </g>
    </g>
</svg>
