<?xml version="1.0" encoding="UTF-8"?>
<svg width="68px" height="30px" viewBox="0 0 68 30" version="1.1" xmlns="http://www.w3.org/2000/svg" xmlns:xlink="http://www.w3.org/1999/xlink">
    <title>git</title>
    <g id="页面-1" stroke="none" stroke-width="1" fill="none" fill-rule="evenodd">
        <g id="建木自动化-首页备份-4" transform="translate(-465.000000, -126.000000)" fill-rule="nonzero">
            <g id="git" transform="translate(465.000000, 126.000000)">
                <rect id="矩形" fill="#000000" opacity="0" x="0" y="0" width="65.8994709" height="30"></rect>
                <path d="M48.6643891,9.28066406 L44.0430721,9.28066406 C41.7117229,8.66601563 36.4376281,8.82597656 36.4376281,13.6628906 C36.4376281,15.4259766 37.3118841,16.6646484 38.4775587,17.2371094 C37.0146371,18.5847656 36.3210607,19.2205078 36.3210607,20.1205078 C36.3210607,20.7650391 36.581589,21.3591797 37.3637566,21.6914063 C36.5320478,22.4771484 36.0582011,23.0478516 36.0582011,24.1201172 C36.0582011,26.0015625 37.6930597,27.0978516 41.9815766,27.0978516 C46.1051505,27.0978516 48.4971147,25.5498047 48.4971147,22.8099609 C48.4971147,19.3728516 45.8650215,19.4994141 39.6595527,19.1185547 L40.4423032,17.8558594 C42.0317006,18.3 47.360582,18.4417969 47.360582,13.8779297 C47.360582,12.7822266 46.9100488,12.0199219 46.4863261,11.4714844 L48.6667204,11.3050781 L48.6643891,9.28066406 Z M44.9680349,23.4544922 C44.9680349,25.3330078 38.8546544,25.3353516 38.8546544,23.596875 C38.8546544,23.1199219 39.1618097,22.7179688 39.4707135,22.3347656 C43.9999421,22.6453125 44.9680349,22.5322266 44.9680349,23.4544922 Z M42.0066386,15.5689453 C38.9292576,15.5689453 39.0656415,11.3994141 42.076579,11.3994141 C44.963955,11.3994141 45.0385582,15.5689453 42.0066386,15.5689453 Z M49.7758598,21.4582031 L49.7758598,19.5773438 C51.3349496,19.3628906 51.3635086,19.4601563 51.3635086,18.9328125 L51.3635086,11.9302734 C51.3635086,11.4322266 51.244027,11.4978516 49.7758598,10.9775391 L50.0363881,9.04863281 L54.9421296,9.04863281 L54.9421296,18.9339844 C54.9421296,19.3154297 54.9654431,19.3628906 55.3215567,19.4109375 L56.5297784,19.5773438 L56.5297784,21.4582031 L49.7758598,21.4582031 Z M52.8328414,7.14316406 C51.4824074,7.14316406 50.7002397,6.35625 50.7002397,4.99804687 C50.7002397,3.63984375 51.4824074,2.90214844 52.8328414,2.90214844 C54.2071718,2.90214844 54.9893395,3.64160156 54.9893395,4.99804687 C54.9893395,6.35449219 54.2071718,7.14316406 52.8328414,7.14316406 Z M65.8994709,20.5347656 C64.8800885,21.0345703 63.3874421,21.4875 62.0364253,21.4875 C59.2166584,21.4875 58.150649,20.3449219 58.150649,17.6519531 L58.150649,11.4111328 C58.150649,11.0935547 58.2118469,11.1732422 56.3024719,11.1732422 L56.3024719,9.05273438 C58.3878638,8.81425781 59.2166584,7.76367188 59.4771867,5.16972656 L61.7286872,5.16972656 C61.7286872,9.02695313 61.650587,8.79140625 61.9186921,8.79140625 L65.2583499,8.79140625 L65.2583499,11.1732422 L61.7286872,11.1732422 L61.7286872,16.865625 C61.7286872,17.2710938 61.4419312,19.8779297 65.2589327,18.4382813 L65.8994709,20.5347656 Z M29.2767486,13.6624431 L16.2473258,0.564964906 C15.4952665,-0.188321635 14.2788605,-0.188321635 13.5268013,0.564964906 L10.8274142,3.28371039 L14.2591545,6.73370462 C15.0851655,6.45237923 15.9984316,6.66820029 16.6132651,7.29002294 C17.2280987,7.91184559 17.437296,8.83124747 17.1525095,9.65994974 L20.4574246,12.9849442 C21.4647436,12.6328313 22.5803946,13.0279504 23.1457584,13.9370448 C23.7111222,14.8461393 23.575873,16.0274883 22.8198546,16.7836879 C22.3913982,17.2151171 21.8098722,17.4575499 21.2034551,17.4575499 C20.5970381,17.4575499 20.0155121,17.2151171 19.5870557,16.7836879 C18.9371744,16.1284911 18.7394435,15.1463867 19.0847285,14.288692 L15.9899453,11.1936972 L15.9899453,19.3499336 C16.2087809,19.4574334 16.4151827,19.6036832 16.5967168,19.7849329 C17.4829477,20.6850834 17.4829477,22.1347769 16.5967168,23.0349275 C16.1666733,23.4676533 15.5831733,23.7107894 14.9747221,23.7107894 C14.366271,23.7107894 13.782771,23.4676533 13.3527275,23.0349275 C12.9234257,22.6047828 12.6821257,22.0205161 12.6821257,21.4111802 C12.6821257,20.8018442 12.9234257,20.2175776 13.3527275,19.7874329 C13.5790234,19.5624333 13.8339171,19.3924335 14.1049749,19.2799337 L14.1049749,11.0436975 C13.541186,10.8119932 13.0930299,10.3631749 12.8603947,9.79727838 C12.6277596,9.23138188 12.6299811,8.59544232 12.8665643,8.03120245 L9.4945064,4.62495816 L0.559547735,13.6011932 C-0.186482758,14.3574419 -0.186482758,15.5811899 0.559547735,16.3374386 L13.5902139,29.4336668 C13.950529,29.7962437 14.4394274,29.9999662 14.9492328,29.9999662 C15.4590382,29.9999662 15.9479365,29.7962437 16.3082517,29.4336668 L29.2767486,16.3961885 C29.6380936,16.0340698 29.8411915,15.5422417 29.8411915,15.0293158 C29.8411915,14.5163899 29.6380936,14.0245618 29.2767486,13.6624431" id="形状" fill="#7B8C9C"></path>
            </g>
        </g>
    </g>
</svg>