<?xml version="1.0" encoding="UTF-8"?>
<svg width="40px" height="40px" viewBox="0 0 40 40" version="1.1" xmlns="http://www.w3.org/2000/svg" xmlns:xlink="http://www.w3.org/1999/xlink">
    <title>编组 8备份</title>
    <g id="页面-1" stroke="none" stroke-width="1" fill="none" fill-rule="evenodd">
        <g id="建木自动化-首页" transform="translate(-436.000000, -469.000000)">
            <g id="编组-8备份" transform="translate(436.000000, 469.000000)">
                <polygon id="矩形" fill="#FFE1BE" points="40 0 40 40 0 40"></polygon>
                <g id="git备份-15" transform="translate(29.600000, 26.400000) rotate(-45.000000) translate(-29.600000, -26.400000) translate(22.400000, 19.200000)" fill-rule="nonzero">
                    <rect id="矩形" fill="#000000" opacity="0" x="0" y="0" width="14.4" height="14.4"></rect>
                    <path d="M6.08315625,4.45471875 L3.853125,4.45471875 C2.728125,4.1596875 0.18309375,4.23646875 0.18309375,6.5581875 C0.18309375,7.40446875 0.60496875,7.99903125 1.16746875,8.2738125 C0.46153125,8.9206875 0.12684375,9.22584375 0.12684375,9.65784375 C0.12684375,9.96721875 0.2525625,10.2524062 0.63,10.411875 C0.22865625,10.7890312 0,11.0629687 0,11.5776562 C0,12.48075 0.78890625,13.0069687 2.85834375,13.0069687 C4.8481875,13.0069687 6.0024375,12.2639062 6.0024375,10.9487812 C6.0024375,9.29896875 4.7323125,9.35971875 1.73784375,9.17690625 L2.1155625,8.5708125 C2.88253125,8.784 5.454,8.8520625 5.454,6.66140625 C5.454,6.13546875 5.23659375,5.7695625 5.032125,5.5063125 L6.08428125,5.4264375 L6.08315625,4.45471875 Z M4.29946875,11.2581562 C4.29946875,12.1598437 1.3494375,12.1609687 1.3494375,11.3265 C1.3494375,11.0975625 1.49765625,10.904625 1.64671875,10.7206875 C3.8323125,10.86975 4.29946875,10.8154687 4.29946875,11.2581562 Z M2.8704375,7.47309375 C1.3854375,7.47309375 1.45125,5.47171875 2.9041875,5.47171875 C4.2975,5.47171875 4.3335,7.47309375 2.8704375,7.47309375 Z M6.6195,10.2999375 L6.6195,9.397125 C7.37184375,9.2941875 7.385625,9.340875 7.385625,9.08775 L7.385625,5.72653125 C7.385625,5.48746875 7.32796875,5.51896875 6.6195,5.26921875 L6.74521875,4.34334375 L9.1125,4.34334375 L9.1125,9.0883125 C9.1125,9.27140625 9.12375,9.2941875 9.29559375,9.31725 L9.878625,9.397125 L9.878625,10.2999375 L6.6195,10.2999375 Z M8.09465625,3.42871875 C7.443,3.42871875 7.0655625,3.051 7.0655625,2.3990625 C7.0655625,1.747125 7.443,1.39303125 8.09465625,1.39303125 C8.75784375,1.39303125 9.13528125,1.74796875 9.13528125,2.3990625 C9.13528125,3.05015625 8.75784375,3.42871875 8.09465625,3.42871875 Z M14.4,9.8566875 C13.9080938,10.0965937 13.1878125,10.314 12.535875,10.314 C11.1751875,10.314 10.6607813,9.7655625 10.6607813,8.4729375 L10.6607813,5.47734375 C10.6607813,5.32490625 10.6903125,5.36315625 9.7689375,5.36315625 L9.7689375,4.3453125 C10.77525,4.23084375 11.1751875,3.7265625 11.3009063,2.48146875 L12.387375,2.48146875 C12.387375,4.3329375 12.3496875,4.219875 12.4790625,4.219875 L14.090625,4.219875 L14.090625,5.36315625 L12.387375,5.36315625 L12.387375,8.0955 C12.387375,8.290125 12.249,9.54140625 14.0909063,8.850375 L14.4,9.8566875 Z" id="形状" fill="#6D4C41"></path>
                </g>
            </g>
        </g>
    </g>
</svg>