<?xml version="1.0" encoding="UTF-8"?>
<svg width="44px" height="44px" viewBox="0 0 44 44" version="1.1" xmlns="http://www.w3.org/2000/svg" xmlns:xlink="http://www.w3.org/1999/xlink">
    <title>矩形 2</title>
    <g id="页面-1" stroke="none" stroke-width="1" fill="none" fill-rule="evenodd">
        <g id="建木CI-图形编辑器入口备份-3" transform="translate(-186.000000, -104.000000)">
            <rect fill="#FFFFFF" x="0" y="0" width="1920" height="1622"></rect>
            <path d="M0,0 L1920,0 L1920,2081 L0,2081 L0,0 Z" id="矩形" fill="#FFFFFF"></path>
            <g id="编组-14" transform="translate(180.000000, 104.000000)">
                <g id="研发项目节点审批流程" transform="translate(6.000000, 0.000000)">
                    <rect id="矩形" fill="#000000" fill-rule="nonzero" opacity="0" x="0" y="0" width="44" height="44"></rect>
                    <path d="M7.27555553,5 L36.7244445,5 C37.9811991,5 39,6.01880091 39,7.27555553 L39,36.7244445 C39,37.9811991 37.9811991,39 36.7244445,39 L7.27555553,39 C6.01880091,39 5,37.9811991 5,36.7244445 L5,7.27555553 C5,6.01880091 6.01880091,5 7.27555553,5 Z M13.6816239,15.8247863 C11.7779024,15.8247863 10.2307692,14.2765029 10.2307692,12.3739316 C10.2307692,10.4702101 11.7779024,8.92307692 13.6816239,8.92307692 C15.2961222,8.92307692 16.6554976,10.0371689 17.0301367,11.5378481 L28.6353276,11.5384615 C31.8066631,11.5384615 34.3867521,14.1185506 34.3867521,17.289886 C34.3867521,20.4612215 31.8066631,23.0413106 28.6353276,23.0413106 L25.4330146,23.0418739 C24.8812142,24.2142019 23.6886632,25.0270655 22.3087607,25.0270655 C20.9288582,25.0270655 19.7363072,24.2142019 19.1845068,23.0418739 L15.9821938,23.0413106 C14.0796225,23.0413106 12.531339,24.5884438 12.531339,26.4921653 C12.531339,28.3947365 14.0796225,29.94302 15.9821938,29.94302 L26.4370997,29.9427828 C26.8117389,28.4425556 28.1711142,27.3276353 29.7856125,27.3276353 C31.6881838,27.3276353 33.2364672,28.8759188 33.2364672,30.77849 C33.2364672,32.6810612 31.6881838,34.2293447 29.7856125,34.2293447 C28.4066448,34.2293447 27.2137925,33.4159959 26.6616692,32.2439117 L15.9821938,32.2435897 C12.8108583,32.2435897 10.2307692,29.6635007 10.2307692,26.4921653 C10.2307692,23.3208298 12.8108583,20.7407407 15.9821938,20.7407407 L18.9601808,20.7401273 C19.3345914,19.2394481 20.6932863,18.1253561 22.3087607,18.1253561 C23.9242351,18.1253561 25.2829299,19.2394481 25.6573406,20.7401273 L28.6353276,20.7407407 C30.5378989,20.7407407 32.0861823,19.1936075 32.0861823,17.289886 C32.0861823,15.3873148 30.5378989,13.8390313 28.6353276,13.8390313 L16.8052153,13.8401003 C16.2529371,15.011783 15.0602987,15.8247863 13.6816239,15.8247863 Z M29.7856125,29.6282051 C29.1703171,29.6557288 28.6856324,30.1625793 28.6856324,30.77849 C28.6856324,31.3944008 29.1703171,31.9012512 29.7856125,31.9287749 C30.400908,31.9012512 30.8855926,31.3944008 30.8855926,30.77849 C30.8855926,30.1625793 30.400908,29.6557288 29.7856125,29.6282051 Z M22.3087607,20.4259259 C21.6934651,20.4534494 21.2087803,20.9603 21.2087803,21.5762108 C21.2087803,22.1921217 21.6934651,22.6989722 22.3087607,22.7264957 C22.9240562,22.6989722 23.4087411,22.1921217 23.4087411,21.5762108 C23.4087411,20.9603 22.9240562,20.4534494 22.3087607,20.4259259 Z M13.6816239,11.2236467 C13.0663285,11.2511704 12.5816438,11.7580209 12.5816438,12.3739316 C12.5816438,12.9898423 13.0663285,13.4966928 13.6816239,13.5242165 C14.2969194,13.4966928 14.781604,12.9898423 14.781604,12.3739316 C14.781604,11.7580209 14.2969194,11.2511704 13.6816239,11.2236467 Z" id="矩形-2" fill="#1768E4"></path>
                </g>
            </g>
        </g>
    </g>
</svg>
