<?xml version="1.0" encoding="UTF-8"?>
<svg width="43px" height="43px" viewBox="0 0 43 43" version="1.1" xmlns="http://www.w3.org/2000/svg" xmlns:xlink="http://www.w3.org/1999/xlink">
    <title>组件信息</title>
    <g id="页面-1" stroke="none" stroke-width="1" fill="none" fill-rule="evenodd">
        <g id="建木CI-图形编辑器入口备份-3" transform="translate(-1555.000000, -105.000000)" fill-rule="nonzero">
            <g id="组件信息" transform="translate(1555.000000, 105.000000)">
                <rect id="矩形" fill="#000000" opacity="0" x="0" y="0" width="42.8108108" height="42.8108108"></rect>
                <path d="M38.1295417,27.6762585 L23.4007614,36.513899 C22.9507028,36.763295 22.4428997,36.8897643 21.9284418,36.8805828 C21.3960987,36.8805828 20.8618942,36.7577344 20.4542609,36.513899 L5.72548063,27.6762585 C4.91207522,27.1885875 4.91207522,26.3956568 5.72548063,25.9098473 L8.22339833,24.4114689 L19.588738,31.2314172 C20.2420682,31.6204371 21.0703643,31.8344912 21.9284418,31.8344912 C22.7846581,31.8344912 23.6129542,31.6204371 24.2662844,31.2314172 L35.631624,24.4114689 L38.1295417,25.9098473 C38.9429471,26.3975182 38.9429471,27.1885876 38.1295417,27.6762585 L38.1295417,27.6762585 Z" id="路径" fill="#13C2C2"></path>
                <path d="M38.1295417,20.9493772 L23.4007614,29.788879 C22.9507028,30.038275 22.4428997,30.1647443 21.9284418,30.1555629 C21.3960987,30.1555629 20.8618942,30.0327145 20.4542609,29.788879 L5.72548063,20.9493772 C4.91207522,20.4617062 4.91207522,19.6687755 5.72548063,19.1829659 L8.22339833,17.6827262 L19.588738,24.5026745 C20.2420682,24.8954172 21.0703643,25.1094712 21.9284418,25.1094712 C22.7846581,25.1094712 23.6129542,24.8954172 24.2662844,24.5026745 L35.6334853,17.6827262 L38.1314031,19.1829659 C38.9429471,19.6706369 38.9429471,20.4635676 38.1295417,20.9493772 Z" id="路径" fill="#13C2C2"></path>
                <path d="M38.1295417,14.2243572 L23.4007614,23.063859 C22.9507028,23.3132551 22.4428997,23.4397243 21.9284418,23.4305429 C21.3960987,23.4305429 20.8618942,23.3076945 20.4542609,23.063859 L5.72548063,14.2243572 C4.91207522,13.7385476 4.91207522,12.9437555 5.72548063,12.4579459 L20.4542609,3.61844419 C20.8618942,3.37460869 21.3960987,3.25362162 21.9284418,3.25362162 C22.4589236,3.25362162 22.9931281,3.37460869 23.4007614,3.61844419 L38.1295417,12.4579459 C38.9429471,12.9456169 38.9429471,13.7385476 38.1295417,14.2243572 Z" id="路径" fill="#13C2C2"></path>
            </g>
        </g>
    </g>
</svg>
