<?xml version="1.0" encoding="UTF-8"?>
<svg width="56px" height="56px" viewBox="0 0 56 56" version="1.1" xmlns="http://www.w3.org/2000/svg" xmlns:xlink="http://www.w3.org/1999/xlink">
    <title>组件信息</title>
    <g id="页面-1" stroke="none" stroke-width="1" fill="none" fill-rule="evenodd">
        <g id="建木CI-图形编辑器入口备份-3" transform="translate(-1548.000000, -104.000000)">
            <g id="组件信息" transform="translate(1548.000000, 104.000000)">
                <circle id="椭圆形备份-3" fill="#DDFFFF" cx="28" cy="28" r="28"></circle>
                <rect id="矩形" fill="#000000" fill-rule="nonzero" opacity="0" x="7" y="7" width="42.8108108" height="42.8108108"></rect>
                <g id="编组-5" transform="translate(11.000000, 11.000000)" fill="#13C2C2" fill-rule="nonzero">
                    <path d="M33.0141151,24.4226369 L18.2853349,33.2602773 C17.8352762,33.5096734 17.3274731,33.6361427 16.8130153,33.6269612 C16.2806722,33.6269612 15.7464677,33.5041128 15.3388343,33.2602773 L0.610054054,24.4226369 C-0.203351351,23.9349659 -0.203351351,23.1420352 0.610054054,22.6562256 L3.10797176,21.1578473 L14.4733114,27.9777955 C15.1266416,28.3668155 15.9549377,28.5808696 16.8130153,28.5808696 C17.6692315,28.5808696 18.4975276,28.3668155 19.1508578,27.9777955 L30.5161974,21.1578473 L33.0141151,22.6562256 C33.8275205,23.1438966 33.8275205,23.9349659 33.0141151,24.4226369 L33.0141151,24.4226369 Z" id="路径"></path>
                    <path d="M33.0141151,17.6957556 L18.2853349,26.5352573 C17.8352762,26.7846534 17.3274732,26.9111227 16.8130153,26.9019413 C16.2806722,26.9019413 15.7464677,26.7790928 15.3388343,26.5352573 L0.610054054,17.6957556 C-0.203351351,17.2080846 -0.203351351,16.4151539 0.610054054,15.9293443 L3.10797176,14.4291046 L14.4733114,21.2490529 C15.1266416,21.6417955 15.9549377,21.8558496 16.8130153,21.8558496 C17.6692315,21.8558496 18.4975276,21.6417955 19.1508578,21.2490529 L30.5180587,14.4291046 L33.0159765,15.9293443 C33.8275205,16.4170153 33.8275205,17.2099459 33.0141151,17.6957556 Z" id="路径"></path>
                    <path d="M33.0141151,10.9707356 L18.2853349,19.8102374 C17.8352762,20.0596334 17.3274731,20.1861027 16.8130153,20.1769213 C16.2806722,20.1769213 15.7464677,20.0540728 15.3388343,19.8102374 L0.610054054,10.9707356 C-0.203351351,10.4849259 -0.203351351,9.69013392 0.610054054,9.20432432 L15.3388343,0.364822567 C15.7464677,0.120987072 16.2806721,1.44773082e-12 16.8130153,1.44773082e-12 C17.3434971,1.44773082e-12 17.8777015,0.120987072 18.2853349,0.364822567 L33.0141151,9.20432432 C33.8275205,9.69199531 33.8275205,10.484926 33.0141151,10.9707356 Z" id="路径"></path>
                </g>
            </g>
        </g>
    </g>
</svg>
