<?xml version="1.0" encoding="UTF-8"?>
<svg width="16px" height="16px" viewBox="0 0 16 16" version="1.1" xmlns="http://www.w3.org/2000/svg" xmlns:xlink="http://www.w3.org/1999/xlink">
    <title>跳转/退出</title>
    <g id="页面-1" stroke="none" stroke-width="1" fill="none" fill-rule="evenodd">
        <g id="gitlink-首页" transform="translate(-725.000000, -220.000000)" fill-rule="nonzero">
            <g id="跳转/退出" transform="translate(725.000000, 220.000000)">
                <rect id="矩形" fill="#000000" opacity="0" x="0" y="0" width="16" height="16"></rect>
                <g id="编组-2" transform="translate(1.000000, 1.000000)" fill="#096DD9">
                    <path d="M12.0841212,0 C12.6857878,0 13.1566212,0.546538462 13.2091212,1.21871794 L13.2149545,1.34615385 L13.2149545,12.1153846 C13.2149545,12.8019231 12.7799545,13.3888462 12.1949545,13.4552564 L12.0841212,13.4615385 L3.51245451,13.4615385 C2.90995451,13.4615385 2.43995451,12.915 2.38662117,12.2428205 L2.38162045,12.1153846 L2.38162045,9.42307692 C2.38122384,9.19065082 2.54569752,8.99636914 2.76063933,8.97536831 C2.97558114,8.95436748 3.16983673,9.11359962 3.20828783,9.34230769 L3.21495451,9.42307692 L3.21495451,12.1153846 C3.21495451,12.3487179 3.33162117,12.5219231 3.46328783,12.5569231 L3.51245451,12.5641026 L12.0841212,12.5641026 C12.2157878,12.5641026 12.3482878,12.4160256 12.3757878,12.1997436 L12.3816205,12.1153846 L12.3816205,1.34615385 C12.3816205,1.11282052 12.2641212,0.939615385 12.1332878,0.904615385 L12.0832878,0.897435904 L3.51328783,0.897435904 C3.38078783,0.897435904 3.24828783,1.04551283 3.22078783,1.26179486 L3.21495451,1.34615385 L3.21495451,4.03846154 C3.2153519,4.27088769 3.0508782,4.46516944 2.83593635,4.48617027 C2.6209945,4.5071711 2.42673888,4.3479389 2.38828783,4.11923077 L2.38162045,4.03846154 L2.38162045,1.34615385 C2.38162045,0.659615385 2.81578783,0.0726923077 3.40078783,0.00628205829 L3.51245451,0 L12.0841212,0 Z" id="路径"></path>
                    <path d="M8.33412119,6.88064102 C8.33412119,6.66391715 8.19041112,6.47811284 7.99245451,6.43910256 L7.91745451,6.4319223 L0.417454508,6.4319223 C0.201630265,6.43149518 0.0212258525,6.60862068 0.00172508328,6.84009648 C-0.0177756859,7.07157228 0.130082724,7.2807706 0.342454508,7.32217948 L0.417454508,7.32935898 L7.91745451,7.32935898 C8.02796138,7.32935898 8.13394218,7.28208347 8.21208234,7.19793253 C8.29022249,7.11378159 8.33412119,6.99964842 8.33412119,6.88064102 L8.33412119,6.88064102 Z" id="路径"></path>
                    <path d="M5.47162117,3.77641025 C5.60420263,3.61312702 5.82625745,3.57534883 5.99912117,3.68666667 L6.05995451,3.73423077 L9.27495451,6.76397437 L6.05995451,9.79371794 C5.89778132,9.94656238 5.6541413,9.94100741 5.4981203,9.78090819 C5.3420993,9.62080898 5.32518728,9.35900136 5.45912117,9.17717948 L5.51078783,9.11884615 L8.00912117,6.76397437 L5.51078783,4.40910256 C5.35960984,4.26643923 5.32455936,4.02788026 5.42745451,3.84192308 L5.47162117,3.77641025 L5.47162117,3.77641025 Z" id="路径"></path>
                </g>
            </g>
        </g>
    </g>
</svg>
