<?xml version="1.0" encoding="UTF-8"?>
<svg width="43px" height="43px" viewBox="0 0 43 43" version="1.1" xmlns="http://www.w3.org/2000/svg" xmlns:xlink="http://www.w3.org/1999/xlink">
    <title>流转,协作,循环,环形,协同,流程,节点</title>
    <g id="页面-1" stroke="none" stroke-width="1" fill="none" fill-rule="evenodd">
        <g id="建木CI-图形编辑器入口备份-3" transform="translate(-1418.000000, -105.000000)" fill-rule="nonzero">
            <g id="编组-10" transform="translate(1404.000000, 105.000000)">
                <g id="流程" transform="translate(14.000000, 0.000000)">
                    <rect id="矩形" fill="#000000" opacity="0" x="1.78378378" y="1.78378378" width="39.2432432" height="39.2432432"></rect>
                    <path d="M38.9077386,16.335209 L37.7312078,19.8801309 L36.9110853,22.3596601 C36.8727618,22.4707981 36.7309649,22.5014569 36.6504856,22.4133129 L35.4164696,21.0298353 L32.4310705,17.6726985 C32.3544236,17.5845545 32.4004117,17.4427576 32.5153822,17.4197635 L33.5961043,17.1974873 C33.9908361,17.117008 34.2016153,16.6801204 34.0176626,16.3198796 C33.339337,14.9670608 32.4540646,13.7407095 31.3733425,12.6599873 C30.2466322,11.533277 28.9551309,10.6135135 27.5333298,9.92752323 C27.4336888,9.8777027 27.226742,9.78572635 27.0159628,9.69758235 C26.7247044,9.57111486 26.3874578,9.68991765 26.2341639,9.96584671 C25.2990709,11.6674092 23.4863704,12.8209459 21.4054054,12.8209459 C19.1251584,12.8209459 17.1706609,11.4413007 16.3275443,9.46764147 C16.0439506,8.80081292 15.8868243,8.06883446 15.8868243,7.30236486 C15.8868243,7.20655617 15.8906567,7.11074747 15.894489,7.01493877 C16.0439506,4.10235431 18.4544975,1.78378378 21.4054054,1.78378378 C24.2336782,1.78378378 26.5637458,3.91073691 26.885663,6.65086571 C26.9124894,6.87697424 27.0657834,7.06859164 27.2803948,7.14907095 C31.4691512,8.73949535 34.8454497,11.9778294 36.6121622,16.0746094 C36.7271326,16.3428737 37.0145587,16.4923353 37.2981524,16.4310177 L38.7314506,16.1359269 C38.8502534,16.1129329 38.9460621,16.2240709 38.9077386,16.335209 L38.9077386,16.335209 Z M40.4141039,30.0435177 C40.3831926,33.1285579 37.7963577,35.6042546 34.7113176,35.5046136 C34.0406567,35.4816195 33.3968222,35.3398226 32.8066406,35.0983847 C32.5920291,35.0102407 32.3505912,35.0523965 32.1743032,35.2018581 C29.2808805,37.6890519 25.5175148,39.1875 21.4054054,39.1875 C20.6466005,39.1875 19.903125,39.1376795 19.1711465,39.0380384 C18.8875528,38.9997149 18.6192884,39.1606736 18.515815,39.4251056 L18.0176098,40.7166068 C17.975454,40.8277449 17.8298247,40.850739 17.7570101,40.7587627 L15.6607158,38.1642631 L13.7675359,35.8226985 C13.6947213,35.7307221 13.7483742,35.5927576 13.8633446,35.5735959 L15.2966427,35.3474873 L20.1330659,34.5848501 C20.2480363,34.5656883 20.343845,34.6806588 20.3016892,34.7917969 L19.8877956,35.8686867 C19.738334,36.2557538 20.0065984,36.6734797 20.420492,36.7003062 C20.7462416,36.7233003 21.0758235,36.7347973 21.4054054,36.7347973 C23.3100823,36.7347973 25.1572741,36.3630595 26.8933277,35.6272487 C28.0430321,35.1405405 29.1122572,34.5120355 30.0856736,33.7493982 C30.3347762,33.5539485 30.3922614,33.2013725 30.2236381,32.9331081 C29.6871094,32.0823269 29.3728568,31.070587 29.3728568,29.9898649 C29.3728568,26.9431482 31.8447213,24.4712838 34.8914379,24.4712838 C35.0562289,24.4712838 35.2210198,24.4789485 35.3819785,24.4942779 C36.2404244,24.5709248 37.0452175,24.8430215 37.7465372,25.2684122 C39.3599557,26.2418285 40.4330131,28.020038 40.4141039,30.0435177 L40.4141039,30.0435177 Z M8.40991343,17.1438345 C7.67410262,18.8798881 7.30236486,20.7270798 7.30236486,22.6317568 C7.30236486,23.0648121 7.3215266,23.4978674 7.35985008,23.923258 C7.38667652,24.2375106 7.64727618,24.4827808 7.96536106,24.4827808 C8.19530194,24.4866132 8.42907517,24.4904455 8.52871622,24.5019426 C11.2880068,24.8085304 13.4341216,27.1462627 13.4341216,29.9860325 C13.4341216,31.2622044 13.0010663,32.4387352 12.2729202,33.3738281 C11.7593856,34.032992 11.1002217,34.573353 10.3452492,34.9450908 C9.66309122,35.2785051 8.90428632,35.4777872 8.10332559,35.5007812 C5.01828547,35.6004223 2.43145059,33.1247255 2.40079181,30.0396854 C2.37779772,28.1503378 3.31289063,26.4756018 4.75002111,25.4676943 C4.93780617,25.3373944 5.03361486,25.1112859 5.00295608,24.881345 C4.90331503,24.1455342 4.84966216,23.394394 4.84966216,22.6279244 C4.84966216,18.76875 6.16798986,15.2199958 8.38308699,12.40322 C8.559375,12.1771115 8.55554265,11.8590266 8.37925465,11.6367504 L7.425,10.4602196 C7.35218539,10.3682432 7.40200591,10.2302787 7.5208087,10.211117 L11.1423775,9.63626478 L13.7866976,9.2147065 C13.9016681,9.19554476 13.9974768,9.3105152 13.9553209,9.42165329 L13.3268159,11.0657306 L11.6865709,15.3502956 C11.6444151,15.4614337 11.4987859,15.4844278 11.4259713,15.3924514 L10.7744721,14.5876584 C10.5177048,14.2695735 10.0271643,14.2849029 9.7972234,14.6221495 C9.24536529,15.4154455 8.78548353,16.2547297 8.40991343,17.1438345 Z" id="形状" fill="#2F54EB"></path>
                </g>
            </g>
        </g>
    </g>
</svg>
