<?xml version="1.0" encoding="UTF-8"?>
<svg width="48px" height="48px" viewBox="0 0 48 48" version="1.1" xmlns="http://www.w3.org/2000/svg" xmlns:xlink="http://www.w3.org/1999/xlink">
    <title>流转,协作,循环,环形,协同,流程,节点</title>
    <g id="页面-1" stroke="none" stroke-width="1" fill="none" fill-rule="evenodd" opacity="0.497456395">
        <g id="建木自动化-首页" transform="translate(-1516.000000, -117.000000)" fill-rule="nonzero">
            <g id="流转,协作,循环,环形,协同,流程,节点" transform="translate(1516.000000, 117.000000)">
                <rect id="矩形" fill="#000000" opacity="0" x="2" y="2" width="44" height="44"></rect>
                <path d="M43.6238281,18.3152344 L42.3046875,22.2898438 L41.3851562,25.0699219 C41.3421875,25.1945312 41.1832031,25.2289063 41.0929687,25.1300781 L39.709375,23.5789062 L36.3621094,19.8148437 C36.2761719,19.7160156 36.3277344,19.5570312 36.4566406,19.53125 L37.6683594,19.2820312 C38.1109375,19.1917969 38.3472656,18.7019531 38.1410156,18.2980469 C37.3804688,16.78125 36.3878906,15.40625 35.1761719,14.1945312 C33.9128906,12.93125 32.4648438,11.9 30.8707031,11.1308594 C30.7589844,11.075 30.5269531,10.971875 30.290625,10.8730469 C29.9640625,10.73125 29.5859375,10.8644531 29.4140625,11.1738281 C28.365625,13.0816406 26.3332031,14.375 24,14.375 C21.4433594,14.375 19.2519531,12.828125 18.3066406,10.6152344 C17.9886719,9.86757813 17.8125,9.046875 17.8125,8.1875 C17.8125,8.08007812 17.8167969,7.97265625 17.8210937,7.86523438 C17.9886719,4.59960938 20.6914062,2 24,2 C27.1710937,2 29.7835937,4.38476562 30.1445312,7.45703125 C30.1746094,7.71054688 30.3464844,7.92539063 30.5871094,8.015625 C35.2835937,9.79882812 39.0691406,13.4296875 41.05,18.0230469 C41.1789062,18.3238281 41.5011719,18.4914062 41.8191406,18.4226562 L43.4261719,18.0917969 C43.559375,18.0660156 43.6667969,18.190625 43.6238281,18.3152344 L43.6238281,18.3152344 Z M45.3127831,33.6851562 C45.278125,37.1441406 42.3777344,39.9199219 38.91875,39.8082031 C38.1667969,39.7824219 37.4449219,39.6234375 36.7832031,39.3527344 C36.5425781,39.2539062 36.271875,39.3011719 36.0742188,39.46875 C32.8300781,42.2574219 28.6105469,43.9375 24,43.9375 C23.1492187,43.9375 22.315625,43.8816406 21.4949219,43.7699219 C21.1769531,43.7269531 20.8761719,43.9074219 20.7601562,44.2039063 L20.2015625,45.6519531 C20.1542969,45.7765625 19.9910156,45.8023438 19.909375,45.6992188 L17.5589844,42.7902344 L15.4363281,40.1648438 C15.3546875,40.0617187 15.4148437,39.9070313 15.54375,39.8855469 L17.1507812,39.6320313 L22.5734375,38.7769531 C22.7023437,38.7554688 22.8097656,38.884375 22.7625,39.0089844 L22.2984375,40.2164063 C22.1308594,40.6503906 22.4316406,41.11875 22.8957031,41.1488281 C23.2609375,41.1746094 23.6304687,41.1875 24,41.1875 C26.1355469,41.1875 28.2066406,40.7707031 30.153125,39.9457031 C31.4421875,39.4 32.6410156,38.6953125 33.7324219,37.8402344 C34.0117187,37.6210938 34.0761719,37.2257813 33.8871094,36.925 C33.2855469,35.9710938 32.9332031,34.8367188 32.9332031,33.625 C32.9332031,30.2089844 35.7046875,27.4375 39.1207031,27.4375 C39.3054687,27.4375 39.4902344,27.4460938 39.6707031,27.4632813 C40.6332031,27.5492188 41.5355469,27.8542969 42.321875,28.33125 C44.1308594,29.4226563 45.3339844,31.4164063 45.3127831,33.6851563 L45.3127831,33.6851562 Z M9.42929687,19.221875 C8.60429687,21.1683594 8.1875,23.2394531 8.1875,25.375 C8.1875,25.8605469 8.20898437,26.3460938 8.25195312,26.8230469 C8.28203125,27.1753906 8.57421875,27.4503906 8.93085937,27.4503906 C9.18867187,27.4546875 9.45078125,27.4589844 9.5625,27.471875 C12.65625,27.815625 15.0625,30.4367188 15.0625,33.6207031 C15.0625,35.0515625 14.5769531,36.3707031 13.7605469,37.4191406 C13.1847656,38.1582031 12.4457031,38.7640625 11.5992187,39.1808594 C10.834375,39.5546875 9.98359375,39.778125 9.08554687,39.8039063 C5.6265625,39.915625 2.72617187,37.1398438 2.69179687,33.6808594 C2.66601562,31.5625 3.71445312,29.6847656 5.32578125,28.5546875 C5.53632812,28.4085938 5.64375,28.1550781 5.609375,27.8972656 C5.49765625,27.0722656 5.4375,26.2300781 5.4375,25.3707031 C5.4375,21.04375 6.915625,17.0648438 9.39921875,13.9066406 C9.596875,13.653125 9.59257812,13.2964844 9.39492187,13.0472656 L8.325,11.728125 C8.24335937,11.625 8.29921875,11.4703125 8.43242187,11.4488281 L12.4929687,10.8042969 L15.4578125,10.3316406 C15.5867187,10.3101563 15.6941406,10.4390625 15.646875,10.5636719 L14.9421875,12.4070313 L13.103125,17.2109375 C13.0558594,17.3355469 12.8925781,17.3613281 12.8109375,17.2582031 L12.0804687,16.3558594 C11.7925781,15.9992188 11.2425781,16.0164063 10.9847656,16.3945312 C10.3660156,17.2839844 9.85039062,18.225 9.42929687,19.221875 Z" id="形状" fill="#7B8C9C"></path>
            </g>
        </g>
    </g>
</svg>