<?xml version="1.0" encoding="UTF-8"?>
<svg width="43px" height="43px" viewBox="0 0 43 43" version="1.1" xmlns="http://www.w3.org/2000/svg" xmlns:xlink="http://www.w3.org/1999/xlink">
    <title>钥匙</title>
    <g id="页面-1" stroke="none" stroke-width="1" fill="none" fill-rule="evenodd">
        <g id="建木CI-图形编辑器入口备份-3" transform="translate(-1691.000000, -104.000000)">
            <rect fill="#FFFFFF" x="0" y="0" width="1920" height="1622"></rect>
            <path d="M0,0 L1920,0 L1920,2081 L0,2081 L0,0 Z" id="矩形" fill="#FFFFFF"></path>
            <g id="钥匙" transform="translate(1691.000000, 104.000000)" fill-rule="nonzero">
                <rect id="矩形" fill="#000000" opacity="0" x="0" y="0" width="42.8108108" height="42.8108108"></rect>
                <path d="M27.4066245,5.02112476 C21.6197347,5.02112476 16.9044911,9.73636832 16.9044911,15.5232581 C16.9044911,16.2138746 16.9759342,16.9044911 17.1188204,17.5951076 L17.2140778,18.0952092 L4.8782386,30.4310484 L4.8782386,37.8135004 L13.4990374,37.8135004 L13.4990374,33.5269154 L17.5236645,33.5269154 L17.5236645,29.5022883 L21.5006629,29.5022883 L21.5006629,25.4538468 L22.8580815,25.4538468 L22.8580815,25.0728171 L24.0964282,25.4776612 C25.1442601,25.8348766 26.2635351,26.0015772 27.3589958,26.0015772 C33.1458856,26.0015772 37.8611291,21.2863336 37.8611291,15.4994438 C37.9087579,9.73636832 33.1935143,5.02112476 27.4066245,5.02112476 L27.4066245,5.02112476 Z M31.3359941,13.8086241 C31.3359941,15.0231566 30.3357909,16.0233597 29.1212585,16.0233597 C27.9067261,16.0233597 26.9065229,15.0231566 26.9065229,13.8086241 C26.9065229,12.5940917 27.9067261,11.5938885 29.1212585,11.5938885 C30.3357909,11.5938885 31.3359941,12.5702773 31.3359941,13.8086241 Z" id="形状" fill="#7CB305"></path>
            </g>
        </g>
    </g>
</svg>
