<?xml version="1.0" encoding="UTF-8"?>
<svg width="56px" height="56px" viewBox="0 0 56 56" version="1.1" xmlns="http://www.w3.org/2000/svg" xmlns:xlink="http://www.w3.org/1999/xlink">
    <title>钥匙</title>
    <g id="页面-1" stroke="none" stroke-width="1" fill="none" fill-rule="evenodd">
        <g id="建木CI-图形编辑器入口备份-3" transform="translate(-1684.000000, -104.000000)">
            <g id="钥匙" transform="translate(1684.000000, 104.000000)">
                <circle id="椭圆形备份" fill="#E6FEDC" cx="28" cy="28" r="28"></circle>
                <rect id="矩形" fill="#000000" fill-rule="nonzero" opacity="0" x="7" y="7" width="42.8108108" height="42.8108108"></rect>
                <path d="M34.5283859,12 C28.7414961,12 24.0262525,16.7152436 24.0262525,22.5021334 C24.0262525,23.1927499 24.0976956,23.8833663 24.2405818,24.5739828 L24.3358392,25.0740844 L12,37.4099236 L12,44.7923756 L20.6207988,44.7923756 L20.6207988,40.5057906 L24.6454259,40.5057906 L24.6454259,36.4811635 L28.6224243,36.4811635 L28.6224243,32.4327221 L29.9798429,32.4327221 L29.9798429,32.0516923 L31.2181896,32.4565364 C32.2660215,32.8137519 33.3852965,32.9804524 34.4807572,32.9804524 C40.267647,32.9804524 44.9828905,28.2652088 44.9828905,22.478319 C45.0305193,16.7152436 40.3152757,12 34.5283859,12 L34.5283859,12 Z M38.4577555,20.7874994 C38.4577555,22.0020318 37.4575523,23.002235 36.2430199,23.002235 C35.0284875,23.002235 34.0282843,22.0020318 34.0282843,20.7874994 C34.0282843,19.5729669 35.0284875,18.5727637 36.2430199,18.5727637 C37.4575523,18.5727637 38.4577555,19.5491526 38.4577555,20.7874994 Z" id="形状" fill="#389E0D" fill-rule="nonzero"></path>
            </g>
        </g>
    </g>
</svg>