<?xml version="1.0" encoding="UTF-8"?>
<svg width="24px" height="24px" viewBox="0 0 24 24" version="1.1" xmlns="http://www.w3.org/2000/svg" xmlns:xlink="http://www.w3.org/1999/xlink">
    <title>workflow备份 2</title>
    <g id="页面-1" stroke="none" stroke-width="1" fill="none" fill-rule="evenodd">
        <g id="建木自动化-首页" transform="translate(-760.000000, -459.000000)" fill-rule="nonzero">
            <g id="workflow备份-2" transform="translate(760.000000, 459.000000)">
                <rect id="矩形" fill="#000000" opacity="0" x="0" y="0" width="24" height="24"></rect>
                <path d="M18.75,7.5 C16.68225,7.5 15,9.18225 15,11.25 C15,11.66025 15.0825,12.04875 15.2055,12.41925 C13.428,13.056 11.6055,12.915 9.65025,11.973 C7.84725,11.1045 6.681,10.0635 6.16875,8.87325 C7.791,8.46 9,6.999 9,5.25 C9,3.18225 7.31775,1.5 5.25,1.5 C3.18225,1.5 1.5,3.18225 1.5,5.25 C1.50260403,7.03104384 2.75546283,8.56548266 4.5,8.92425 L4.5,15.07575 C2.75546283,15.4345173 1.50260403,16.9689562 1.5,18.75 C1.5,20.81775 3.18225,22.5 5.25,22.5 C7.31775,22.5 9,20.81775 9,18.75 C8.99739597,16.9689562 7.74453717,15.4345173 6,15.07575 L6,11.25375 C6.74775,12.02925 7.749,12.7215 8.99925,13.323 C10.3635,13.98075 11.70975,14.30925 13.02675,14.30925 C14.02425,14.30925 15.003,14.109 15.96225,13.7325 C16.64925,14.50425 17.6385,15 18.75,15 C20.81775,15 22.5,13.31775 22.5,11.25 C22.5,9.18225 20.81775,7.5 18.75,7.5 Z M3,5.25 C3,4.0095 4.0095,3 5.25,3 C6.4905,3 7.5,4.0095 7.5,5.25 C7.5,6.4905 6.4905,7.5 5.25,7.5 C4.0095,7.5 3,6.4905 3,5.25 Z M7.5,18.75 C7.5,19.9905 6.4905,21 5.25,21 C4.0095,21 3,19.9905 3,18.75 C3,17.5095 4.0095,16.5 5.25,16.5 C6.4905,16.5 7.5,17.5095 7.5,18.75 Z M18.75,13.5 C17.5095,13.5 16.5,12.4905 16.5,11.25 C16.5,10.0095 17.5095,9 18.75,9 C19.9905,9 21,10.0095 21,11.25 C21,12.4905 19.9905,13.5 18.75,13.5 Z" id="形状" fill="#6B7B8D"></path>
            </g>
        </g>
    </g>
</svg>