<?xml version="1.0" encoding="UTF-8"?>
<svg width="6px" height="6px" viewBox="0 0 6 6" version="1.1" xmlns="http://www.w3.org/2000/svg" xmlns:xlink="http://www.w3.org/1999/xlink">
    <title>icon_bixuan_default</title>
    <g id="页面-1" stroke="none" stroke-width="1" fill="none" fill-rule="evenodd">
        <g id="系统设计规范" transform="translate(-1273.000000, -5021.000000)">
            <rect x="0" y="0" width="1920" height="8568"></rect>
            <rect id="矩形" x="39" y="526" width="1840" height="8739"></rect>
            <g id="分组" transform="translate(1273.000000, 5021.000000)" fill="#FF3838">
                <path d="M3.35733333,2.664 C3.62492726,2.53495293 3.88987085,2.40048072 4.152,2.26066667 C4.40266667,2.126 4.60533333,2.02533334 4.75466667,1.96333333 C4.904,1.902 5.02133334,1.86866666 5.112,1.86866667 C5.26133333,1.86866667 5.38933333,1.91866667 5.50133333,2.02533333 C5.608,2.132 5.66666667,2.26066666 5.66666667,2.41733333 C5.66666667,2.50733333 5.64,2.602 5.58666667,2.69733333 C5.53333334,2.79266666 5.47466667,2.85466666 5.416,2.88266667 C4.86666667,3.112 4.25333333,3.28 3.592,3.38066667 C3.71466667,3.49266667 3.85866667,3.65 4.03466667,3.846 C4.21066667,4.042 4.30133334,4.14266667 4.312,4.15933333 C4.376,4.25466666 4.46666667,4.37266666 4.584,4.51266667 C4.70133333,4.65266667 4.78133333,4.75933334 4.824,4.83733333 C4.86666667,4.916 4.89333333,5.01066666 4.89333333,5.12333333 C4.89400379,5.26408558 4.8383056,5.39924973 4.73866667,5.49866667 C4.63456491,5.60735219 4.48907559,5.66651785 4.33866667,5.66133333 C4.17866667,5.66133333 3.992,5.52666666 3.78933333,5.26333333 C3.58666666,5.00533333 3.32,4.53 3,3.84066667 C2.67466667,4.45666667 2.456,4.87133334 2.34933333,5.06733333 C2.23733333,5.26333333 2.13066666,5.414 2.02933333,5.51533333 C1.93781229,5.61205012 1.81048821,5.66678983 1.67733333,5.66666667 C1.52646023,5.67089879 1.38163178,5.60729169 1.28266667,5.49333333 C1.1866599,5.39367828 1.13147701,5.26166749 1.128,5.12333333 C1.128,5 1.14933333,4.91 1.192,4.84866667 C1.58666667,4.28866667 1.99733333,3.79533334 2.424,3.38666667 C2.10142907,3.33462711 1.7811541,3.26923764 1.464,3.19066667 C1.15550032,3.10821465 0.854093791,3.00120641 0.562666672,2.87066667 C0.509333344,2.84333334 0.461333344,2.78133334 0.413333328,2.686 C0.361099502,2.60811831 0.333248649,2.51644259 0.333333328,2.42266667 C0.328258187,2.27407067 0.388708396,2.13074518 0.498666672,2.03066667 C0.597987841,1.92861401 0.734942162,1.87195157 0.877333328,1.874 C0.978666656,1.874 1.10666666,1.90733333 1.26133333,1.96933333 C1.416,2.036 1.608,2.126 1.848,2.25466667 C2.088,2.378 2.35466667,2.518 2.65866667,2.66933333 C2.60533334,2.384 2.55733334,2.05866666 2.52,1.69466667 C2.48266667,1.33066667 2.46666667,1.07866667 2.46666667,0.944 C2.46666667,0.776 2.51466667,0.636 2.616,0.518 C2.70923502,0.398292575 2.8536424,0.329797975 3.00533333,0.333333328 C3.16,0.333333328 3.288,0.394666656 3.38933333,0.512666672 C3.49066666,0.636 3.53866666,0.792666672 3.53866667,0.988666672 C3.53866667,1.04466667 3.528,1.15133334 3.51733333,1.30866667 C3.50666666,1.47066667 3.48,1.66133334 3.45333333,1.88533333 C3.42133333,2.11466666 3.38933333,2.372 3.35733333,2.664 Z" id="路径"></path>
            </g>
        </g>
    </g>
</svg>