<?xml version="1.0" encoding="UTF-8"?>
<svg width="14px" height="15px" viewBox="0 0 14 15" version="1.1" xmlns="http://www.w3.org/2000/svg" xmlns:xlink="http://www.w3.org/1999/xlink">
    <title>分支</title>
    <g id="页面-1" stroke="none" stroke-width="1" fill="none" fill-rule="evenodd">
        <g id="建木节点库列表2备份-3" transform="translate(-397.000000, -553.000000)" fill-rule="nonzero">
            <g id="分支" transform="translate(397.000000, 553.000000)">
                <rect id="矩形" fill="#000000" opacity="0" x="0" y="0" width="14" height="14"></rect>
                <path d="M10.1171875,2.20117188 C9.27226563,2.20117188 8.5859375,2.8875 8.5859375,3.73242188 C8.5859375,4.41738281 9.03847656,4.9984375 9.65917969,5.19394531 L9.65917969,6.50507813 L4.375,8.2359375 L4.375,4.34902344 C4.97929688,4.14394531 5.4140625,3.57109375 5.4140625,2.8984375 C5.4140625,2.05351563 4.72773438,1.3671875 3.8828125,1.3671875 C3.03789062,1.3671875 2.3515625,2.05351563 2.3515625,2.8984375 C2.3515625,3.57109375 2.78632813,4.14257813 3.390625,4.34902344 L3.390625,9.65234375 C2.78632813,9.85742188 2.3515625,10.4302734 2.3515625,11.1029297 C2.3515625,11.9478516 3.03789062,12.6341797 3.8828125,12.6341797 C4.72773438,12.6341797 5.4140625,11.9478516 5.4140625,11.1029297 C5.4140625,10.4302734 4.97929688,9.85878906 4.375,9.65234375 L4.375,9.27226563 L10.1650391,7.37597656 C10.4507812,7.28300781 10.6421875,7.01777344 10.6421875,6.71699219 L10.6421875,5.17070313 C11.2287109,4.9546875 11.6484375,4.39140625 11.6484375,3.73242188 C11.6484375,2.8875 10.9621094,2.20117188 10.1171875,2.20117188 Z M3.2265625,2.8984375 C3.2265625,2.53613281 3.52050781,2.2421875 3.8828125,2.2421875 C4.24511719,2.2421875 4.5390625,2.53613281 4.5390625,2.8984375 C4.5390625,3.26074219 4.24511719,3.5546875 3.8828125,3.5546875 C3.52050781,3.5546875 3.2265625,3.26074219 3.2265625,2.8984375 Z M4.5390625,11.1015625 C4.5390625,11.4638672 4.24511719,11.7578125 3.8828125,11.7578125 C3.52050781,11.7578125 3.2265625,11.4638672 3.2265625,11.1015625 C3.2265625,10.7392578 3.52050781,10.4453125 3.8828125,10.4453125 C4.24511719,10.4453125 4.5390625,10.7392578 4.5390625,11.1015625 Z M10.1171875,4.38867188 C9.75488281,4.38867188 9.4609375,4.09472656 9.4609375,3.73242188 C9.4609375,3.37011719 9.75488281,3.07617188 10.1171875,3.07617188 C10.4794922,3.07617188 10.7734375,3.37011719 10.7734375,3.73242188 C10.7734375,4.09472656 10.4794922,4.38867188 10.1171875,4.38867188 Z" id="形状" fill="#666666"></path>
            </g>
        </g>
    </g>
</svg>