<?xml version="1.0" encoding="UTF-8"?>
<svg width="12px" height="14px" viewBox="0 0 12 14" version="1.1" xmlns="http://www.w3.org/2000/svg" xmlns:xlink="http://www.w3.org/1999/xlink">
    <title>master_icon</title>
    <g id="页面-1" stroke="none" stroke-width="1" fill="none" fill-rule="evenodd">
        <g id="建木节点库列表2备份-3" transform="translate(-398.000000, -553.000000)">
            <g id="编组-6" transform="translate(396.000000, 549.000000)">
                <g id="master_icon" transform="translate(0.000000, 3.000000)">
                    <rect id="矩形" x="0" y="0" width="16" height="16"></rect>
                    <g id="分支" transform="translate(2.000000, 1.000000)" fill="#6B7B8D" fill-rule="nonzero">
                        <path d="M9.6493144,1.036282 C8.59944182,1.036282 7.74663269,1.88909113 7.74663269,2.93896372 C7.74663269,3.79007402 8.30894309,4.51207378 9.08020871,4.75500546 L9.08020871,6.38417668 L2.51425798,8.53488654 L2.51425798,3.70513287 C3.26513773,3.45030943 3.80536343,2.73850261 3.80536343,1.90268171 C3.80536343,0.852809125 2.9525543,0 1.90268171,0 C0.852809125,0 0,0.852809125 0,1.90268171 C0,2.73850261 0.540225701,3.44861061 1.29110545,3.70513287 L1.29110545,10.2948671 C0.540225701,10.5496906 0,11.2614974 0,12.0973183 C0,13.1471909 0.852809125,14 1.90268171,14 C2.9525543,14 3.80536343,13.1471909 3.80536343,12.0973183 C3.80536343,11.2614974 3.26513773,10.5513894 2.51425798,10.2948671 L2.51425798,9.82259435 L9.70877321,7.4663269 C10.0638272,7.35080694 10.3016624,7.02123529 10.3016624,6.64749424 L10.3016624,4.72612547 C11.0304575,4.45771144 11.5519961,3.75779638 11.5519961,2.93896372 C11.5519961,1.88909113 10.699187,1.036282 9.6493144,1.036282 Z M1.08724669,1.90268171 C1.08724669,1.45249363 1.45249363,1.08724669 1.90268171,1.08724669 C2.3528698,1.08724669 2.71811673,1.45249363 2.71811673,1.90268171 C2.71811673,2.3528698 2.3528698,2.71811673 1.90268171,2.71811673 C1.45249363,2.71811673 1.08724669,2.3528698 1.08724669,1.90268171 Z M2.71811673,12.0956195 C2.71811673,12.5458075 2.3528698,12.9110545 1.90268171,12.9110545 C1.45249363,12.9110545 1.08724669,12.5458075 1.08724669,12.0956195 C1.08724669,11.6454314 1.45249363,11.2801844 1.90268171,11.2801844 C2.3528698,11.2801844 2.71811673,11.6454314 2.71811673,12.0956195 Z M9.6493144,3.75439874 C9.19912632,3.75439874 8.83387938,3.3891518 8.83387938,2.93896372 C8.83387938,2.48877563 9.19912632,2.1235287 9.6493144,2.1235287 C10.0995025,2.1235287 10.4647494,2.48877563 10.4647494,2.93896372 C10.4647494,3.3891518 10.0995025,3.75439874 9.6493144,3.75439874 Z" id="形状"></path>
                    </g>
                </g>
            </g>
        </g>
    </g>
</svg>
