<?xml version="1.0" encoding="UTF-8"?>
<svg width="14px" height="14px" viewBox="0 0 14 14" version="1.1" xmlns="http://www.w3.org/2000/svg" xmlns:xlink="http://www.w3.org/1999/xlink">
    <title>点击选择线备份</title>
    <g id="页面-1" stroke="none" stroke-width="1" fill="none" fill-rule="evenodd">
        <g id="建木CI-图形编辑器-节点参数配置（先选版本）备份-2" transform="translate(-1164.000000, -553.000000)" fill-rule="nonzero">
            <g id="点击选择线备份" transform="translate(1171.000000, 560.000000) scale(1, -1) translate(-1171.000000, -560.000000) translate(1164.000000, 553.000000)">
                <rect id="矩形" fill="#000000" opacity="0" x="0" y="0" width="14" height="14"></rect>
                <path d="M6.7159436,12.1883123 L3.00343467,12.1883123 C2.33281336,12.1883123 1.78803671,11.6620171 1.78803671,11.0143962 L1.78803671,2.88618717 C1.78803671,2.23860823 2.33281336,1.71143165 3.00343467,1.71143165 L3.00343467,1.71221512 L10.9804762,1.71221512 C11.6503421,1.71221512 12.1951327,2.23934972 12.1951327,2.88697064 L12.1951327,7.62014355 L13.0951985,7.62014355 L13.0951985,2.88695664 C13.0951985,1.7429243 12.146012,0.812149365 10.9804063,0.812149365 L3.00343467,0.812149365 C1.83714341,0.812149365 0.888768412,1.7429243 0.888768412,2.88695664 L0.888768412,11.0151517 C0.888768412,12.1584706 1.83714341,13.0892035 3.00343467,13.0892035 L6.7159296,13.0892035 L6.7159296,12.1883123 L6.7159436,12.1883123 Z M4.80236165,4.09224178 C4.6286727,4.09224178 4.54182823,4.09224178 4.45498375,4.17791894 C4.36813927,4.26359609 4.36813927,4.34927325 4.36813927,4.4349504 L4.36813927,4.52062756 L4.97605061,6.83391075 L11.0551639,12.8313116 C11.3156974,13.0883431 11.7499197,13.2596974 12.1841421,12.8313116 L13.0525869,11.9745401 C13.4868093,11.5461543 13.4868093,11.1177685 12.9657424,10.6893827 L7.06031803,4.69198187 L4.80236165,4.09224178 Z M12.2739814,11.0973576 C12.3614814,11.1848576 12.3614814,11.3598576 12.2739814,11.4473576 L11.6614814,12.0598576 C11.5739814,12.1473576 11.3989814,12.1473576 11.3114814,12.0598576 L10.6989814,11.4473576 L11.6614814,10.4848576 L12.2739814,11.0973576 Z M10.9896064,9.85881594 L10.0729397,10.7754826 L5.98960641,6.69214927 L6.90627307,5.7754826 L10.9896064,9.85881594 Z M6.41592715,5.27706367 L5.4768809,6.18389009 L5.22094289,4.97923988 L6.41592715,5.27706367 Z" id="路径-3" fill="#6B7B8D"></path>
            </g>
        </g>
    </g>
</svg>