<?xml version="1.0" encoding="UTF-8"?>
<svg width="24px" height="24px" viewBox="0 0 24 24" version="1.1" xmlns="http://www.w3.org/2000/svg" xmlns:xlink="http://www.w3.org/1999/xlink">
    <title>全屏-放大</title>
    <g id="页面-1" stroke="none" stroke-width="1" fill="none" fill-rule="evenodd">
        <g id="建木CI-项目详情页（流程/管道图）" transform="translate(-1553.000000, -1122.000000)" fill-rule="nonzero">
            <g id="全屏-放大" transform="translate(1553.000000, 1122.000000)">
                <rect id="矩形" fill="#000000" opacity="0" x="0" y="0" width="24" height="24"></rect>
                <path d="M20.0357143,22 L3.96428572,22 C2.89285715,22 2,21.1071429 2,20.0357143 L2,3.96428572 C2,2.89285715 2.89285715,2 3.96428572,2 L20.0357143,2 C21.1071429,2 22,2.89285715 22,3.96428572 L22,20.0357143 C22,21.1071429 21.1071429,22 20.0357143,22 Z M3.90000001,3 C3.39600001,3 3,3.39600001 3,3.90000001 L3,20.1 C3,20.604 3.39600001,21 3.90000001,21 L20.1,21 C20.604,21 21,20.604 21,20.1 L21,3.90000001 C21,3.39600001 20.604,3 20.1,3 L3.90000001,3 Z M18.5023697,9.24644551 C18.2369668,9.24644551 18.0047393,9.01421801 18.0047393,8.74881518 L18.0047393,6.79146919 C18.0047393,6.36018957 17.6398104,5.99526066 17.2085308,5.99526066 L15.2511848,5.99526066 C14.985782,5.99526066 14.7535545,5.76303317 14.7535545,5.49763033 C14.7535545,5.23222749 14.985782,5 15.2511848,5 L17.2085308,5 C18.2037915,5 19,5.79620853 19,6.79146919 L19,8.74881518 C19,9.01421801 18.8009479,9.24644551 18.5023697,9.24644551 L18.5023697,9.24644551 Z M17.2085308,19 L15.2511848,19 C14.985782,19 14.7535545,18.7677725 14.7535545,18.5023697 C14.7535545,18.2369668 14.985782,18.0047393 15.2511848,18.0047393 L17.2085308,18.0047393 C17.6398104,18.0047393 18.0047393,17.6398104 18.0047393,17.2085308 L18.0047393,15.2511848 C18.0047393,14.985782 18.2369668,14.7535545 18.5023697,14.7535545 C18.7677725,14.7535545 19,14.985782 19,15.2511848 L19,17.2085308 C19,18.2037915 18.2037915,19 17.2085308,19 L17.2085308,19 Z M8.74881518,19 L6.79146919,19 C5.79620853,19 5,18.2037915 5,17.2085308 L5,15.2511848 C5,14.985782 5.23222749,14.7535545 5.49763033,14.7535545 C5.76303317,14.7535545 5.99526066,14.985782 5.99526066,15.2511848 L5.99526066,17.2085308 C5.99526066,17.6398104 6.36018957,18.0047393 6.79146919,18.0047393 L8.74881518,18.0047393 C9.01421801,18.0047393 9.24644551,18.2369668 9.24644551,18.5023697 C9.24644551,18.7677725 9.01421801,19 8.74881518,19 L8.74881518,19 Z M5.49763033,9.24644551 C5.23222749,9.24644551 5,9.01421801 5,8.74881518 L5,6.79146919 C5,5.79620853 5.79620853,5 6.79146919,5 L8.74881518,5 C9.01421801,5 9.24644551,5.23222749 9.24644551,5.49763033 C9.24644551,5.76303317 9.01421801,5.99526066 8.74881518,5.99526066 L6.79146919,5.99526066 C6.36018957,5.99526066 5.99526066,6.36018957 5.99526066,6.79146919 L5.99526066,8.74881518 C5.99526066,9.01421801 5.76303317,9.24644551 5.49763033,9.24644551 Z" id="形状" stroke="#526579" stroke-width="0.2" fill="#526579"></path>
            </g>
        </g>
    </g>
</svg>