<?xml version="1.0" encoding="UTF-8"?>
<svg width="16px" height="16px" viewBox="0 0 16 16" version="1.1" xmlns="http://www.w3.org/2000/svg" xmlns:xlink="http://www.w3.org/1999/xlink">
    <title>分类</title>
    <g id="页面-1" stroke="none" stroke-width="1" fill="none" fill-rule="evenodd">
        <g id="建木CI-图形编辑器-最新样式" transform="translate(-895.000000, -1194.000000)" fill-rule="nonzero">
            <g id="分类" transform="translate(895.000000, 1194.000000)">
                <rect id="矩形" fill="#000000" opacity="0" x="0" y="0" width="16" height="16"></rect>
                <path d="M6.11853291,8.96442712 L2.86276415,8.96442712 C2.38766092,8.96442712 2,9.35631196 2,9.83659188 L2,13.1278352 C2,13.6081152 2.38766092,14 2.86276415,14 L6.11853291,14 C6.59363614,14 6.98129706,13.6081152 6.98129706,13.1278352 L6.98129706,9.83659188 C6.97983969,9.35631196 6.59363614,8.96442712 6.11853291,8.96442712 Z M6.39689094,13.1278352 C6.39689094,13.2839999 6.27155696,13.4106995 6.11707554,13.4106995 L2.86276415,13.4106995 C2.70828273,13.4106995 2.58294875,13.2839999 2.58294875,13.1278352 L2.58294875,9.83659188 C2.58294875,9.68042724 2.70828273,9.55372763 2.86276415,9.55372763 L6.11853291,9.55372763 C6.27301433,9.55372763 6.39834831,9.68042724 6.39834831,9.83659188 L6.39834831,13.1278352 L6.39689094,13.1278352 Z M6.11853291,2.6147141 L2.86276415,2.6147141 C2.38766092,2.6147141 2,3.00659894 2,3.48687886 L2,6.77812222 C2,7.25840214 2.38766092,7.65028698 2.86276415,7.65028698 L6.11853291,7.65028698 C6.59363614,7.65028698 6.98129706,7.25840214 6.98129706,6.77812222 L6.98129706,3.48687886 C6.97983969,3.00512569 6.59363614,2.6147141 6.11853291,2.6147141 Z M6.39689094,6.77664897 C6.39689094,6.9328136 6.27155696,7.05951321 6.11707554,7.05951321 L2.86276415,7.05951321 C2.70828273,7.05951321 2.58294875,6.9328136 2.58294875,6.77664897 L2.58294875,3.48687886 C2.58294875,3.33071422 2.70828273,3.20401461 2.86276415,3.20401461 L6.11853291,3.20401461 C6.27301433,3.20401461 6.39834831,3.33071422 6.39834831,3.48687886 L6.39834831,6.77664897 L6.39689094,6.77664897 Z M12.6839932,8.96442712 L9.42968181,8.96442712 C8.95457858,8.96442712 8.56691766,9.35631196 8.56691766,9.83659188 L8.56691766,13.1278352 C8.56691766,13.6081152 8.95457858,14 9.42968181,14 L12.6854506,14 C13.1605538,14 13.5482147,13.6081152 13.5482147,13.1278352 L13.5482147,9.83659188 C13.5467573,9.35631196 13.1605538,8.96442712 12.6839932,8.96442712 Z M12.9638086,13.1278352 C12.9638086,13.2839999 12.8384746,13.4106995 12.6839932,13.4106995 L9.42968181,13.4106995 C9.27520039,13.4106995 9.14986641,13.2839999 9.14986641,13.1278352 L9.14986641,9.83659188 C9.14986641,9.68042724 9.27520039,9.55372763 9.42968181,9.55372763 L12.6854506,9.55372763 C12.839932,9.55372763 12.965266,9.68042724 12.965266,9.83659188 L12.965266,13.1278352 L12.9638086,13.1278352 Z M13.7376731,4.42386667 L11.6011659,2.26408029 C11.252854,1.91197324 10.684479,1.91197324 10.3347097,2.26408029 L8.19965995,4.42239342 C8.03060481,4.59329057 7.93733301,4.82164452 7.93733301,5.06325773 C7.93733301,5.30487094 8.03060481,5.53175163 8.19965995,5.70412203 L10.3376245,7.86243516 C10.5125091,8.03922532 10.7413165,8.12762039 10.9701239,8.12762039 C11.1989313,8.12762039 11.429196,8.03922532 11.6026233,7.86243516 L13.7376731,5.70412203 C13.9067282,5.53322489 14,5.30634419 14,5.06473098 C14,4.82311777 13.9067282,4.59476382 13.7376731,4.42386667 Z M13.3252368,5.28719192 L11.190187,7.44550505 C11.0677678,7.56925816 10.8710226,7.56925816 10.7486034,7.44550505 L8.61209619,5.28719192 C8.55234394,5.22678862 8.52028176,5.14723305 8.52028176,5.06325773 C8.52028176,4.9792824 8.55234394,4.89972683 8.61209619,4.83932353 L10.747146,2.6810104 C10.8083556,2.61913385 10.8885111,2.58819557 10.9686665,2.58819557 C11.048822,2.58819557 11.1289774,2.61913385 11.190187,2.6810104 L13.3266942,4.84079678 C13.3849891,4.89972683 13.4185086,4.9792824 13.4185086,5.06473098 C13.4170513,5.14723305 13.3849891,5.22678862 13.3252368,5.28719192 L13.3252368,5.28719192 Z" id="形状" fill="#6B7B8D"></path>
            </g>
        </g>
    </g>
</svg>