<?xml version="1.0" encoding="UTF-8"?>
<svg width="24px" height="24px" viewBox="0 0 24 24" version="1.1" xmlns="http://www.w3.org/2000/svg" xmlns:xlink="http://www.w3.org/1999/xlink">
    <title>参数信息</title>
    <g id="页面-1" stroke="none" stroke-width="1" fill="none" fill-rule="evenodd">
        <g id="建木CI-图形编辑器-全局参数" transform="translate(-1385.000000, -20.000000)" fill-rule="nonzero">
            <g id="参数信息" transform="translate(1385.000000, 20.000000)">
                <rect id="矩形" fill="#000000" opacity="0" x="0" y="0" width="24" height="24"></rect>
                <path d="M19.9242188,18.91875 L13.2,18.91875 C12.8109375,18.91875 12.496875,18.6046875 12.496875,18.215625 C12.496875,17.8265625 12.8109375,17.5125 13.2,17.5125 L19.9242188,17.5125 C20.3132813,17.5125 20.6273438,17.8265625 20.6273438,18.215625 C20.6273438,18.6046875 20.3109375,18.91875 19.9242188,18.91875 Z M6.63984375,18.91875 L4.00078125,18.91875 C3.61171875,18.91875 3.29765625,18.6046875 3.29765625,18.215625 C3.29765625,17.8265625 3.61171875,17.5125 4.00078125,17.5125 L6.63984375,17.5125 C7.02890625,17.5125 7.34296875,17.8265625 7.34296875,18.215625 C7.34296875,18.6046875 7.02890625,18.91875 6.63984375,18.91875 L6.63984375,18.91875 Z M19.9242187,13.0054688 L15.3046875,13.0054688 C14.915625,13.0054688 14.6015625,12.6914063 14.6015625,12.3023438 C14.6015625,11.9132813 14.915625,11.5992188 15.3046875,11.5992188 L19.921875,11.5992188 C20.3109375,11.5992188 20.625,11.9132813 20.625,12.3023438 C20.625,12.6914063 20.3109375,13.0054688 19.9242187,13.0054688 Z M8.6390625,13.0054688 L4.00078125,13.0054688 C3.61171875,13.0054688 3.29765625,12.6914063 3.29765625,12.3023438 C3.29765625,11.9132813 3.61171875,11.5992188 4.00078125,11.5992188 L8.6390625,11.5992188 C9.028125,11.5992188 9.3421875,11.9132813 9.3421875,12.3023438 C9.3421875,12.6914063 9.02578125,13.0054688 8.6390625,13.0054688 Z M19.9242188,7.0921875 L17.15625,7.0921875 C16.7671875,7.0921875 16.453125,6.778125 16.453125,6.3890625 C16.453125,6 16.7671875,5.6859375 17.15625,5.6859375 L19.921875,5.6859375 C20.3109375,5.6859375 20.625,6 20.625,6.3890625 C20.625,6.778125 20.3109375,7.0921875 19.9242188,7.0921875 Z M10.3875,7.0921875 L4.00078125,7.0921875 C3.61171875,7.0921875 3.29765625,6.778125 3.29765625,6.3890625 C3.29765625,6 3.61171875,5.6859375 4.00078125,5.6859375 L10.3875,5.6859375 C10.7765625,5.6859375 11.090625,6 11.090625,6.3890625 C11.090625,6.778125 10.7765625,7.0921875 10.3875,7.0921875 Z M11.9695313,14.4445313 C10.8351563,14.4445313 9.91171875,13.5210938 9.91171875,12.3867188 C9.91171875,11.2523438 10.8351563,10.3289063 11.9695313,10.3289063 C13.1039063,10.3289063 14.0273438,11.2523438 14.0273438,12.3867188 C14.0273438,13.5210938 13.1039063,14.4445313 11.9695313,14.4445313 Z M11.9695313,11.4515625 C11.4539063,11.4515625 11.0367188,11.8710938 11.0367188,12.384375 C11.0367188,12.8976563 11.45625,13.3171875 11.9695313,13.3171875 C12.4851563,13.3171875 12.9023438,12.8976563 12.9023438,12.384375 C12.9023438,11.8710938 12.4828125,11.4515625 11.9695313,11.4515625 Z M13.7742188,8.3203125 C12.6398438,8.3203125 11.7164063,7.396875 11.7164063,6.2625 C11.7164063,5.128125 12.6398438,4.2046875 13.7742188,4.2046875 C14.9085938,4.2046875 15.8320313,5.128125 15.8320313,6.2625 C15.8320313,7.396875 14.9085938,8.3203125 13.7742188,8.3203125 Z M13.7742188,5.32734375 C13.2585938,5.32734375 12.8414063,5.746875 12.8414063,6.26015625 C12.8414063,6.7734375 13.2609375,7.19296875 13.7742188,7.19296875 C14.2875,7.19296875 14.7070313,6.7734375 14.7070313,6.26015625 C14.7070313,5.746875 14.2898438,5.32734375 13.7742188,5.32734375 Z M9.91875,20.2757812 C8.784375,20.2757812 7.8609375,19.3523437 7.8609375,18.2179687 C7.8609375,17.0835937 8.784375,16.1601562 9.91875,16.1601562 C11.053125,16.1601562 11.976567,17.0835937 11.976567,18.2179687 C11.9789063,19.3523437 11.0554688,20.2757812 9.91875,20.2757812 Z M9.91875,17.2828125 C9.403125,17.2828125 8.9859375,17.7023438 8.9859375,18.215625 C8.9859375,18.7289063 9.40546875,19.1484375 9.91875,19.1484375 C10.4320313,19.1484375 10.8515625,18.7289063 10.8515625,18.215625 C10.8515625,17.7023438 10.434375,17.2828125 9.91875,17.2828125 Z" id="形状" fill="#6B7B8D"></path>
            </g>
        </g>
    </g>
</svg>