<?xml version="1.0" encoding="UTF-8"?>
<svg width="24px" height="24px" viewBox="0 0 24 24" version="1.1" xmlns="http://www.w3.org/2000/svg" xmlns:xlink="http://www.w3.org/1999/xlink">
    <title>全屏-放大备份</title>
    <g id="页面-1" stroke="none" stroke-width="1" fill="none" fill-rule="evenodd">
        <g id="建木CI-项目详情页（流程/管道图）" transform="translate(-1618.000000, -1122.000000)" fill-rule="nonzero">
            <g id="全屏-放大备份" transform="translate(1618.000000, 1122.000000)">
                <rect id="矩形" fill="#000000" opacity="0" x="0" y="0" width="24" height="24"></rect>
                <path d="M16.6205357,17.75 L7.37946429,17.75 C6.76339286,17.75 6.25,17.2366071 6.25,16.6205357 L6.25,7.37946429 C6.25,6.76339286 6.76339286,6.25 7.37946429,6.25 L16.6205357,6.25 C17.2366071,6.25 17.75,6.76339286 17.75,7.37946429 L17.75,16.6205357 C17.75,17.2366071 17.2366071,17.75 16.6205357,17.75 Z M7.815,7.35 C7.55460001,7.35 7.35,7.55460001 7.35,7.815 L7.35,16.185 C7.35,16.4454 7.55460001,16.65 7.815,16.65 L16.185,16.65 C16.4454,16.65 16.65,16.4454 16.65,16.185 L16.65,7.815 C16.65,7.55460001 16.4454,7.35 16.185,7.35 L7.815,7.35 Z M21.3601896,7.45971565 C21.0189574,7.45971565 20.7203791,7.16113744 20.7203791,6.81990523 L20.7203791,4.30331753 C20.7203791,3.74881516 20.2511848,3.27962085 19.6966825,3.27962085 L17.1800948,3.27962085 C16.8388626,3.27962085 16.5402843,2.98104264 16.5402843,2.63981043 C16.5402843,2.29857821 16.8388626,2 17.1800948,2 L19.6966825,2 C20.9763033,2 22,3.02369668 22,4.30331753 L22,6.81990523 C22,7.16113744 21.7440758,7.45971565 21.3601896,7.45971565 L21.3601896,7.45971565 Z M19.6966825,22 L17.1800948,22 C16.8388626,22 16.5402843,21.7014218 16.5402843,21.3601896 C16.5402843,21.0189574 16.8388626,20.7203791 17.1800948,20.7203791 L19.6966825,20.7203791 C20.2511848,20.7203791 20.7203791,20.2511848 20.7203791,19.6966825 L20.7203791,17.1800948 C20.7203791,16.8388626 21.0189574,16.5402843 21.3601896,16.5402843 C21.7014218,16.5402843 22,16.8388626 22,17.1800948 L22,19.6966825 C22,20.9763033 20.9763033,22 19.6966825,22 L19.6966825,22 Z M6.81990523,22 L4.30331753,22 C3.02369668,22 2,20.9763033 2,19.6966825 L2,17.1800948 C2,16.8388626 2.29857821,16.5402843 2.63981043,16.5402843 C2.98104264,16.5402843 3.27962085,16.8388626 3.27962085,17.1800948 L3.27962085,19.6966825 C3.27962085,20.2511848 3.74881516,20.7203791 4.30331753,20.7203791 L6.81990523,20.7203791 C7.16113744,20.7203791 7.45971565,21.0189574 7.45971565,21.3601896 C7.45971565,21.7014218 7.16113744,22 6.81990523,22 L6.81990523,22 Z M2.63981043,7.45971565 C2.29857821,7.45971565 2,7.16113744 2,6.81990523 L2,4.30331753 C2,3.02369668 3.02369668,2 4.30331753,2 L6.81990523,2 C7.16113744,2 7.45971565,2.29857821 7.45971565,2.63981043 C7.45971565,2.98104264 7.16113744,3.27962085 6.81990523,3.27962085 L4.30331753,3.27962085 C3.74881516,3.27962085 3.27962085,3.74881516 3.27962085,4.30331753 L3.27962085,6.81990523 C3.27962085,7.16113744 2.98104264,7.45971565 2.63981043,7.45971565 Z" id="形状" fill="#526579"></path>
            </g>
        </g>
    </g>
</svg>