<?xml version="1.0" encoding="UTF-8"?>
<svg width="14px" height="14px" viewBox="0 0 14 14" version="1.1" xmlns="http://www.w3.org/2000/svg" xmlns:xlink="http://www.w3.org/1999/xlink">
    <title>点击选择线</title>
    <g id="页面-1" stroke="none" stroke-width="1" fill="none" fill-rule="evenodd">
        <g id="建木CI-图形编辑器-节点参数配置（先选版本）备份-2" transform="translate(-1164.000000, -630.000000)" fill-rule="nonzero">
            <g id="点击选择线" transform="translate(1164.000000, 630.000000)">
                <rect id="矩形" fill="#000000" opacity="0" x="0" y="0" width="14" height="14"></rect>
                <path d="M6.2567749,5.38387173 C6.2067868,5.11269359 6.35838801,5.00554024 6.59425409,5.14585112 L6.59425409,5.14585112 L13.0585573,8.99180156 C13.2944933,9.13207046 13.26987,9.3004603 13.0038124,9.3660898 C13.0038124,9.36608978 11.699169,9.68894888 10.775823,10.0716454 L10.775823,10.0716454 L12.1568966,12.1281811 C12.2884494,12.3245799 12.2381116,12.5947228 12.0446787,12.7281643 L12.0446787,12.7281643 L11.5808512,13.0487989 C11.3871245,13.1819746 11.1210809,13.1308253 10.9891923,12.9348182 L10.9891923,12.9348182 L9.60750312,10.8768695 C8.88725744,11.6454104 8.00905886,12.9043329 8.00905886,12.9043329 C7.85121788,13.1299019 7.68145697,13.0923374 7.63132896,12.8212432 L7.63132896,12.8212432 Z M10.9804063,0.812149365 C12.146012,0.812149365 13.0951985,1.7429243 13.0951985,2.88695664 L13.0951985,2.88695664 L13.0951985,7.62014355 L12.1951327,7.62014355 L12.1951327,2.88697064 C12.1951327,2.23934972 11.6503421,1.71221512 10.9804762,1.71221512 L10.9804762,1.71221512 L3.00343467,1.71221512 C2.33281336,1.71143165 1.78803671,2.23860823 1.78803671,2.88618717 L1.78803671,2.88618717 L1.78803671,11.0143962 C1.78803671,11.6620171 2.33281336,12.1883123 3.00343467,12.1883123 L3.00343467,12.1883123 L6.7159296,12.1883123 L6.7159296,13.0892035 L3.00343467,13.0892035 C1.83714341,13.0892035 0.888768412,12.1584706 0.888768412,11.0151517 L0.888768412,11.0151517 L0.888768412,2.88695664 C0.888768412,1.7429243 1.83714341,0.812149365 3.00343467,0.812149365 L3.00343467,0.812149365 Z" id="路径-4" fill="#6B7B8D"></path>
            </g>
        </g>
    </g>
</svg>