<?xml version="1.0" encoding="UTF-8"?>
<svg width="14px" height="14px" viewBox="0 0 14 14" version="1.1" xmlns="http://www.w3.org/2000/svg" xmlns:xlink="http://www.w3.org/1999/xlink">
    <title>点击选择线备份 3</title>
    <g id="页面-1" stroke="none" stroke-width="1" fill="none" fill-rule="evenodd">
        <g id="建木CI-图形编辑器-节点参数配置（先选版本）备份-2" transform="translate(-1164.000000, -630.000000)" fill-rule="nonzero">
            <g id="点击选择线备份-3" transform="translate(1164.000000, 630.000000)">
                <rect id="矩形" fill="#000000" opacity="0" x="0" y="0" width="14" height="14"></rect>
                <path d="M6.72862843,12.1194391 L3.07890391,12.1194391 C2.41962386,12.1194391 1.88406025,11.6050207 1.88406025,10.9720145 L1.88406025,3.02723336 C1.88406025,2.39426822 2.41962386,1.87898834 3.07890391,1.87898834 L3.07890391,1.87975413 L10.9210411,1.87975413 C11.5795784,1.87975413 12.1151558,2.39499298 12.1151558,3.02799914 L12.1151558,7.65435936 L13,7.65435936 L13,3.02798546 C13,1.9097703 12.0668658,1 10.9209723,1 L3.07890391,1 C1.93233648,1 1,1.9097703 1,3.02798546 L1,10.972753 C1,12.0902707 1.93233648,13 3.07890391,13 L6.72861467,13 L6.72861467,12.1194391 L6.72862843,12.1194391 Z M8.7876853,11.7073795 L8.30597198,8.62418869 C8.29232126,8.53569093 8.32741993,8.44670713 8.39793942,8.3910285 C8.46845891,8.33534988 8.5635818,8.32151731 8.64718558,8.35478367 L11.5675726,9.49227153 C11.6526265,9.52328707 11.7142571,9.5974827 11.7288134,9.68638536 C11.7433697,9.77528802 11.7085904,9.86508799 11.6378225,9.92132397 L9.18911307,11.9169167 C9.11163988,11.9748117 9.00755704,11.9831646 8.92174732,11.9383737 C8.8359376,11.8935827 8.78374858,11.803659 8.7876853,11.7073795 L8.7876853,11.7073795 Z M11.9288576,12.9945392 C11.783528,12.9932596 11.6453174,12.9317842 11.5475012,12.8249114 L8.99843488,9.93130193 C8.81926328,9.72066986 8.84151924,9.40645325 9.04861335,9.22286651 C9.14770014,9.13525071 9.27817674,9.09113555 9.4104437,9.10052885 C9.54271067,9.10992214 9.66555618,9.17202764 9.75111195,9.27275633 L12.310214,12.1663658 C12.3983367,12.2648826 12.4427071,12.3946086 12.4332595,12.5261147 C12.4238118,12.6576208 12.361347,12.7797596 12.2600355,12.8648232 C12.1703479,12.9485138 12.0518581,12.994923 11.9288576,12.9945392 L11.9288576,12.9945392 Z" id="路径-4" fill="#6B7B8D"></path>
            </g>
        </g>
    </g>
</svg>