<?xml version="1.0" encoding="UTF-8"?>
<svg width="24px" height="24px" viewBox="0 0 24 24" version="1.1" xmlns="http://www.w3.org/2000/svg" xmlns:xlink="http://www.w3.org/1999/xlink">
    <title>放大01备份 2</title>
    <g id="页面-1" stroke="none" stroke-width="1" fill="none" fill-rule="evenodd">
        <g id="建木CI-图形编辑器-左侧面板收起" transform="translate(-1397.000000, -130.000000)">
            <g id="编组-9" transform="translate(1397.000000, 130.000000)">
                <path d="M9.54513889,17.8923611 L7.82638889,17.8923611 C6.88107639,17.8923611 6.10763889,17.1189236 6.10763889,16.1736111 L6.10763889,14.4548611 C6.10763889,14.1397569 6.36545139,13.8819444 6.68055556,13.8819444 C6.99565972,13.8819444 7.25347222,14.1397569 7.25347222,14.4548611 L7.25347222,16.1736111 C7.25347222,16.4887153 7.51128472,16.7465278 7.82638889,16.7465278 L9.54513889,16.7465278 C9.86024306,16.7465278 10.1180556,17.0043403 10.1180556,17.3194444 C10.1180556,17.6345486 9.86024306,17.8923611 9.54513889,17.8923611 Z" id="路径" fill="#526579" fill-rule="nonzero"></path>
                <path d="M16.1736111,17.8923611 L14.4548611,17.8923611 C14.1397569,17.8923611 13.8819444,17.6345486 13.8819444,17.3194444 C13.8819444,17.0043403 14.1397569,16.7465278 14.4548611,16.7465278 L16.1736111,16.7465278 C16.4887153,16.7465278 16.7465278,16.4887153 16.7465278,16.1736111 L16.7465278,14.4548611 C16.7465278,14.1397569 17.0043403,13.8819444 17.3194444,13.8819444 C17.6345486,13.8819444 17.8923611,14.1397569 17.8923611,14.4548611 L17.8923611,16.1736111 C17.8923611,17.1189236 17.1189236,17.8923611 16.1736111,17.8923611 Z" id="路径" fill="#526579" fill-rule="nonzero"></path>
                <path d="M17.3194444,10.1180556 C17.0043403,10.1180556 16.7465278,9.86024306 16.7465278,9.54513889 L16.7465278,7.82638889 C16.7465278,7.51128472 16.4887153,7.25347222 16.1736111,7.25347222 L14.4548611,7.25347222 C14.1397569,7.25347222 13.8819444,6.99565972 13.8819444,6.68055556 C13.8819444,6.36545139 14.1397569,6.10763889 14.4548611,6.10763889 L16.1736111,6.10763889 C17.1189236,6.10763889 17.8923611,6.88107639 17.8923611,7.82638889 L17.8923611,9.54513889 C17.8923611,9.86024306 17.6345486,10.1180556 17.3194444,10.1180556 Z" id="路径" fill="#526579" fill-rule="nonzero"></path>
                <path d="M6.68055556,10.1180556 C6.36545139,10.1180556 6.10763889,9.86024306 6.10763889,9.54513889 L6.10763889,7.82638889 C6.10763889,6.88107639 6.88107639,6.10763889 7.82638889,6.10763889 L9.54513889,6.10763889 C9.86024306,6.10763889 10.1180556,6.36545139 10.1180556,6.68055556 C10.1180556,6.99565972 9.86024306,7.25347222 9.54513889,7.25347222 L7.82638889,7.25347222 C7.51128472,7.25347222 7.25347222,7.51128472 7.25347222,7.82638889 L7.25347222,9.54513889 C7.25347222,9.86024306 6.99565972,10.1180556 6.68055556,10.1180556 Z" id="路径" fill="#526579" fill-rule="nonzero"></path>
                <rect id="矩形" stroke="#526579" stroke-width="1.3" x="2.65" y="2.65" width="18.7" height="18.7" rx="4"></rect>
            </g>
        </g>
    </g>
</svg>