<?xml version="1.0" encoding="UTF-8"?>
<svg width="23px" height="24px" viewBox="0 0 23 24" version="1.1" xmlns="http://www.w3.org/2000/svg" xmlns:xlink="http://www.w3.org/1999/xlink">
    <title>放大01备份 3</title>
    <g id="页面-1" stroke="none" stroke-width="1" fill="none" fill-rule="evenodd">
        <g id="建木CI-图形编辑器-左侧面板收起" transform="translate(-1400.000000, -249.000000)">
            <g id="编组-9" transform="translate(1400.000000, 249.000000)">
                <path d="M9.4375,18.7847222 L7.71875,18.7847222 C6.7734375,18.7847222 6,18.0112847 6,17.0659722 L6,15.3472222 C6,15.0321181 6.2578125,14.7743056 6.57291667,14.7743056 C6.88802083,14.7743056 7.14583333,15.0321181 7.14583333,15.3472222 L7.14583333,17.0659722 C7.14583333,17.3810764 7.40364583,17.6388889 7.71875,17.6388889 L9.4375,17.6388889 C9.75260417,17.6388889 10.0104167,17.8967014 10.0104167,18.2118056 C10.0104167,18.5269097 9.75260417,18.7847222 9.4375,18.7847222 Z" id="路径" fill="#526579" fill-rule="nonzero" transform="translate(8.005208, 16.779514) scale(-1, -1) translate(-8.005208, -16.779514) "></path>
                <path d="M17.0659722,18.7847222 L15.3472222,18.7847222 C15.0321181,18.7847222 14.7743056,18.5269097 14.7743056,18.2118056 C14.7743056,17.8967014 15.0321181,17.6388889 15.3472222,17.6388889 L17.0659722,17.6388889 C17.3810764,17.6388889 17.6388889,17.3810764 17.6388889,17.0659722 L17.6388889,15.3472222 C17.6388889,15.0321181 17.8967014,14.7743056 18.2118056,14.7743056 C18.5269097,14.7743056 18.7847222,15.0321181 18.7847222,15.3472222 L18.7847222,17.0659722 C18.7847222,18.0112847 18.0112847,18.7847222 17.0659722,18.7847222 Z" id="路径" fill="#526579" fill-rule="nonzero" transform="translate(16.779514, 16.779514) scale(-1, -1) translate(-16.779514, -16.779514) "></path>
                <path d="M18.2118056,10.0104167 C17.8967014,10.0104167 17.6388889,9.75260417 17.6388889,9.4375 L17.6388889,7.71875 C17.6388889,7.40364583 17.3810764,7.14583333 17.0659722,7.14583333 L15.3472222,7.14583333 C15.0321181,7.14583333 14.7743056,6.88802083 14.7743056,6.57291667 C14.7743056,6.2578125 15.0321181,6 15.3472222,6 L17.0659722,6 C18.0112847,6 18.7847222,6.7734375 18.7847222,7.71875 L18.7847222,9.4375 C18.7847222,9.75260417 18.5269097,10.0104167 18.2118056,10.0104167 Z" id="路径" fill="#526579" fill-rule="nonzero" transform="translate(16.779514, 8.005208) scale(-1, -1) translate(-16.779514, -8.005208) "></path>
                <path d="M6.57291667,10.0104167 C6.2578125,10.0104167 6,9.75260417 6,9.4375 L6,7.71875 C6,6.7734375 6.7734375,6 7.71875,6 L9.4375,6 C9.75260417,6 10.0104167,6.2578125 10.0104167,6.57291667 C10.0104167,6.88802083 9.75260417,7.14583333 9.4375,7.14583333 L7.71875,7.14583333 C7.40364583,7.14583333 7.14583333,7.40364583 7.14583333,7.71875 L7.14583333,9.4375 C7.14583333,9.75260417 6.88802083,10.0104167 6.57291667,10.0104167 Z" id="路径" fill="#526579" fill-rule="nonzero" transform="translate(8.005208, 8.005208) scale(-1, -1) translate(-8.005208, -8.005208) "></path>
                <rect id="矩形" stroke="#526579" stroke-width="1.3" x="2.65" y="2.65" width="18.7" height="18.7" rx="4"></rect>
            </g>
        </g>
    </g>
</svg>