<?xml version="1.0" encoding="UTF-8"?>
<svg width="16px" height="16px" viewBox="0 0 16 16" version="1.1" xmlns="http://www.w3.org/2000/svg" xmlns:xlink="http://www.w3.org/1999/xlink">
    <title>更多备份 2</title>
    <g id="页面-1" stroke="none" stroke-width="1" fill="none" fill-rule="evenodd">
        <g id="建木自动化-首页" transform="translate(-1708.000000, -308.000000)" fill-rule="nonzero">
            <g id="更多备份-2" transform="translate(1708.000000, 308.000000)">
                <rect id="矩形" fill="#000000" opacity="0" x="0" y="0" width="16" height="16"></rect>
                <path d="M12,10 C13.1045695,10 14,10.8954305 14,12 C14,13.1045695 13.1045695,14 12,14 C10.8954305,14 10,13.1045695 10,12 C10,10.8954305 10.8954305,10 12,10 M12,9 C10.3431458,9 9,10.3431458 9,12 C9,13.6568542 10.3431458,15 12,15 C13.6568542,15 15,13.6568542 15,12 C15,10.3431458 13.6568542,9 12,9 Z M14,2 L14,6 L10,6 L10,2 L14,2 M14,1 L10,1 C9.44771525,1 9,1.44771525 9,2 L9,6 C9,6.55228475 9.44771525,7 10,7 L14,7 C14.5522847,7 15,6.55228475 15,6 L15,2 C15,1.44771525 14.5522847,1 14,1 Z M6,2 L6,6 L2,6 L2,2 L6,2 M6,1 L2,1 C1.44771525,1 1,1.44771525 1,2 L1,6 C1,6.55228475 1.44771525,7 2,7 L6,7 C6.55228475,7 7,6.55228475 7,6 L7,2 C7,1.44771525 6.55228475,1 6,1 Z M6,10 L6,14 L2,14 L2,10 L6,10 M6,9 L2,9 C1.44771525,9 1,9.44771525 1,10 L1,14 C1,14.5522847 1.44771525,15 2,15 L6,15 C6.55228475,15 7,14.5522847 7,14 L7,10 C7,9.44771525 6.55228475,9 6,9 Z" id="形状" fill="#6b7b8d"></path>
            </g>
        </g>
    </g>
</svg>