<?xml version="1.0" encoding="UTF-8"?>
<svg width="40px" height="40px" viewBox="0 0 40 40" version="1.1" xmlns="http://www.w3.org/2000/svg" xmlns:xlink="http://www.w3.org/1999/xlink">
    <title>编组 4</title>
    <g id="页面-1" stroke="none" stroke-width="1" fill="none" fill-rule="evenodd">
        <g id="建木CI-图形编辑器-工具栏（初始页）" transform="translate(-832.000000, -84.000000)">
            <g id="编组-6" transform="translate(792.000000, 84.000000)">
                <g id="进入箭头2小" transform="translate(36.000000, 20.000000) scale(-1, 1) translate(-36.000000, -20.000000) "></g>
                <rect id="矩形" fill="#000000" fill-rule="nonzero" opacity="0" transform="translate(60.000000, 20.000000) scale(-1, 1) translate(-60.000000, -20.000000) " x="48" y="8" width="24" height="24"></rect>
                <path d="M65.293,20.7456461 L66,20.0386461 L56.254,10.2906461 C55.8627124,9.90311796 55.2322876,9.90311796 54.841,10.2906461 C54.6527908,10.4777813 54.5469652,10.7322365 54.5469652,10.9976461 C54.5469652,11.2630558 54.6527908,11.517511 54.841,11.7046461 L63.171,20.0366461 L54.841,28.3636461 C54.6528509,28.55061 54.5469652,28.8048999 54.5469652,29.0701461 C54.5469652,29.3353924 54.6528509,29.5896822 54.841,29.7766461 C55.231,30.1666461 55.869,30.1626461 56.254,29.7776461 L65.252,20.7846461 L65.293,20.7456461 L65.293,20.7456461 Z" id="路径" fill="#FFFFFF" fill-rule="nonzero" transform="translate(60.273483, 20.033886) scale(-1, 1) translate(-60.273483, -20.033886) "></path>
            </g>
        </g>
    </g>
</svg>