<?xml version="1.0" encoding="UTF-8"?>
<svg width="24px" height="24px" viewBox="0 0 24 24" version="1.1" xmlns="http://www.w3.org/2000/svg" xmlns:xlink="http://www.w3.org/1999/xlink">
    <title>delete_icon_normals</title>
    <g id="页面-1" stroke="none" stroke-width="1" fill="none" fill-rule="evenodd">
        <g id="建木CI-图形编辑器-左侧面板收起" transform="translate(-646.000000, -321.000000)">
            <g id="delete_icon_normals备份-4" transform="translate(646.000000, 321.000000)">
                <circle id="椭圆形" stroke="#8E9EB3" stroke-width="0.5" fill="#FFFFFF" cx="12" cy="12" r="11.75"></circle>
                <rect id="矩形" fill="#000000" fill-rule="nonzero" opacity="0" x="4" y="4" width="16" height="16"></rect>
                <g id="编组" transform="translate(6.414687, 5.127344)" fill-rule="nonzero">
                    <path d="M8.4596875,13.7734375 L2.720625,13.7734375 C1.53203125,13.7734375 0.5684375,12.8098437 0.5684375,11.62125 L0.5684375,3.460625 L10.611875,3.460625 L10.611875,11.62125 C10.611875,12.8098437 9.64828125,13.7734375 8.4596875,13.7734375 Z M7.3759375,1.78578125 L3.804375,1.78578125 C3.804375,0.79953125 4.60390625,0 5.59015625,0 C6.57640625,0 7.3759375,0.79953125 7.3759375,1.78578125 Z" id="形状" fill="#8E9EB3"></path>
                    <path d="M10.611875,2.6709375 L0.53796875,2.6709375 C0.24078125,2.6709375 4.85537536e-14,2.43 4.85537536e-14,2.13296875 C4.85537536e-14,1.8359375 0.24078125,1.595 0.53796875,1.595 L10.611875,1.595 C10.9090625,1.595 11.1498438,1.8359375 11.1498438,2.13296875 C11.1498438,2.43 10.9090625,2.6709375 10.611875,2.6709375 Z" id="路径" fill="#8E9EB3"></path>
                    <path d="M5.57484375,11.5839062 C5.27765625,11.5839062 5.036875,11.3429687 5.036875,11.0459375 L5.036875,6.1634375 C5.036875,5.86625 5.2778125,5.62546875 5.57484375,5.62546875 C5.871875,5.62546875 6.11281258,5.86640625 6.11281258,6.1634375 L6.11281258,11.0459375 C6.11296875,11.3429687 5.87203125,11.5839062 5.57484375,11.5839062 Z M3.1175,11.60875 C2.8203125,11.60875 2.57953125,11.3678125 2.57953125,11.0707812 L2.57953125,8.029375 C2.57953125,7.7321875 2.82046875,7.49140625 3.1175,7.49140625 C3.41453125,7.49140625 3.65546883,7.73234375 3.65546883,8.029375 L3.65546883,11.070625 C3.655625,11.3678125 3.4146875,11.60875 3.1175,11.60875 L3.1175,11.60875 Z M8.0321875,11.60875 C7.735,11.60875 7.49421875,11.3678125 7.49421875,11.0707812 L7.49421875,8.029375 C7.49421875,7.7321875 7.73515625,7.49140625 8.0321875,7.49140625 C8.32921875,7.49140625 8.57015633,7.73234375 8.57015633,8.029375 L8.57015633,11.070625 C8.5703125,11.3678125 8.329375,11.60875 8.0321875,11.60875 L8.0321875,11.60875 Z" id="形状" fill="#FFFFFF"></path>
                </g>
            </g>
        </g>
    </g>
</svg>