<?xml version="1.0" encoding="UTF-8"?>
<svg width="14px" height="14px" viewBox="0 0 14 14" version="1.1" xmlns="http://www.w3.org/2000/svg" xmlns:xlink="http://www.w3.org/1999/xlink">
    <title>提示备份</title>
    <g id="页面-1" stroke="none" stroke-width="1" fill="none" fill-rule="evenodd">
        <g id="建木CI-图形编辑器-全局参数" transform="translate(-1470.000000, -10.000000)">
            <g id="提示备份" transform="translate(1470.000000, 10.000000)">
                <rect id="矩形" fill="#000000" fill-rule="nonzero" opacity="0" x="0" y="0" width="14" height="14"></rect>
                <path d="M7.69298592,7.40499176 C7.69301811,7.65259325 7.56094279,7.88140023 7.34651898,8.00521027 C7.13209517,8.1290203 6.86790484,8.1290203 6.65348103,8.00521027 C6.43905722,7.88140023 6.3069819,7.65259325 6.30701409,7.40499176 L6.30701409,4.17405745 C6.3069819,3.92645597 6.43905722,3.69764899 6.65348103,3.57383895 C6.86790484,3.45002891 7.13209517,3.45002891 7.34651898,3.57383895 C7.56094279,3.69764899 7.69301811,3.92645597 7.69298592,4.17405745 L7.69298592,7.40499176 Z M7,10.4049308 C6.67088766,10.4038854 6.38832706,10.1705435 6.32507029,9.8475658 C6.26181352,9.52458808 6.43547164,9.20189351 6.73987345,9.0767713 C7.04427525,8.95164909 7.39467341,9.05893403 7.57684128,9.33303419 C7.75900914,9.60713435 7.72223006,9.97173855 7.48899006,10.2039349 C7.36050377,10.3352302 7.18367988,10.4079124 7,10.4049308 L7,10.4049308 Z M7,1.00012199 C6.1972363,0.994951038 5.40191645,1.1542192 4.66304751,1.46811247 C3.22080089,2.073652 2.073652,3.22080089 1.46811247,4.66304751 C1.1542192,5.40191645 0.994951038,6.1972363 1.00012199,7 C0.994951038,7.8027637 1.1542192,8.59808355 1.46811247,9.33695249 C2.073652,10.7791991 3.22080089,11.926348 4.66304751,12.5318875 C5.40191645,12.8457808 6.1972363,13.005049 7,12.999878 C7.8027637,13.005049 8.59808355,12.8457808 9.33695249,12.5318875 C10.7791991,11.926348 11.926348,10.7791991 12.5318875,9.33695249 C12.8457808,8.59808355 13.005049,7.8027637 12.999878,7 C13.005049,6.1972363 12.8457808,5.40191645 12.5318875,4.66304751 C11.926348,3.22080089 10.7791991,2.073652 9.33695249,1.46811247 C8.59808355,1.1542192 7.8027637,0.994951038 7,1.00012199 Z" id="形状" fill="#FF3838"></path>
            </g>
        </g>
    </g>
</svg>