<?xml version="1.0" encoding="UTF-8"?>
<svg width="56px" height="56px" viewBox="0 0 56 56" version="1.1" xmlns="http://www.w3.org/2000/svg" xmlns:xlink="http://www.w3.org/1999/xlink">
    <title>无数据 2</title>
    <g id="页面-1" stroke="none" stroke-width="1" fill="none" fill-rule="evenodd">
        <g id="建木CI-图形编辑器-cron参数配置" transform="translate(-140.000000, -245.000000)">
            <g id="无数据" transform="translate(140.000000, 245.000000)">
                <rect id="矩形" fill="#000000" fill-rule="nonzero" opacity="0" x="0" y="0" width="56" height="56"></rect>
                <path d="M26.6073458,11.0696808 C26.6073458,11.8181625 25.9951064,12.4241048 25.2422043,12.4241048 L19.7800614,12.4241048 C19.4179191,12.4243492 19.0705146,12.2817686 18.8142892,12.0277352 C18.558302,11.7736116 18.4143563,11.4290482 18.41405,11.0696808 C18.41405,10.3214151 19.0256912,9.71428571 19.7801158,9.71428571 L25.2422586,9.71428571 C25.9951064,9.71423174 26.6073458,10.3214151 26.6073458,11.0696808 L26.6073458,11.0696808 Z M34.0415953,11.0696808 C34.0415953,11.8181625 33.6112334,12.4241045 33.0801729,12.4241045 L29.2378001,12.4241045 C28.7061414,12.4241045 28.2763777,11.8176228 28.2763777,11.0696808 C28.2763777,10.3214151 28.706087,9.71428571 29.2378001,9.71428571 L33.0801729,9.71428571 C33.6112334,9.71423174 34.0415953,10.3214151 34.0415953,11.0696808 Z M42.3861023,16.5664441 C42.3861023,16.9860137 42.218278,17.3884157 41.9193417,17.6850456 C41.6204054,17.9816755 41.2149558,18.1482104 40.7922682,18.1479815 L25.013566,18.1479815 C24.1339206,18.1479815 23.4207107,17.4400325 23.4207107,16.5664981 C23.4207107,15.6933954 24.1339749,14.9853925 25.013566,14.9853925 L40.7923225,14.9853925 C41.214955,14.985188 41.6203539,15.151669 41.9193105,15.4482013 C42.2181241,15.7447685 42.3861023,16.1470049 42.3861023,16.5664441 L42.3861023,16.5664441 Z M46.6345322,22.2137349 C46.6345322,23.0457649 45.9551967,23.7204131 45.1167115,23.7204131 L21.2967403,23.7204131 C20.458527,23.7204131 19.7791915,23.0460888 19.7791915,22.2140587 C19.7791915,21.3823525 20.4585814,20.7077583 21.2967403,20.7077583 L45.1161678,20.7077583 C45.9543267,20.7077583 46.6339885,21.3818127 46.6345322,22.2137349 Z M48,27.5608882 C48,27.9803926 47.8322385,28.3827406 47.5334801,28.6794548 C47.2347556,28.9762059 46.8294427,29.1429134 46.4068184,29.1428571 L42.005981,29.1428571 C41.1257374,29.1428571 40.4124731,28.4345845 40.4124731,27.561158 C40.4124731,26.6876236 41.1256831,25.979351 42.005981,25.979351 L46.4068184,25.979351 C46.8292961,25.979351 47.2345377,26.1460161 47.5334801,26.4424295 C47.832136,26.7391676 48,27.1414388 48,27.5608882 Z M39.199739,27.5608882 C39.199739,28.4348004 38.139956,29.1428571 36.8296767,29.1428571 L6.3683767,29.1428571 C5.06043553,29.1428571 4,28.435502 4,27.5608882 C4,26.6872998 5.06038115,25.979351 6.3683767,25.979351 L36.8296767,25.979351 C38.139956,25.979405 39.199739,26.6873537 39.199739,27.5608882 L39.199739,27.5608882 Z" id="形状" fill="#F6FAFE"></path>
                <path d="M13.7142857,30.8564166 C13.7142857,31.3113744 13.5353051,31.7477171 13.2165732,32.0694407 C12.8979915,32.3911991 12.4656587,32.5718106 12.0149579,32.5714286 L9.69871905,32.5714286 C8.76045859,32.5714286 8,31.8040376 8,30.8569751 C8,29.9102477 8.76045859,29.1428571 9.69871905,29.1428571 L12.0149579,29.1428571 C12.9530519,29.1424562 13.7138579,29.9096339 13.7142857,30.8564166 L13.7142857,30.8564166 Z" id="路径" fill="#F6FAFE"></path>
                <path d="M29.7599231,33.8616572 C29.7599231,34.3556597 29.568014,34.8294545 29.2264028,35.178964 C28.884604,35.528287 28.4210164,35.7245378 27.9376289,35.7245378 L1.82228747,35.7245378 C1.17136563,35.724466 0.569901144,35.3695945 0.244362484,34.7935424 C-0.0814541614,34.2174578 -0.0814541614,33.5074137 0.244362484,32.9313291 C0.569744231,32.355073 1.17127122,32.0000374 1.82228747,32 L27.9376289,32 C28.4208719,31.9999219 28.8843481,32.1960539 29.2260763,32.5452402 C29.5679234,32.8942521 29.7599231,33.3678362 29.7599231,33.8616572 L29.7599231,33.8616572 Z M53.1428571,40.4402948 C53.1425307,41.4593738 52.334442,42.2853806 51.3372134,42.2857143 L29.5918955,42.2857143 C28.6128409,42.259634 27.8327749,41.4409675 27.8327749,40.4402948 C27.8327749,39.4395665 28.6128409,38.6210668 29.5918955,38.5948752 L51.3366693,38.5948752 C52.3338434,38.5954313 53.1422586,39.4212713 53.1428571,40.4402948 L53.1428571,40.4402948 Z" id="形状" fill="#F6FAFE"></path>
                <path d="M35.4285714,43.7144045 C35.4286464,44.0934118 35.2856674,44.4569074 35.0311244,44.7248335 C34.7765815,44.9927596 34.4313524,45.1431409 34.0714718,45.1428571 L32.2136777,45.1428571 C31.4645844,45.1428571 30.8571429,44.5035478 30.8571429,43.714345 C30.8571429,42.9253801 31.4645844,42.2857143 32.2136777,42.2857143 L34.0714718,42.2857143 C34.8205085,42.2860117 35.4279501,42.9254396 35.4285714,43.7144045 L35.4285714,43.7144045 Z" id="路径" fill="#E3EDF1" fill-rule="nonzero"></path>
                <path d="M49.830269,46.0001192 C49.830269,46.3793038 49.692425,46.7429441 49.4470308,47.0109244 C49.201537,47.2785486 48.8689408,47.4287541 48.5222464,47.4285713 L24.163691,47.4285713 C23.4421025,47.4285713 22.8571429,46.7890273 22.8571429,46.0001192 C22.8571429,45.2112112 23.4421025,44.5714286 24.163691,44.5714286 L48.522301,44.5714286 C49.2447086,44.5714286 49.830269,45.210853 49.830269,46.0001192 Z M54.8571429,46.0001192 C54.8571429,46.7886691 54.2724563,47.4282129 53.5508677,47.4285711 L52.5075842,47.4285711 C51.785668,47.4285711 51.2007083,46.7890273 51.2007083,46.0001192 C51.2007083,45.2112112 51.785668,44.5714286 52.5075842,44.5714286 L53.5508131,44.5714286 C54.2715825,44.5714286 54.8571429,45.210853 54.8571429,46.0001192 Z" id="形状" fill="#F6FAFE"></path>
                <path d="M38.7520096,11.4341951 L15.6521497,11.4341951 C15.6521497,11.4341951 13.8759285,11.2141347 13.7637676,13.5271743 C13.6524334,15.839558 13.7637676,40.0937598 13.7637676,43.2481233 C13.7264541,45.82353 16.9457207,46.3846677 18.0951635,44.9181448 C19.6503147,43.0462646 18.6506219,40.842654 18.3179973,40.7320771 C17.9838845,40.621063 39.9749219,40.7320771 39.9749219,40.7320771 L39.9749219,14.4077986 C39.9748668,14.4077986 40.2814767,11.4280186 38.7520096,11.4341951 Z" id="路径" fill="#FFFFFF" fill-rule="nonzero"></path>
                <path d="M16.5718712,46.2857143 C15.7756255,46.2857143 15.0210439,45.9866495 14.5022827,45.4632999 C14.0081563,44.9660794 13.7524957,44.2974338 13.7636833,43.5305576 C13.7636833,42.8252874 13.758062,41.0482819 13.7506771,38.6926071 C13.7252708,30.6216304 13.677269,15.5982043 13.7636833,13.7984041 C13.8480033,12.0508076 14.8795736,11.4285714 15.816518,11.4285714 C15.9158834,11.4285714 15.9747421,11.4365523 15.9747421,11.4365523 L39.0365481,11.4347484 C39.4115242,11.4347484 39.7236737,11.5717902 39.9707369,11.8427578 C40.7440013,12.6915748 40.5528759,14.6395681 40.5448296,14.7220556 L40.5465932,41.305365 L40.2580864,41.3042717 C40.2574802,41.3042717 30.4858349,41.2549651 24.0701271,41.2549651 C21.1615818,41.2549651 19.790582,41.2655152 19.1591186,41.2766119 C19.2694511,41.5017714 19.3396076,41.7289535 19.3612112,41.8046626 C19.5331579,42.4003869 19.8030371,43.9411362 18.6031024,45.3858962 C18.1568675,45.9558192 17.4146307,46.2857143 16.5718712,46.2857143 Z M15.816518,11.9976746 C15.3983347,11.9976746 14.4170809,12.1764246 14.3371698,13.8254079 C14.2513617,15.610449 14.2987573,30.6245822 14.3241636,38.6904752 C14.3316036,41.0468606 14.3371698,42.8252874 14.3371698,43.5349307 C14.328352,44.1504433 14.5262561,44.6772914 14.9103807,45.0632714 C15.3231631,45.4782777 15.9283385,45.7162285 16.5718712,45.7162285 C17.2359604,45.7162285 17.812974,45.466525 18.1541671,45.0300359 C18.9164643,44.1128347 18.9901479,43.1595009 18.9188341,42.5205376 C18.8412927,41.8232483 18.5714135,41.3447228 18.4776694,41.2722388 C18.3764854,41.2438137 18.2939289,41.1096145 18.3169654,40.9711515 C18.3350418,40.859255 18.3459538,40.7914721 18.6942562,40.7503651 L18.6942562,40.7494904 L18.6954135,40.7503651 C19.2384236,40.6860806 20.5981255,40.6860806 24.0689146,40.6860806 C29.8342008,40.6860806 38.3094668,40.7257118 39.9707369,40.7336926 L39.9707369,14.6926465 C40.022817,14.1714288 40.0432632,12.7722583 39.5437358,12.223654 C39.4179973,12.0783862 39.2327363,11.9976746 39.0397996,12.0032502 L15.9386994,12.0032502 C15.8984683,12.0008997 15.8661731,11.9976746 15.816518,11.9976746 Z" id="形状" fill="#A5D2FF" fill-rule="nonzero"></path>
                <path d="M17.1428571,16.5714286 L37.1428571,16.5714286 L37.1428571,22.2857143 L17.1428571,22.2857143 L17.1428571,16.5714286 Z M17.1428571,24 L36,24 L36,25.1428571 L17.1428571,25.1428571 L17.1428571,24 Z M17.1428571,26.8571429 L26.8571429,26.8571429 L26.8571429,28 L17.1428571,28 L17.1428571,26.8571429 L17.1428571,26.8571429 Z M17.1428571,30.2857143 L33.7142857,30.2857143 L33.7142857,31.4285714 L17.1428571,31.4285714 L17.1428571,30.2857143 Z M17.1428571,33.7142857 L29.1428571,33.7142857 L29.1428571,34.8571429 L17.1428571,34.8571429 L17.1428571,33.7142857 Z M46.3732882,38.3194192 C46.8661668,38.8091195 47.0052704,39.477902 46.6846516,39.8128347 C46.3654483,40.1474967 45.7044476,40.0213216 45.2127667,39.5305381 L40.4828634,34.8235011 C39.9911825,34.3338007 39.8514256,33.6647475 40.1732422,33.3301938 C40.4921733,32.9952069 41.1531195,33.1215987 41.6439837,33.6124904 L46.3732882,38.3194192 L46.3732882,38.3194192 Z" id="形状" fill="#EDF6FF"></path>
                <path d="M46.5991198,40.5714286 C46.2222554,40.5714286 45.7979576,40.3725574 45.4645645,40.0388851 L40.5476115,35.1321922 C39.9702019,34.556352 39.828241,33.7820359 40.2233316,33.3700119 C40.5992902,32.9736808 41.4113202,33.1114737 41.9632583,33.6626455 L46.8795888,38.5691126 C47.4569984,39.1438802 47.6011102,39.9179706 47.20568,40.3303897 C47.0561909,40.4880528 46.8464759,40.5714286 46.5991198,40.5714286 Z M40.8287597,33.423413 C40.7147608,33.423413 40.5534416,33.4488717 40.4370088,33.57227 C40.1616906,33.8583555 40.3087458,34.4776616 40.7561378,34.924402 L45.6730343,39.8309821 C45.9526542,40.1098984 46.2988396,40.276537 46.5991198,40.276537 C46.7136847,40.276537 46.8750605,40.2511912 46.992399,40.12768 C47.2671511,39.8410301 47.1190771,39.2220626 46.6717417,38.7763948 L41.7551283,33.8692502 C41.4757913,33.590108 41.1296625,33.423413 40.8287597,33.423413 Z" id="形状" fill="#65A4E2" fill-rule="nonzero"></path>
                <path d="M40.1400768,33.7257811 C39.7665446,33.8389199 40.2793372,33.5055929 40.0945364,33.9699857 C40.0269839,34.3695 40.1883126,34.702827 40.4862062,35.0090645 L45.1182976,39.7851391 C45.5953205,40.278784 46.5486924,40.7792013 46.7826835,40.4825249 C46.8068294,40.4510532 46.8339515,40.4235084 46.8571429,40.3932887 L40.1400768,33.7257811 L40.1400768,33.7257811 Z" id="路径" fill="#65A4E2" fill-rule="nonzero"></path>
                <path d="M40.935204,25.3502683 C38.3731567,22.7877997 34.202407,22.7877997 31.6386385,25.3515053 C29.0734176,27.9138663 29.072826,32.0863825 31.6369172,34.6499805 C34.2012774,37.2119113 38.3726188,37.2119113 40.935204,34.6499805 C43.4977892,32.0863825 43.4977892,27.912683 40.935204,25.3502683" id="路径" fill="#FFFFFF" fill-rule="nonzero"></path>
                <path d="M36.572412,36.5713931 C34.7523787,36.5770329 33.0055962,35.8549606 31.7208576,34.5658565 C30.4305774,33.2817522 29.7080077,31.5346417 29.7143268,29.7143408 C29.7143268,27.8795807 30.4280033,26.1564585 31.7220419,24.8635786 C33.0061922,23.5736894 34.7530998,22.8512071 36.5732733,22.8571796 C38.3925295,22.8515514 40.1385316,23.5734713 41.422513,24.8622329 C44.0972576,27.537077 44.0972576,31.8903665 41.422513,34.5658565 C40.1384795,35.8551253 38.3920636,36.5772625 36.572412,36.5713931 L36.572412,36.5713931 Z M36.5738116,23.417899 C34.8892845,23.417899 33.3070897,24.0726929 32.1191516,25.2604479 C30.9340293,26.4392979 30.2699694,28.0433534 30.2750409,29.7148791 C30.2750409,31.3999453 30.9291142,32.9820397 32.1171061,34.1698485 C33.3053671,35.357442 34.8872927,36.0105835 36.572412,36.0105835 C38.2575312,36.0105835 39.8391339,35.3573882 41.0264798,34.1698485 C43.4833712,31.7126285 43.4833712,27.7160531 41.0264798,25.2599635 C39.8481469,24.0755164 38.2445981,23.4121434 36.5738116,23.417899 L36.5738116,23.417899 Z" id="形状" fill="#65A4E2" fill-rule="nonzero"></path>
                <path d="M40,28.5714286 L39.4285714,28.5714286 L39.4285714,28 L40,28 L40,28.5714286 Z M38.2857143,28.5714286 L37.7142857,28.5714286 L37.7142857,28 L38.2857143,28 L38.2857143,28.5714286 L38.2857143,28.5714286 Z M36.5714286,28.5714286 L36,28.5714286 L36,28 L36.5714286,28 L36.5714286,28.5714286 Z M34.8571429,28.5714286 L34.2857143,28.5714286 L34.2857143,28 L34.8571429,28 L34.8571429,28.5714286 L34.8571429,28.5714286 Z M33.1428571,28.5714286 L32.5714286,28.5714286 L32.5714286,28 L33.1428571,28 L33.1428571,28.5714286 Z M38.2857143,26.2857143 L37.7142857,26.2857143 L37.7142857,25.7142857 L38.2857143,25.7142857 L38.2857143,26.2857143 Z M36.5714286,26.2857143 L36,26.2857143 L36,25.7142857 L36.5714286,25.7142857 L36.5714286,26.2857143 Z M34.8571429,26.2857143 L34.2857143,26.2857143 L34.2857143,25.7142857 L34.8571429,25.7142857 L34.8571429,26.2857143 Z M41.1428571,31.4285714 L40.5714286,31.4285714 L40.5714286,30.8571429 L41.1428571,30.8571429 L41.1428571,31.4285714 Z M39.4285714,31.4285714 L38.8571429,31.4285714 L38.8571429,30.8571429 L39.4285714,30.8571429 L39.4285714,31.4285714 L39.4285714,31.4285714 Z M37.7142857,31.4285714 L37.1428571,31.4285714 L37.1428571,30.8571429 L37.7142857,30.8571429 L37.7142857,31.4285714 Z M36,31.4285714 L35.4285714,31.4285714 L35.4285714,30.8571429 L36,30.8571429 L36,31.4285714 Z M34.2857143,31.4285714 L33.7142857,31.4285714 L33.7142857,30.8571429 L34.2857143,30.8571429 L34.2857143,31.4285714 Z M32.5714286,31.4285714 L32,31.4285714 L32,30.8571429 L32.5714286,30.8571429 L32.5714286,31.4285714 Z M38.2857143,34.2857143 L37.7142857,34.2857143 L37.7142857,33.7142857 L38.2857143,33.7142857 L38.2857143,34.2857143 Z M36.5714286,34.2857143 L36,34.2857143 L36,33.7142857 L36.5714286,33.7142857 L36.5714286,34.2857143 Z M34.8571429,34.2857143 L34.2857143,34.2857143 L34.2857143,33.7142857 L34.8571429,33.7142857 L34.8571429,34.2857143 Z M17.9353855,40.6516164 C17.9353855,40.6516164 20.0695443,44.8546196 16.0947105,46.169922 C16.0947105,46.169922 15.8816119,46.1459248 16.0947105,46.169922 C20.547847,46.1281599 41.7173081,46.2857143 41.7173081,46.2857143 C41.7173081,46.2857143 43.3998293,45.188833 43.8631572,43.9964871 C44.3243698,42.8055391 43.5265862,41.1232311 42.8531101,40.6338515 C41.3825184,40.4836943 17.9353855,40.6516164 17.9353855,40.6516164 Z" id="形状" fill="#EDF6FF"></path>
                <path d="M41.6389279,46.2857143 L41.5972155,46.2857143 C41.4341678,46.2844421 25.2277593,46.1692858 18.4328761,46.1692858 C17.52457,46.1692858 16.7792565,46.1710005 16.2594767,46.1755359 L16.2514868,46.1784674 L16.0180735,46.1529693 L16,46.0136976 L16.0073837,45.8770256 L16.1434864,45.8770256 L16.1588599,45.8790721 L16.1588599,45.8781871 L16.2227785,45.8852115 C17.2650934,45.5482604 17.9550842,44.9800564 18.2745672,44.1971374 C18.886423,42.6975059 17.9414188,40.876908 17.9322718,40.8587662 L17.8210203,40.6490844 L18.0574642,40.6471485 C18.1687157,40.6463742 29.2329791,40.5714286 36.4790397,40.5714286 C40.2252788,40.5714286 42.3312881,40.591285 42.7372266,40.6310532 L42.7742003,40.6349249 L42.8052229,40.6558876 C43.5449159,41.1714913 44.329848,42.849499 43.8558581,44.0217481 C43.3847887,45.1839307 41.7447794,46.2197843 41.6746893,46.2639773 L41.6389279,46.2857143 L41.6389279,46.2857143 Z M18.4328761,45.8814504 C25.0570524,45.8814504 40.6237785,45.9910757 41.5569908,45.9978788 C41.7945919,45.8428437 43.1892858,44.9017369 43.5896039,43.9138927 C44.0182997,42.8501627 43.2614698,41.3582746 42.6712141,40.9149063 C42.1922651,40.8780696 40.1099497,40.8603702 36.4790397,40.8603702 C29.8092938,40.8603702 19.9033908,40.9244197 18.2858632,40.9341543 C18.5284786,41.4791832 19.0820361,42.9759939 18.5408766,44.3056011 C18.2654202,44.9827113 17.7473486,45.5113131 16.9958636,45.8837734 C17.4047777,45.8820035 17.8894023,45.8814504 18.4328761,45.8814504 Z" id="形状" fill="#A5D2FF" fill-rule="nonzero"></path>
                <path d="M56,19.7598471 C56,20.8390846 55.076033,21.7142857 53.9392837,21.7142857 L44.9179127,21.7142857 C43.7803065,21.7142857 42.8571429,20.8390846 42.8571429,19.7598471 L42.8571429,19.09776 C42.8571429,18.0188319 43.7802529,17.1428571 44.9179127,17.1428571 L53.9392837,17.1428571 C55.076033,17.1428571 56,18.0182645 56,19.09776 L56,19.7598471 L56,19.7598471 Z" id="路径" fill="#FFFFFF" fill-rule="nonzero"></path>
                <path d="M53.7756827,21.7142857 L44.5100866,21.7142857 C43.284091,21.7142857 42.2857143,20.7211941 42.2857143,19.4994064 L42.2857143,18.7859744 C42.2857143,17.5645201 43.2834859,16.5714286 44.5100866,16.5714286 L53.7756827,16.5714286 C55.0013482,16.5714286 56,17.5645757 56,18.7859744 L56,19.4994064 C55.9993949,20.7205828 55.0014033,21.7142857 53.7756827,21.7142857 L53.7756827,21.7142857 Z M44.5100866,16.7883982 C43.402466,16.7883982 42.5011216,17.6845648 42.5011216,18.7859744 L42.5011216,19.4994064 C42.5011216,20.6008716 43.402521,21.4970383 44.5100866,21.4970383 L53.7756827,21.4970383 C54.8832483,21.4970383 55.7843726,20.6008716 55.7843726,19.4994064 L55.7843726,18.7859744 C55.7843726,17.6845648 54.8832483,16.7883982 53.7756827,16.7883982 L44.5100866,16.7883982 L44.5100866,16.7883982 Z" id="形状" fill="#A5D2FF" fill-rule="nonzero"></path>
                <path d="M46.2857143,24 L47.1377412,21.7142857 L50.2857143,21.7142857 L46.2857143,24 Z M47.4657795,21.7142857 L46.8571429,23.4285714 L49.7142857,21.7142857 L47.4657795,21.7142857 L47.4657795,21.7142857 Z" id="形状" fill="#A5D2FF" fill-rule="nonzero"></path>
                <polygon id="路径" fill="#FFFFFF" fill-rule="nonzero" points="47.4285714 22 47.4285714 20.8571429 48.4844163 21.1428571 49.2730548 21.3152213 49.5354243 21.4469015 50.2857143 21.4285714 48.5714286 22.2857143"></polygon>
                <path d="M45.7935163,18.857143 C45.4419902,18.8569002 45.1541563,19.1016538 45.1431902,19.4098314 C45.1356132,19.6178787 45.2578019,19.8130249 45.461984,19.9189733 C45.6660699,20.0249956 45.9197541,20.0250887 46.123941,19.9192163 C46.3282418,19.8134482 46.450661,19.6184185 46.4433441,19.410366 C46.4325995,19.1021884 46.1450425,18.857143 45.7935163,18.857143 L45.7935163,18.857143 Z M53.6355353,18.857143 C53.2840091,18.8569002 52.9958429,19.1016538 52.9848768,19.4098314 C52.9768632,19.6182106 53.0989371,19.8138516 53.3033185,19.9201802 C53.5077,20.0265088 53.7618816,20.0266133 53.9663765,19.9204528 C54.1708713,19.8142922 54.293154,19.6187517 54.285363,19.410366 C54.2746184,19.1021884 53.9866737,18.857143 53.6355353,18.857143 L53.6355353,18.857143 Z M49.584546,18.857143 C49.2330198,18.8569002 48.9448537,19.1016538 48.9338875,19.4098314 C48.925874,19.6182106 49.0479479,19.8138516 49.2523293,19.9201802 C49.4567107,20.0265088 49.7108924,20.0266133 49.9153872,19.9204528 C50.1198821,19.8142922 50.2421648,19.6187517 50.2343737,19.410366 C50.2236291,19.1021884 49.9356845,18.857143 49.584546,18.857143 L49.584546,18.857143 Z" id="形状" fill="#65A4E2" fill-rule="nonzero"></path>
                <path d="M24.0697143,20.5714286 L24.0697143,18.7817143 L24.0834286,18.7817143 L25.3074286,20.5714286 L25.6982857,20.5714286 L25.6982857,18.1234286 L25.2937143,18.1234286 L25.2937143,19.8891429 L25.28,19.8891429 L24.0697143,18.1234286 L23.6685714,18.1234286 L23.6685714,20.5714286 L24.0697143,20.5714286 Z M27.1965714,20.6194286 C27.5188571,20.6194286 27.7691429,20.5371429 27.9474286,20.3725714 C28.1257143,20.2034286 28.2148571,19.96 28.2148571,19.6422857 L28.2148571,19.6422857 L28.2148571,18.1234286 L27.8137143,18.1234286 L27.8137143,19.6491429 C27.8137143,19.8571429 27.7645714,20.0137143 27.6662857,20.1188571 C27.5657143,20.2194286 27.4091429,20.2697143 27.1965714,20.2697143 C26.9794286,20.2697143 26.8228571,20.2194286 26.7268571,20.1188571 C26.6285714,20.0182857 26.5794286,19.8617143 26.5794286,19.6491429 L26.5794286,19.6491429 L26.5794286,18.1234286 L26.1782857,18.1234286 L26.1782857,19.6422857 C26.1782857,19.96 26.2685714,20.2045714 26.4491429,20.376 C26.6228571,20.5382857 26.872,20.6194286 27.1965714,20.6194286 Z M30.416,20.5714286 L30.416,20.2285714 L29.0925714,20.2285714 L29.0925714,18.1234286 L28.6948571,18.1234286 L28.6948571,20.5714286 L30.416,20.5714286 Z M32.4457143,20.5714286 L32.4457143,20.2285714 L31.1222857,20.2285714 L31.1222857,18.1234286 L30.7245714,18.1234286 L30.7245714,20.5714286 L32.4457143,20.5714286 Z" id="NULL" fill="#65A4E2" fill-rule="nonzero"></path>
            </g>
        </g>
    </g>
</svg>