<?xml version="1.0" encoding="UTF-8"?>
<svg width="24px" height="24px" viewBox="0 0 24 24" version="1.1" xmlns="http://www.w3.org/2000/svg" xmlns:xlink="http://www.w3.org/1999/xlink">
    <title>information_icon</title>
    <g id="页面-1" stroke="none" stroke-width="1" fill="none" fill-rule="evenodd">
        <g id="建木CI-图形编辑器-左侧面板收起" transform="translate(-504.000000, -658.000000)" fill-rule="nonzero">
            <g id="information_icon备份-2" transform="translate(504.000000, 658.000000)">
                <g id="编组-8" transform="translate(2.000000, 3.000000)">
                    <path d="M11.6752591,0.673792328 L20.8161583,16.0748758 C21.3385058,16.9732656 20.6855714,18 19.6408991,18 L1.35910086,18 C0.314428635,18 -0.338505849,16.9732882 0.183841739,16.0748758 L9.32474088,0.673792328 C9.84708847,-0.224597443 11.1529115,-0.224597443 11.6752591,0.673792328 Z" id="形状" stroke="#FA541C" stroke-width="2" fill="#FFFFFF"></path>
                    <path d="M8,8.75000824 L9.25001648,8.75000824 L9.25001648,10.000011 L8,10.000011 L8,8.75000824 Z M11.7500055,13.7500192 L13,13.7500192 L13,15 L8,15 L8,13.7500192 L9.25001648,13.7500192 L9.25001648,8.75000824 L11.7499835,8.75000824 L11.7499835,13.7500192 L11.7500055,13.7500192 Z M9.24999451,6.25000275 C9.24999451,6.9403602 9.80963611,7.5 10.499989,7.5 C11.1903419,7.5 11.7499835,6.9403602 11.7499835,6.25000275 C11.7499835,5.55964529 11.1903419,5 10.499989,5 C9.80963611,5 9.24999451,5.55964529 9.24999451,6.25000275 Z" id="形状" fill="#FA541C"></path>
                </g>
            </g>
        </g>
    </g>
</svg>