<?xml version="1.0" encoding="UTF-8"?>
<svg width="24px" height="25px" viewBox="0 0 24 25" version="1.1" xmlns="http://www.w3.org/2000/svg" xmlns:xlink="http://www.w3.org/1999/xlink">
    <title>下载 2</title>
    <g id="页面-1" stroke="none" stroke-width="1" fill="none" fill-rule="evenodd">
        <g id="建木自动化-详情（查看任务执行日志）" transform="translate(-1768.000000, -263.000000)" fill-rule="nonzero">
            <g id="编组-19" transform="translate(825.000000, -0.000000)">
                <g id="编组-52" transform="translate(23.000000, 220.000000)">
                    <g id="下载-2" transform="translate(920.000000, 43.000000)">
                        <rect id="矩形" fill="#000000" opacity="0" x="0" y="0" width="24" height="24"></rect>
                        <path d="M3.32478033,23.9554731 C2.44219731,23.9624545 1.59506745,23.6085901 0.979696828,22.9758813 C0.346987964,22.3605106 -0.00687639965,21.5133808 3.62209261e-06,20.6307978 L3.62209261e-06,16.3265306 L3.99268385,16.3265306 L3.99268385,19.9925789 L19.755207,19.9925789 L19.755207,16.3265306 L23.7477859,16.3265306 L23.7477859,20.6753247 C23.7396581,22.508115 22.2559009,23.9918722 20.4231106,24 L3.32478033,23.9554731 Z M15.9704204,13.877551 L12.0223684,17.7662338 L8.2078972,13.877551 L9.88507718,13.877551 L9.88507718,2.41929499 L13.9370252,2.41929499 L13.9370252,14.0111317 L15.9704204,13.877551 L15.9704204,13.877551 Z" id="路径-2" fill="#FFFFFF"></path>
                    </g>
                </g>
            </g>
        </g>
    </g>
</svg>