<?xml version="1.0" encoding="UTF-8"?>
<svg width="98px" height="98px" viewBox="0 0 98 98" version="1.1" xmlns="http://www.w3.org/2000/svg" xmlns:xlink="http://www.w3.org/1999/xlink">
    <title>无数据 2</title>
    <g id="页面-1" stroke="none" stroke-width="1" fill="none" fill-rule="evenodd">
        <g id="建木持续集成平台-空模版" transform="translate(-1058.000000, -434.000000)">
            <g id="无数据" transform="translate(1058.000000, 434.000000)">
                <rect id="矩形" fill="#000000" fill-rule="nonzero" opacity="0" x="0" y="0" width="98" height="98"></rect>
                <path d="M46.5628551,19.3719415 C46.5628551,20.6817843 45.4914363,21.7421834 44.1738575,21.7421834 L34.6151075,21.7421834 C33.9813584,21.7426112 33.3734006,21.493095 32.9250061,21.0485366 C32.4770285,20.6038204 32.2251235,20.0008344 32.2245874,19.3719415 C32.2245874,18.0624764 33.2949596,17 34.6152027,17 L44.1739526,17 C45.4914363,16.9999055 46.5628551,18.0624764 46.5628551,19.3719415 L46.5628551,19.3719415 Z M59.5727918,19.3719415 C59.5727918,20.6817843 58.8196585,21.7421828 57.8903026,21.7421828 L51.1661501,21.7421828 C50.2357475,21.7421828 49.4836609,20.6808398 49.4836609,19.3719415 C49.4836609,18.0624764 50.2356523,17 51.1661501,17 L57.8903026,17 C58.8196585,16.9999055 59.5727918,18.0624764 59.5727918,19.3719415 Z M74.175679,28.9912772 C74.175679,29.725524 73.8819865,30.4297274 73.358848,30.9488298 C72.8357095,31.4679321 72.1261726,31.7593683 71.3864693,31.7589677 L43.7737406,31.7589677 C42.234361,31.7589677 40.9862436,30.5200569 40.9862436,28.9913716 C40.9862436,27.463442 42.2344561,26.2244368 43.7737406,26.2244368 L71.3865644,26.2244368 C72.1261712,26.2240789 72.8356194,26.5154207 73.3587935,27.0343523 C73.8817172,27.5533449 74.175679,28.2572587 74.175679,28.9912772 L74.175679,28.9912772 Z M81.6104314,38.874036 C81.6104314,40.3300886 80.4215942,41.5107229 78.9542452,41.5107229 L37.2692956,41.5107229 C35.8024223,41.5107229 34.6135851,40.3306553 34.6135851,38.8746027 C34.6135851,37.4191168 35.8025175,36.238577 37.2692956,36.238577 L78.9532936,36.238577 C80.4200718,36.238577 81.6094799,37.4181723 81.6104314,38.874036 Z M84,48.2315543 C84,48.965687 83.7064174,49.669796 83.1835902,50.1890459 C82.6608223,50.7083604 81.9515247,51.0000985 81.2119321,51 L73.5104668,51 C71.9700405,51 70.721828,49.7605229 70.721828,48.2320265 C70.721828,46.7033413 71.9699453,45.4638642 73.5104668,45.4638642 L81.2119321,45.4638642 C81.9512682,45.4638642 82.6604409,45.7555281 83.1835902,46.2742516 C83.706238,46.7935432 84,47.497518 84,48.2315543 Z M68.5995433,48.2315543 C68.5995433,49.7609007 66.7449229,51 64.4519343,51 L11.1446592,51 C8.85576217,51 7,49.7621285 7,48.2315543 C7,46.7027746 8.85566702,45.4638642 11.1446592,45.4638642 L64.4519343,45.4638642 C66.7449229,45.4639587 68.5995433,46.702869 68.5995433,48.2315543 L68.5995433,48.2315543 Z" id="形状" fill="#F6FAFE"></path>
                <path d="M24,53.998729 C24,54.7949053 23.6867839,55.558505 23.1290032,56.1215213 C22.5714851,56.6845984 21.8149027,57.0006685 21.0261764,57 L16.9727583,57 C15.3308025,57 14,55.6570658 14,53.9997064 C14,52.3429334 15.3308025,51 16.9727583,51 L21.0261764,51 C22.6678408,50.9992984 23.9992514,52.3418593 24,53.998729 L24,53.998729 Z" id="路径" fill="#F6FAFE"></path>
                <path d="M52.0798654,59.2579001 C52.0798654,60.1224045 51.7440246,60.9515454 51.1462049,61.563187 C50.5480571,62.1745023 49.7367787,62.5179411 48.8908506,62.5179411 L3.18900308,62.5179411 C2.04988985,62.5178155 0.997327002,61.8967903 0.427634347,60.8886991 C-0.142544782,59.8805511 -0.142544782,58.637974 0.427634347,57.6298259 C0.997052405,56.6213778 2.04972463,56.0000655 3.18900308,56 L48.8908506,56 C49.7365258,55.9998632 50.5476092,56.3430944 51.1456335,56.9541703 C51.7438659,57.5649412 52.0798654,58.3937133 52.0798654,59.2579001 L52.0798654,59.2579001 Z M93,70.7705158 C92.9994287,72.5539042 91.5852734,73.9994161 89.8401235,74 L51.7858171,74 C50.0724715,73.9543594 48.7073561,72.5216931 48.7073561,70.7705158 C48.7073561,69.0192413 50.0724715,67.5868669 51.7858171,67.5410317 L89.8391712,67.5410317 C91.584226,67.5420048 92.9989525,68.9872248 93,70.7705158 L93,70.7705158 Z" id="形状" fill="#F6FAFE"></path>
                <path d="M62,76.5002078 C62.0001313,77.1634707 61.7499179,77.7995879 61.3044677,78.2684586 C60.8590176,78.7373293 60.2548667,79.0004966 59.6250756,79 L56.3739359,79 C55.0630228,79 54,77.8812086 54,76.5001037 C54,75.1194153 55.0630228,74 56.3739359,74 L59.6250756,74 C60.9358899,74.0005205 61.9989127,75.1195193 62,76.5002078 L62,76.5002078 Z" id="路径" fill="#E3EDF1" fill-rule="nonzero"></path>
                <path d="M87.2029707,80.5002087 C87.2029707,81.1637817 86.9617438,81.8001522 86.532304,82.2691178 C86.1026898,82.7374601 85.5206463,83.0003197 84.9139312,83 L42.2864593,83 C41.0236793,83 40,81.8807977 40,80.5002087 C40,79.1196196 41.0236793,78 42.2864593,78 L84.9140267,78 C86.1782401,78 87.2029707,79.1189928 87.2029707,80.5002087 Z M96,80.5002087 C96,81.8801709 94.9767985,82.9993726 93.7140185,83 L91.8882723,83 C90.6249189,83 89.6012396,81.8807977 89.6012396,80.5002087 C89.6012396,79.1196196 90.6249189,78 91.8882723,78 L93.713923,78 C94.9752695,78 96,79.1189928 96,80.5002087 Z" id="形状" fill="#F6FAFE"></path>
                <path d="M67.8160167,20.0098415 L27.391262,20.0098415 C27.391262,20.0098415 24.2828749,19.6247357 24.0865933,23.672555 C23.8917584,27.7192264 24.0865933,70.1640796 24.0865933,75.6842158 C24.0212947,80.1911776 29.6550113,81.1731685 31.6665362,78.6067534 C34.3880508,75.330963 32.6385884,71.4746444 32.0564952,71.281135 C31.4717978,71.0868603 69.9561134,71.281135 69.9561134,71.281135 L69.9561134,25.2136476 C69.9560169,25.2136476 70.4925843,19.9990325 67.8160167,20.0098415 Z" id="路径" fill="#FFFFFF" fill-rule="nonzero"></path>
                <path d="M29.0007747,81 C27.6073447,81 26.2868268,80.4766367 25.3789948,79.5607748 C24.5142735,78.690639 24.0668676,77.5205092 24.0864458,76.1784759 C24.0864458,74.9442529 24.0766084,71.8344933 24.0636849,67.7120624 C24.019224,53.5878532 23.9352208,27.2968576 24.0864458,24.1472072 C24.2340059,21.0889133 26.0392538,20 27.6789065,20 C27.8527959,20 27.9557986,20.0139666 27.9557986,20.0139666 L68.3139591,20.0108097 C68.9701674,20.0108097 69.516429,20.2506328 69.9487896,20.7248262 C71.3020022,22.2102558 70.9675328,25.6192442 70.9534519,25.7635972 L70.9565381,72.2843887 L70.4516512,72.2824755 C70.4505903,72.2824755 53.350211,72.1961889 42.1227224,72.1961889 C37.0327681,72.1961889 34.6335186,72.2146516 33.5284576,72.2340708 C33.7215395,72.6281 33.8443133,73.0256686 33.8821195,73.1581596 C34.1830263,74.2006772 34.655315,76.8969884 32.5554292,79.4253183 C31.7745181,80.4226837 30.4756038,81 29.0007747,81 Z M27.6789065,20.9959305 C26.9470857,20.9959305 25.2298916,21.3087431 25.0900471,24.1944639 C24.9398831,27.3182857 25.0228253,53.5930189 25.0672862,67.7083316 C25.0803062,71.8320061 25.0900471,74.9442529 25.0900471,76.1861288 C25.074616,77.2632758 25.4209482,78.18526 26.0931662,78.8607249 C26.8155355,79.586986 27.8745924,80.0033999 29.0007747,80.0033999 C30.1629308,80.0033999 31.1727045,79.5664188 31.7697924,78.8025628 C33.1038125,77.1974607 33.2327588,75.5291265 33.1079596,74.4109408 C32.9722622,73.1906845 32.4999736,72.3532649 32.3359215,72.2264179 C32.1588494,72.176674 32.0143756,71.9418253 32.0546894,71.6995151 C32.0863232,71.5036963 32.1054192,71.3850762 32.7149484,71.3131389 L32.7149484,71.3116083 L32.7169737,71.3131389 C33.6672412,71.2006411 36.0467196,71.2006411 42.1206006,71.2006411 C52.2098514,71.2006411 67.041567,71.2699956 69.9487896,71.2839621 L69.9487896,25.7121314 C70.0399297,24.8000003 70.0757106,22.351452 69.2015377,21.3913946 C68.9814953,21.1371759 68.6572885,20.9959305 68.3196493,21.0056879 L27.8927239,21.0056879 C27.8223195,21.0015745 27.765803,20.9959305 27.6789065,20.9959305 Z" id="形状" fill="#A5D2FF" fill-rule="nonzero"></path>
                <path d="M30,29 L65,29 L65,39 L30,39 L30,29 Z M30,42 L63,42 L63,44 L30,44 L30,42 Z M30,47 L47,47 L47,49 L30,49 L30,47 L30,47 Z M30,53 L59,53 L59,55 L30,55 L30,53 Z M30,59 L51,59 L51,61 L30,61 L30,59 Z M81.1532543,67.0589835 C82.0157919,67.9159592 82.2592232,69.0863285 81.6981402,69.6724608 C81.1395345,70.2581193 79.9827833,70.0373127 79.1223418,69.1784418 L70.8450109,60.9411269 C69.9845694,60.0841513 69.7399948,58.9133082 70.3031738,58.3278392 C70.8613032,57.7416121 72.0179591,57.9627977 72.8769715,58.8218582 L81.1532543,67.0589835 L81.1532543,67.0589835 Z" id="形状" fill="#EDF6FF"></path>
                <path d="M81.5484596,71 C80.888947,71 80.1464258,70.6519755 79.562988,70.068049 L70.9583201,61.4813363 C69.9478533,60.4736161 69.6994217,59.1185628 70.3908302,58.3975208 C71.0487579,57.7039414 72.4698104,57.945079 73.4357021,58.9096296 L82.0392804,67.4959471 C83.0497471,68.5017904 83.3019428,69.8564485 82.60994,70.578182 C82.348334,70.8540925 81.9813328,71 81.5484596,71 Z M71.4503296,58.4909728 C71.2508315,58.4909728 70.9685228,58.5355254 70.7647653,58.7514725 C70.2829586,59.2521221 70.5403052,60.3359078 71.3232411,61.1177035 L79.9278099,69.7042186 C80.4171449,70.1923223 81.0229693,70.4839398 81.5484596,70.4839398 C81.7489482,70.4839398 82.0313559,70.4395847 82.2366983,70.22344 C82.7175145,69.7218026 82.4583848,68.6386096 81.675548,67.8586908 L73.0714745,59.2711879 C72.5826348,58.782689 71.9769094,58.4909728 71.4503296,58.4909728 Z" id="形状" fill="#65A4E2" fill-rule="nonzero"></path>
                <path d="M70.2451344,59.020117 C69.5914531,59.2181099 70.4888401,58.6347876 70.1654388,59.447475 C70.0472219,60.1466251 70.329547,60.7299473 70.8508608,61.2658628 L78.9570208,69.6239934 C79.7918109,70.487872 81.4602117,71.3636024 81.8696961,70.8444187 C81.9119515,70.7893432 81.9594152,70.7411396 82,70.6882552 L70.2451344,59.020117 L70.2451344,59.020117 Z" id="路径" fill="#65A4E2" fill-rule="nonzero"></path>
                <path d="M71.6366069,44.3629695 C67.1530242,39.8786494 59.8542122,39.8786494 55.3676173,44.3651343 C50.8784809,48.849266 50.8774454,56.1511693 55.3646052,60.6374659 C59.8522355,65.1208447 67.1520829,65.1208447 71.6366069,60.6374659 C76.121131,56.1511693 76.121131,48.8471953 71.6366069,44.3629695" id="路径" fill="#FFFFFF" fill-rule="nonzero"></path>
                <path d="M64.001721,63.9999379 C60.8166627,64.0098077 57.7597933,62.746181 55.5115008,60.4902489 C53.2535104,58.2430663 51.9890134,55.1856229 52.0000719,52.0000964 C52.0000719,48.7892661 53.2490058,45.7738024 55.5135733,43.5112626 C57.7608364,41.2539564 60.8179247,39.9896124 64.0032282,40.0000643 C67.1869266,39.990215 70.2424304,41.2535748 72.4893977,43.5089076 C77.1702008,48.1898848 77.1702008,55.8081414 72.4893977,60.4902489 C70.242339,62.7464693 67.1861113,64.0102093 64.001721,63.9999379 L64.001721,63.9999379 Z M64.0041703,40.9813232 C61.0562478,40.9813232 58.2874069,42.1272126 56.2085154,44.2057838 C54.1345513,46.2687713 52.9724464,49.0758685 52.9813215,52.0010384 C52.9813215,54.9499042 54.1259499,57.7185694 56.2049356,59.7972349 C58.2843924,61.8755235 61.0527623,63.0185211 64.001721,63.0185211 C66.9506797,63.0185211 69.7184843,61.8754293 71.7963396,59.7972349 C76.0958996,55.4970999 76.0958996,48.5030929 71.7963396,44.2049361 C69.7342571,42.1321538 66.9280467,40.971251 64.0041703,40.9813232 L64.0041703,40.9813232 Z" id="形状" fill="#65A4E2" fill-rule="nonzero"></path>
                <path d="M70,50 L69,50 L69,49 L70,49 L70,50 Z M67,50 L66,50 L66,49 L67,49 L67,50 L67,50 Z M64,50 L63,50 L63,49 L64,49 L64,50 Z M61,50 L60,50 L60,49 L61,49 L61,50 L61,50 Z M58,50 L57,50 L57,49 L58,49 L58,50 Z M67,46 L66,46 L66,45 L67,45 L67,46 Z M64,46 L63,46 L63,45 L64,45 L64,46 Z M61,46 L60,46 L60,45 L61,45 L61,46 Z M72,55 L71,55 L71,54 L72,54 L72,55 Z M69,55 L68,55 L68,54 L69,54 L69,55 L69,55 Z M66,55 L65,55 L65,54 L66,54 L66,55 Z M63,55 L62,55 L62,54 L63,54 L63,55 Z M60,55 L59,55 L59,54 L60,54 L60,55 Z M57,55 L56,55 L56,54 L57,54 L57,55 Z M67,60 L66,60 L66,59 L67,59 L67,60 Z M64,60 L63,60 L63,59 L64,59 L64,60 Z M61,60 L60,60 L60,59 L61,59 L61,60 Z M31.3869247,71.1403287 C31.3869247,71.1403287 35.1217025,78.4955844 28.1657433,80.7973635 C28.1657433,80.7973635 27.7928208,80.7553684 28.1657433,80.7973635 C35.9587323,80.7242798 73.0052892,81 73.0052892,81 C73.0052892,81 75.9497012,79.0804577 76.7605251,76.9938524 C77.5676471,74.9096934 76.1715258,71.9656545 74.9929427,71.1092401 C72.4194073,70.8464651 31.3869247,71.1403287 31.3869247,71.1403287 Z" id="形状" fill="#EDF6FF"></path>
                <path d="M72.8681238,81 L72.7951271,81 C72.5097937,80.9977738 44.1485787,80.7962502 32.2575332,80.7962502 C30.6679975,80.7962502 29.3636989,80.7992508 28.4540842,80.8071879 L28.440102,80.8123179 L28.0316287,80.7676962 L28,80.5239708 L28.0129215,80.2847947 L28.2511011,80.2847947 L28.2780048,80.2883761 L28.2780048,80.2868274 L28.3898624,80.2991201 C30.2139134,79.7094557 31.4213973,78.7150988 31.9804926,77.3449905 C33.0512402,74.7206354 31.3974829,71.5345891 31.3814757,71.5028409 L31.1867856,71.1358977 L31.6005624,71.1325099 C31.7952525,71.1311548 51.1577133,71 63.8383195,71 C70.3942379,71 74.0797542,71.0347488 74.7901466,71.1043431 L74.8548505,71.1111186 L74.90914,71.1478033 C76.2036029,72.0501099 77.577234,74.9866232 76.7477517,77.0380591 C75.9233802,79.0718787 73.0533639,80.8846225 72.9307063,80.9619603 L72.8681238,81 L72.8681238,81 Z M32.2575332,80.2925382 C43.8498417,80.2925382 71.0916124,80.4843824 72.7247339,80.496288 C73.1405358,80.2249765 75.5812501,78.5780395 76.2818068,76.8493123 C77.0320244,74.9877847 75.7075721,72.3769806 74.6746247,71.601086 C73.8364638,71.5366217 70.192412,71.5056479 63.8383195,71.5056479 C52.1662642,71.5056479 34.8309338,71.6177345 32.0002606,71.6347701 C32.4248375,72.5885707 33.3935632,75.2079893 32.446534,77.534802 C31.9644854,78.7197449 31.05786,79.6447978 29.7427613,80.2966035 C30.4583609,80.2935061 31.3064539,80.2925382 32.2575332,80.2925382 Z" id="形状" fill="#A5D2FF" fill-rule="nonzero"></path>
                <path d="M98,34.5797324 C98,36.4683981 96.3830578,38 94.3937465,38 L78.6063472,38 C76.6155363,38 75,36.4683981 75,34.5797324 L75,33.4210799 C75,31.5329558 76.6154426,30 78.6063472,30 L94.3937465,30 C96.3830578,30 98,31.5319629 98,33.4210799 L98,34.5797324 L98,34.5797324 Z" id="路径" fill="#FFFFFF" fill-rule="nonzero"></path>
                <path d="M94.1074447,38 L77.8926516,38 C75.7471593,38 74,36.2620898 74,34.1239612 L74,32.8754552 C74,30.7379102 75.7461004,29 77.8926516,29 L94.1074447,29 C96.2523594,29 98,30.7380075 98,32.8754552 L98,34.1239612 C97.9989411,36.2610199 96.2524557,38 94.1074447,38 L94.1074447,38 Z M77.8926516,29.3796968 C75.9543156,29.3796968 74.3769628,30.9479884 74.3769628,32.8754552 L74.3769628,34.1239612 C74.3769628,36.0515253 75.9544118,37.6198169 77.8926516,37.6198169 L94.1074447,37.6198169 C96.0456844,37.6198169 97.6226521,36.0515253 97.6226521,34.1239612 L97.6226521,32.8754552 C97.6226521,30.9479884 96.0456844,29.3796968 94.1074447,29.3796968 L77.8926516,29.3796968 L77.8926516,29.3796968 Z" id="形状" fill="#A5D2FF" fill-rule="nonzero"></path>
                <path d="M81,42 L82.491047,38 L88,38 L81,42 Z M83.0651141,38 L82,41 L87,38 L83.0651141,38 L83.0651141,38 Z" id="形状" fill="#A5D2FF" fill-rule="nonzero"></path>
                <polygon id="路径" fill="#FFFFFF" fill-rule="nonzero" points="83 38.5 83 36.5 84.8477285 37 86.2278459 37.3016374 86.6869926 37.5320776 88 37.5 85 39"></polygon>
                <path d="M80.1386536,33.0000003 C79.5234828,32.9995754 79.0197735,33.4278941 79.0005828,33.9672049 C78.987323,34.3312878 79.2011534,34.6727936 79.558472,34.8582032 C79.9156223,35.0437423 80.3595697,35.0439053 80.7168967,34.8586285 C81.0744231,34.6735343 81.2886568,34.3322324 81.2758521,33.9681405 C81.2570491,33.4288297 80.7538244,33.0000003 80.1386536,33.0000003 L80.1386536,33.0000003 Z M93.8621867,33.0000003 C93.2470159,32.9995754 92.7427251,33.4278941 92.7235343,33.9672049 C92.7095107,34.3318685 92.92314,34.6742403 93.2808074,34.8603154 C93.6384749,35.0463905 94.0832928,35.0465733 94.4411588,34.8607924 C94.7990248,34.6750114 95.0130195,34.3328155 94.9993852,33.9681405 C94.9805822,33.4288297 94.4766791,33.0000003 93.8621867,33.0000003 L93.8621867,33.0000003 Z M86.7729555,33.0000003 C86.1577847,32.9995754 85.6534939,33.4278941 85.6343032,33.9672049 C85.6202795,34.3318685 85.8339088,34.6742403 86.1915763,34.8603154 C86.5492437,35.0463905 86.9940616,35.0465733 87.3519276,34.8607924 C87.7097936,34.6750114 87.9237884,34.3328155 87.9101541,33.9681405 C87.891351,33.4288297 87.3874479,33.0000003 86.7729555,33.0000003 L86.7729555,33.0000003 Z" id="形状" fill="#65A4E2" fill-rule="nonzero"></path>
                <path d="M42.122,36 L42.122,32.868 L42.146,32.868 L44.288,36 L44.972,36 L44.972,31.716 L44.264,31.716 L44.264,34.806 L44.24,34.806 L42.122,31.716 L41.42,31.716 L41.42,36 L42.122,36 Z M47.594,36.084 C48.158,36.084 48.596,35.94 48.908,35.652 C49.22,35.356 49.376,34.93 49.376,34.374 L49.376,34.374 L49.376,31.716 L48.674,31.716 L48.674,34.386 C48.674,34.75 48.588,35.024 48.416,35.208 C48.24,35.384 47.966,35.472 47.594,35.472 C47.214,35.472 46.94,35.384 46.772,35.208 C46.6,35.032 46.514,34.758 46.514,34.386 L46.514,34.386 L46.514,31.716 L45.812,31.716 L45.812,34.374 C45.812,34.93 45.97,35.358 46.286,35.658 C46.59,35.942 47.026,36.084 47.594,36.084 Z M53.228,36 L53.228,35.4 L50.912,35.4 L50.912,31.716 L50.216,31.716 L50.216,36 L53.228,36 Z M56.78,36 L56.78,35.4 L54.464,35.4 L54.464,31.716 L53.768,31.716 L53.768,36 L56.78,36 Z" id="NULL" fill="#65A4E2" fill-rule="nonzero"></path>
            </g>
        </g>
    </g>
</svg>