<svg width="16" height="16" viewBox="0 0 16 16" fill="none" xmlns="http://www.w3.org/2000/svg">
<path d="M3.57564 7.57583C3.80995 7.34152 4.18985 7.34152 4.42417 7.57583L7.9999 11.1516L11.5756 7.57583C11.81 7.34152 12.1899 7.34152 12.4242 7.57583C12.6585 7.81015 12.6585 8.19005 12.4242 8.42436L8.42417 12.4244C8.18985 12.6587 7.80995 12.6587 7.57564 12.4244L3.57564 8.42436C3.34132 8.19005 3.34132 7.81015 3.57564 7.57583Z" fill="#79879C"/>
<path d="M3.57564 3.57583C3.80995 3.34152 4.18985 3.34152 4.42417 3.57583L7.9999 7.15157L11.5756 3.57583C11.81 3.34152 12.1899 3.34152 12.4242 3.57583C12.6585 3.81015 12.6585 4.19005 12.4242 4.42436L8.42417 8.42436C8.18985 8.65868 7.80995 8.65868 7.57564 8.42436L3.57564 4.42436C3.34132 4.19005 3.34132 3.81015 3.57564 3.57583Z" fill="#79879C"/>
</svg>
