<?xml version="1.0" encoding="UTF-8"?>
<svg width="14px" height="14px" viewBox="0 0 14 14" version="1.1" xmlns="http://www.w3.org/2000/svg" xmlns:xlink="http://www.w3.org/1999/xlink">
    <title>禁用</title>
    <g id="页面-1" stroke="none" stroke-width="1" fill="none" fill-rule="evenodd">
        <g id="建木自动化-首页搜索结果展示" transform="translate(-1089.000000, -357.000000)" fill-rule="nonzero">
            <g id="编组-7" transform="translate(1073.000000, 336.000000)">
                <g id="禁用" transform="translate(16.000000, 21.000000)">
                    <rect id="矩形" fill="#000000" opacity="0" x="0" y="0" width="14" height="14"></rect>
                    <path d="M1.3125,7 C1.38003906,3.92382812 3.92355469,1.48203125 7,1.54 C10.0764453,1.48203125 12.6199609,3.92382812 12.6875,7 C12.6199609,10.0761719 10.0764453,12.5179688 7,12.46 C3.92355469,12.5179688 1.38003906,10.0761719 1.3125,7 Z M2.1875,7 C2.24492188,9.60285156 4.39701172,11.6688086 7,11.62 C7.85285156,11.6219141 8.69175781,11.4028906 9.43482422,10.9841211 C6.98605469,7.79912109 5.09195313,5.33572266 3.75251953,3.59392578 C2.76334933,4.44992809 2.19269724,5.69188279 2.1875,7 Z M10.1546484,10.4860547 C11.1989063,9.62882813 11.8066211,8.35091797 11.8125,7 C11.7550781,4.39714844 9.60298828,2.33119141 7,2.38 C6.10516477,2.37850378 5.2267809,2.6204776 4.45894531,3.08 L10.1546484,10.4860547 Z" id="形状" fill="#082340"></path>
                </g>
            </g>
        </g>
    </g>
</svg>