<svg width="16" height="16" viewBox="0 0 16 16" fill="none" xmlns="http://www.w3.org/2000/svg">
<path fill-rule="evenodd" clip-rule="evenodd" d="M11.9506 1.7424C12.185 1.50809 12.5649 1.50809 12.7992 1.7424L14.2575 3.20073C14.4918 3.43505 14.4918 3.81495 14.2575 4.04926L9.8825 8.42426C9.76998 8.53678 9.61737 8.6 9.45824 8.6H7.9999C7.66853 8.6 7.3999 8.33137 7.3999 8V6.54167C7.3999 6.38254 7.46312 6.22992 7.57564 6.1174L11.9506 1.7424ZM8.5999 6.79019V7.4H9.20971L12.9847 3.625L12.3749 3.01519L8.5999 6.79019Z" fill="#096DD9"/>
<path fill-rule="evenodd" clip-rule="evenodd" d="M1.56689 9.45833C1.56689 8.32155 2.48844 7.39999 3.62523 7.39999H5.66689C5.99827 7.39999 6.26689 7.66862 6.26689 7.99999C6.26689 8.33136 5.99827 8.59999 5.66689 8.59999H3.62523C3.15119 8.59999 2.76689 8.98429 2.76689 9.45833C2.76689 9.93237 3.15119 10.3167 3.62523 10.3167H12.3752C13.512 10.3167 14.4336 11.2382 14.4336 12.375C14.4336 13.5118 13.512 14.4333 12.3752 14.4333H6.25023C5.91886 14.4333 5.65023 14.1647 5.65023 13.8333C5.65023 13.502 5.91886 13.2333 6.25023 13.2333H12.3752C12.8493 13.2333 13.2336 12.849 13.2336 12.375C13.2336 11.901 12.8493 11.5167 12.3752 11.5167H3.62523C2.48844 11.5167 1.56689 10.5951 1.56689 9.45833Z" fill="#096DD9"/>
</svg>
