<?xml version="1.0" encoding="UTF-8"?>
<svg width="16px" height="16px" viewBox="0 0 16 16" version="1.1" xmlns="http://www.w3.org/2000/svg" xmlns:xlink="http://www.w3.org/1999/xlink">
    <title>左箭头</title>
    <g id="页面-1" stroke="none" stroke-width="1" fill="none" fill-rule="evenodd">
        <g id="建木自动化-详情1" transform="translate(-114.000000, -239.000000)" fill="#000000" fill-rule="nonzero">
            <g id="左箭头" transform="translate(114.000000, 239.000000)">
                <rect id="矩形" opacity="0" x="0" y="0.0155945419" width="15.9688109" height="15.9688109"></rect>
                <path d="M12.469753,14.7202662 L5.75034729,7.94069059 L12.2532723,1.24744568 C12.5351886,0.959406668 12.5351886,0.498862347 12.2532723,0.210823334 C12.1223597,0.0760487977 11.9424706,0 11.7545817,0 C11.5666927,0 11.3868036,0.0760487977 11.2558911,0.210823334 L4.21143726,7.46587177 C3.92952091,7.75391078 3.92952091,8.2144551 4.21143726,8.50249412 C4.26776517,8.55837335 4.33439798,8.60279522 4.40764339,8.6332982 L11.4710638,15.7588506 C11.7611332,16.0395204 12.221541,16.0395204 12.5116103,15.7588506 C12.7617603,15.4517018 12.7438091,15.0062883 12.469753,14.7202662 Z" id="路径"></path>
            </g>
        </g>
    </g>
</svg>