<?xml version="1.0" encoding="UTF-8"?>
<svg width="16px" height="16px" viewBox="0 0 16 16" version="1.1" xmlns="http://www.w3.org/2000/svg" xmlns:xlink="http://www.w3.org/1999/xlink">
    <title>loading</title>
    <g id="页面-1" stroke="none" stroke-width="1" fill="none" fill-rule="evenodd">
        <g id="系统设计规范" transform="translate(-881.000000, -5253.000000)" fill-rule="nonzero">
            <g id="loading" transform="translate(881.000000, 5253.000000)">
                <rect id="矩形" fill="#000000" opacity="0" x="0" y="0" width="16" height="16"></rect>
                <path d="M11.5551482,4.01193981 C11.5551482,4.41978342 11.8857707,4.75040599 12.2936143,4.75040599 C12.7014579,4.75040599 13.0320805,4.41978342 13.0320805,4.01193981 C13.0320805,3.60409621 12.7014579,3.27347364 12.2936143,3.27347364 C11.8857707,3.27347364 11.5551482,3.60409621 11.5551482,4.01193981 L11.5551482,4.01193981 Z M13.2,8.00274405 C13.1999602,8.32842058 13.3736838,8.62937511 13.6557213,8.79222485 C13.9377588,8.95507459 14.2852548,8.95507459 14.5672924,8.79222485 C14.8493299,8.62937511 15.0230534,8.32842058 15.0230136,8.00274405 C15.0230534,7.67706753 14.8493299,7.37611299 14.5672924,7.21326325 C14.2852548,7.05041351 13.9377588,7.05041351 13.6557213,7.21326325 C13.3736838,7.37611299 13.1999602,7.67706753 13.2,8.00274405 Z M11.2551531,12.0135479 C11.2551531,12.6061638 11.7355631,13.0865739 12.328179,13.0865739 C12.9207948,13.0865739 13.4012049,12.6061638 13.4012049,12.0135479 C13.4012049,11.6301927 13.1966873,11.2759578 12.864692,11.0842802 C12.5326966,10.8926026 12.1236614,10.8926026 11.791666,11.0842802 C11.4596706,11.2759578 11.2551531,11.6301927 11.2551531,12.0135479 L11.2551531,12.0135479 Z M7.07804755,13.7431531 C7.07800112,14.1872734 7.31490983,14.5976774 7.6995216,14.819751 C8.08413336,15.0418246 8.558008,15.0418246 8.94261976,14.819751 C9.32723152,14.5976774 9.56414024,14.1872734 9.56409381,13.7431531 C9.56414024,13.2990327 9.32723152,12.8886288 8.94261976,12.6665552 C8.558008,12.4444816 8.08413336,12.4444816 7.6995216,12.6665552 C7.31490983,12.8886288 7.07800112,13.2990327 7.07804755,13.7431531 L7.07804755,13.7431531 Z M2.98202764,11.9505055 C2.98202764,12.4451549 3.24591995,12.9022298 3.67429891,13.1495546 C4.10267787,13.3968793 4.63046252,13.3968793 5.05884148,13.1495546 C5.48722044,12.9022298 5.75111275,12.4451549 5.75111275,11.9505055 C5.75111275,11.1858438 5.13123194,10.565963 4.3665702,10.565963 C3.60190846,10.565963 2.98202764,11.1858438 2.98202764,11.9505055 Z M6.8800073,2.46566079 C6.8800073,3.27498483 7.53609406,3.93107159 8.3454181,3.93107159 C9.15474213,3.93107159 9.81082889,3.27498483 9.81082889,2.46566079 C9.81082889,1.94211993 9.53152319,1.45834822 9.07812351,1.19657779 C8.62472382,0.934807356 8.06611237,0.934807356 7.61271269,1.19657779 C7.15931301,1.45834822 6.8800073,1.94211993 6.8800073,2.46566079 Z M2.9011594,4.04650448 C2.9011594,4.57004533 3.18046511,5.05381704 3.63386479,5.31558747 C4.08726447,5.5773579 4.64587592,5.5773579 5.0992756,5.31558747 C5.55267528,5.05381704 5.83198099,4.57004533 5.83198099,4.04650448 C5.83198099,3.23718044 5.17589423,2.58109368 4.3665702,2.58109368 C3.55724616,2.58109368 2.9011594,3.23718044 2.9011594,4.04650448 L2.9011594,4.04650448 Z M1,7.95665785 C1,8.45550119 1.26612974,8.91645144 1.69814074,9.16587311 C2.13015174,9.41529478 2.66241124,9.41529478 3.09442224,9.16587311 C3.52643324,8.91645144 3.79256298,8.45550119 3.79256298,7.95665785 C3.79256298,7.18551288 3.16742647,6.56037636 2.39628149,6.56037636 C1.62513652,6.56037636 1,7.18551288 1,7.95665785 L1,7.95665785 Z" id="形状" fill="#595959"></path>
            </g>
        </g>
    </g>
</svg>