<?xml version="1.0" encoding="UTF-8"?>
<svg width="16px" height="16px" viewBox="0 0 16 16" version="1.1" xmlns="http://www.w3.org/2000/svg" xmlns:xlink="http://www.w3.org/1999/xlink">
    <title>方向_round</title>
    <g id="页面-1" stroke="none" stroke-width="1" fill="none" fill-rule="evenodd">
        <g id="系统设计规范" transform="translate(-402.000000, -5253.000000)" fill-rule="nonzero">
            <g id="方向_round备份-2" transform="translate(402.000000, 5253.000000)">
                <rect id="矩形" fill="#000000" opacity="0" x="0" y="0" width="16" height="16"></rect>
                <path d="M8,15 C4.14001562,15 1,11.8599844 1,8 C1,4.14001563 4.14001562,1 8,1 C11.8599844,1 15,4.14001563 15,8 C15,11.8599844 11.8599844,15 8,15 Z M8,2 C4.6915,2 2,4.6915 2,8 C2,11.3085 4.6915,14 8,14 C11.3085,14 14,11.3085 14,8 C14,4.6915 11.3085,2 8,2 Z M10.9148343,8.40961596 L7.28673117,10.9492882 C7.06050652,11.1076454 6.74874129,11.052628 6.59038404,10.8264034 C6.5315548,10.7423616 6.5,10.6422583 6.5,10.5396722 L6.5,5.46032778 C6.5,5.18418541 6.72385763,4.96032778 7,4.96032778 C7.10258605,4.96032778 7.2026894,4.99188258 7.28673117,5.05071182 L10.9148343,7.59038404 C11.141059,7.74874129 11.1960764,8.06050652 11.0377191,8.28673117 C11.0042447,8.33455183 10.962655,8.3761415 10.9148343,8.40961596 Z" id="形状" fill="#595959"></path>
            </g>
        </g>
    </g>
</svg>