<?xml version="1.0" encoding="UTF-8"?>
<svg width="24px" height="24px" viewBox="0 0 24 24" version="1.1" xmlns="http://www.w3.org/2000/svg" xmlns:xlink="http://www.w3.org/1999/xlink">
    <title>编组 8</title>
    <g id="页面-1" stroke="none" stroke-width="1" fill="none" fill-rule="evenodd">
        <g id="建木自动化-详情1" transform="translate(-1659.000000, -333.000000)" fill-rule="nonzero">
            <g id="编组-8" transform="translate(1659.000000, 333.000000)">
                <rect id="矩形" fill="#000000" opacity="0" x="0" y="0" width="24" height="24"></rect>
                <path d="M12,24 C5.372583,24 0,18.627417 0,12 C0,5.372583 5.372583,0 12,0 C18.627417,0 24,5.372583 24,12 C24,15.1825979 22.7357179,18.2348448 20.4852814,20.4852814 C18.2348448,22.7357179 15.1825979,24 12,24 Z M12,1.84615385 C6.39218562,1.84615385 1.84615385,6.39218562 1.84615385,12 C1.84615385,17.6078144 6.39218562,22.1538462 12,22.1538462 C17.6078144,22.1538462 22.1538462,17.6078144 22.1538462,12 C22.1538462,9.30703256 21.084069,6.72436206 19.1798535,4.82014653 C17.2756379,2.91593099 14.6929674,1.84615385 12,1.84615385 Z M14.7692308,16.6153846 L9.23076923,16.6153846 C8.21116662,16.6153846 7.38461538,15.7888334 7.38461538,14.7692308 L7.38461538,9.23076923 C7.38461538,8.21116662 8.21116662,7.38461538 9.23076923,7.38461538 L14.7692308,7.38461538 C15.7888334,7.38461538 16.6153846,8.21116662 16.6153846,9.23076923 L16.6153846,14.7692308 C16.6153846,15.7888334 15.7888334,16.6153846 14.7692308,16.6153846 Z" id="形状" fill="#FFFFFF"></path>
            </g>
        </g>
    </g>
</svg>