<?xml version="1.0" encoding="UTF-8"?>
<svg width="16px" height="16px" viewBox="0 0 16 16" version="1.1" xmlns="http://www.w3.org/2000/svg" xmlns:xlink="http://www.w3.org/1999/xlink">
    <title>terminate</title>
    <g id="页面-1" stroke="none" stroke-width="1" fill="none" fill-rule="evenodd">
        <g id="系统设计规范" transform="translate(-982.000000, -5253.000000)" fill-rule="nonzero">
            <g id="terminate" transform="translate(982.000000, 5253.000000)">
                <rect id="矩形" fill="#000000" opacity="0" x="0" y="0" width="16" height="16"></rect>
                <path d="M8,15 C4.14001562,15 1,11.8599844 1,8 C1,4.14001563 4.14001562,1 8,1 C11.8599844,1 15,4.14001563 15,8 C15,11.8599844 11.8599844,15 8,15 Z M8,2 C4.6915,2 2,4.6915 2,8 C2,11.3085 4.6915,14 8,14 C11.3085,14 14,11.3085 14,8 C14,4.6915 11.3085,2 8,2 Z M12.9327381,3.64034995 C13.1670527,3.87466453 13.1670527,4.25456352 12.9327381,4.48887809 L4.58887809,12.8327381 C4.35456352,13.0670527 3.97466453,13.0670527 3.74034995,12.8327381 C3.50603538,12.5984235 3.50603538,12.2185245 3.74034995,11.98421 L12.08421,3.64034995 C12.3185245,3.40603538 12.6984235,3.40603538 12.9327381,3.64034995 Z" id="形状" fill="#595959"></path>
            </g>
        </g>
    </g>
</svg>