<?xml version="1.0" encoding="UTF-8"?>
<svg width="24px" height="24px" viewBox="0 0 24 24" version="1.1" xmlns="http://www.w3.org/2000/svg" xmlns:xlink="http://www.w3.org/1999/xlink">
    <title>login_icon_user_default</title>
    <g id="页面-1" stroke="none" stroke-width="1" fill="none" fill-rule="evenodd">
        <g id="系统设计规范" transform="translate(-1029.000000, -5358.000000)" fill-rule="nonzero">
            <g id="login_icon_user_default" transform="translate(1029.000000, 5358.000000)">
                <rect id="矩形" fill="#000000" opacity="0" x="0" y="0" width="24" height="24"></rect>
                <path d="M19.4784,8.2896 C19.4784,4.1568 16.1712,0.8496 12.0384,0.8496 C7.9056,0.8496 4.5984,4.1568 4.5984,8.2896 C4.5984,11.0976 6.0864,13.4976 8.4,14.736 C5.2656,15.9792 2.8656,18.7056 2.208,22.176 C2.1264,22.5888 2.3712,23.0832 2.8704,23.1696 L3.0336,23.1696 C3.4464,23.1696 3.7776,22.92 3.8592,22.5072 C4.6032,18.624 7.992,15.8112 11.9568,15.7296 L12.12,15.7296 C16.1712,15.7296 19.4784,12.4224 19.4784,8.2896 Z M6.2544,8.2896 C6.2544,5.0688 8.8176,2.5056 12.0384,2.5056 C15.2592,2.5056 17.8224,5.0688 17.8224,8.2896 C17.8224,11.4288 15.2592,13.992 12.12,14.0736 L11.8704,14.0736 C8.736,13.992 6.2544,11.4336 6.2544,8.2896 L6.2544,8.2896 Z M17.496,15.8112 C17.0832,15.5616 16.5888,15.648 16.3392,16.0608 C16.0896,16.4736 16.176,16.968 16.5888,17.2176 C18.4896,18.5376 19.8096,20.3568 20.2272,22.5072 C20.3088,22.92 20.64,23.1696 21.0528,23.1696 L21.216,23.1696 C21.6288,23.088 21.96,22.6752 21.8784,22.176 C21.3792,19.6128 19.8096,17.3808 17.496,15.8112 L17.496,15.8112 Z" id="形状" fill="#999999"></path>
            </g>
        </g>
    </g>
</svg>