<?xml version="1.0" encoding="UTF-8"?>
<svg width="24px" height="24px" viewBox="0 0 24 24" version="1.1" xmlns="http://www.w3.org/2000/svg" xmlns:xlink="http://www.w3.org/1999/xlink">
    <title>密码可见备份</title>
    <g id="页面-1" stroke="none" stroke-width="1" fill="none" fill-rule="evenodd">
        <g id="系统设计规范" transform="translate(-1155.000000, -5358.000000)" fill-rule="nonzero">
            <g id="密码可见备份" transform="translate(1155.000000, 5358.000000)">
                <rect id="矩形" fill="#000000" opacity="0" x="0" y="0" width="24" height="24"></rect>
                <path d="M11.985202,9.11600334 C10.6030671,9.11600334 9.54612773,10.1729427 9.54612773,11.5550776 C9.54612773,12.9372125 10.6030671,13.9941519 11.985202,13.9941519 C13.3673369,13.9941519 14.4242763,12.9372365 14.4242763,11.5550776 C14.4242763,10.1729188 13.367337,9.11600334 11.985202,9.11600334 Z M11.985202,15.6202015 C9.70873748,15.6202015 7.92007819,13.8315422 7.92007819,11.5550777 C7.92007819,9.27861312 9.70873748,7.48995382 11.985202,7.48995382 C14.2616666,7.48995382 16.0503259,9.27861312 16.0503259,11.5550777 C16.0503259,13.8315422 14.2616666,15.6202015 11.985202,15.6202015 Z M11.985202,5.4573799 C7.92007819,5.4573799 4.42406449,7.97775907 3.04192957,11.5550777 C4.42406449,15.1323962 7.92007819,17.6527754 11.985202,17.6527754 C16.0503259,17.6527754 19.5463396,15.1323963 20.9284745,11.5550777 C19.5463396,7.97775907 16.0503259,5.4573799 11.985202,5.4573799 Z" id="形状" fill="#999999"></path>
            </g>
        </g>
    </g>
</svg>