<?xml version="1.0" encoding="UTF-8"?>
<svg width="64px" height="64px" viewBox="0 0 64 64" version="1.1" xmlns="http://www.w3.org/2000/svg" xmlns:xlink="http://www.w3.org/1999/xlink">
    <title>编组 3</title>
    <g id="页面-1" stroke="none" stroke-width="1" fill="none" fill-rule="evenodd">
        <g id="建木自动化-密钥管理-详情" transform="translate(-604.000000, -448.000000)">
            <g id="编组-3备份-8" transform="translate(604.000000, 448.000000)">
                <circle id="椭圆形备份-7" fill="#F6F6F6" cx="32" cy="32" r="32"></circle>
                <g id="钥匙备份" opacity="0.498296693" transform="translate(11.000000, 11.000000)" fill-rule="nonzero">
                    <rect id="矩形" fill="#000000" opacity="0" x="0" y="0" width="43" height="43"></rect>
                    <path d="M27.5277396,5.04331408 C21.7152764,5.04331408 16.9791953,9.7793952 16.9791953,15.5918584 C16.9791953,16.2855268 17.0509541,16.9791953 17.1944717,17.6728637 L17.2901501,18.1751754 L4.89979647,30.565529 L4.89979647,37.9806055 L13.5586923,37.9806055 L13.5586923,33.6750772 L17.6011049,33.6750772 L17.6011049,29.6326646 L21.5956784,29.6326646 L21.5956784,25.5663323 L22.9590957,25.5663323 L22.9590957,25.1836187 L24.202915,25.5902519 C25.2553775,25.9490459 26.3795987,26.1164831 27.4799004,26.1164831 C33.2923636,26.1164831 38.0284447,21.380402 38.0284447,15.5679388 C38.0762839,9.7793952 33.3402028,5.04331408 27.5277396,5.04331408 L27.5277396,5.04331408 Z M31.4744739,13.8696471 C31.4744739,15.0895468 30.4698506,16.09417 29.2499509,16.09417 C28.0300512,16.09417 27.025428,15.0895468 27.025428,13.8696471 C27.025428,12.6497474 28.0300512,11.6451241 29.2499509,11.6451241 C30.4698506,11.6451241 31.4744739,12.6258278 31.4744739,13.8696471 Z" id="形状" fill="#7B8C9C"></path>
                </g>
            </g>
        </g>
    </g>
</svg>