<?xml version="1.0" encoding="UTF-8"?>
<svg width="64px" height="64px" viewBox="0 0 64 64" version="1.1" xmlns="http://www.w3.org/2000/svg" xmlns:xlink="http://www.w3.org/1999/xlink">
    <title>编组 3</title>
    <g id="页面-1" stroke="none" stroke-width="1" fill="none" fill-rule="evenodd">
        <g id="建木自动化-密钥管理-详情" transform="translate(-190.000000, -170.000000)">
            <g id="编组-3" transform="translate(190.000000, 170.000000)">
                <circle id="椭圆形备份-7" fill="#EFF4F9" cx="32" cy="32" r="32"></circle>
                <g id="存储空间备份" opacity="0.503633721" transform="translate(8.000000, 8.000000)" fill-rule="nonzero">
                    <rect id="矩形" fill="#000000" opacity="0" x="0" y="0" width="48" height="48"></rect>
                    <path d="M8.15542861,15.1251865 L22.8571429,23.5831327 L22.8571429,42 L8.576,33.781473 C8.21993935,33.5766266 8,33.1953547 8,32.7823579 L8,15.7007136 C8.00070336,15.4984493 8.05431266,15.2999427 8.15542861,15.1251865 Z M40,15.7007136 L40,32.7823579 C40,33.1953547 39.7800607,33.5766266 39.424,33.781473 L25.1428571,42 L25.1428571,23.5831327 L39.8445714,15.1228844 C39.9460757,15.2983157 39.9996989,15.497668 40,15.7007136 Z M24.5668571,6.15156791 L37.696,13.7070877 L24,21.5872048 L10.304,13.7070877 L23.4331429,6.15156791 C23.7844133,5.94947736 24.2155867,5.94947736 24.5668571,6.15156791 L24.5668571,6.15156791 Z" id="形状" fill="#7B8C9C"></path>
                </g>
            </g>
        </g>
    </g>
</svg>