<?xml version="1.0" encoding="UTF-8"?>
<svg width="64px" height="65px" viewBox="0 0 64 65" version="1.1" xmlns="http://www.w3.org/2000/svg" xmlns:xlink="http://www.w3.org/1999/xlink">
    <title>编组 4</title>
    <g id="页面-1" stroke="none" stroke-width="1" fill="none" fill-rule="evenodd">
        <g id="建木自动化-密钥管理-详情" transform="translate(-186.000000, -169.000000)">
            <g id="编组-4" transform="translate(186.000000, 170.000000)">
                <circle id="椭圆形" fill="#EFF4F9" cx="32" cy="32" r="32"></circle>
                <g id="钥匙" opacity="0.498296693" transform="translate(8.000000, 8.000000)" fill-rule="nonzero">
                    <rect id="矩形" fill="#000000" opacity="0" x="0" y="0" width="48" height="48"></rect>
                    <path d="M30.7286396,5.62974595 C24.2403086,5.62974595 18.9535203,10.9165342 18.9535203,17.4048652 C18.9535203,18.1791928 19.0336232,18.9535203 19.1938289,19.7278479 L19.3006327,20.2885679 L5.46954024,34.1196603 L5.46954024,42.396955 L15.1352844,42.396955 L15.1352844,37.5907839 L19.647745,37.5907839 L19.647745,33.0783232 L24.1068038,33.0783232 L24.1068038,28.5391616 L25.628758,28.5391616 L25.628758,28.1119464 L27.0172074,28.5658626 C28.1920493,28.9663768 29.4469939,29.1532835 30.6752377,29.1532835 C37.1635687,29.1532835 42.4503569,23.8664952 42.4503569,17.3781642 C42.5037588,10.9165342 37.2169706,5.62974595 30.7286396,5.62974595 L30.7286396,5.62974595 Z M35.1342964,15.4823967 C35.1342964,16.8441452 34.0128565,17.9655852 32.651108,17.9655852 C31.2893595,17.9655852 30.1679196,16.8441452 30.1679196,15.4823967 C30.1679196,14.1206483 31.2893595,12.9992083 32.651108,12.9992083 C34.0128565,12.9992083 35.1342964,14.0939473 35.1342964,15.4823967 Z" id="形状" fill="#7B8C9C"></path>
                </g>
            </g>
        </g>
    </g>
</svg>