<?xml version="1.0" encoding="UTF-8"?>
<svg width="20px" height="20px" viewBox="0 0 20 20" version="1.1" xmlns="http://www.w3.org/2000/svg" xmlns:xlink="http://www.w3.org/1999/xlink">
    <title>存储空间备份</title>
    <g id="页面-1" stroke="none" stroke-width="1" fill="none" fill-rule="evenodd" opacity="0.503633721">
        <g id="建木自动化-密钥管理-详情" transform="translate(-160.000000, -173.000000)" fill-rule="nonzero">
            <g id="存储空间备份" transform="translate(160.000000, 173.000000)">
                <rect id="矩形" fill="#000000" opacity="0" x="0" y="0" width="20" height="20"></rect>
                <path d="M3.06800002,6.05563844 L9.5,9.81472566 L9.5,18 L3.252,14.3473213 C3.09622346,14.2562785 3,14.0868243 3,13.9032702 L3,6.31142827 C3.00030772,6.22153301 3.02376179,6.13330786 3.06800002,6.05563844 Z M17,6.31142827 L17,13.9032702 C17,14.0868243 16.9037765,14.2562785 16.748,14.3473213 L10.5,18 L10.5,9.81472566 L16.932,6.05461527 C16.9764081,6.13258475 16.9998683,6.22118579 17,6.31142827 Z M10.248,2.06736351 L15.992,5.42537231 L10,8.92764656 L4.008,5.42537231 L9.75200001,2.06736351 C9.90568081,1.9775455 10.0943192,1.9775455 10.248,2.06736351 L10.248,2.06736351 Z" id="形状" fill="#6A7A8B"></path>
            </g>
        </g>
    </g>
</svg>