<?xml version="1.0" encoding="UTF-8"?>
<svg width="24px" height="24px" viewBox="0 0 24 24" version="1.1" xmlns="http://www.w3.org/2000/svg" xmlns:xlink="http://www.w3.org/1999/xlink">
    <title>放大</title>
    <g id="页面-1" stroke="none" stroke-width="1" fill="none" fill-rule="evenodd">
        <g id="工作流程图备份" transform="translate(-1571.000000, -28.000000)">
            <g id="放大01" transform="translate(1571.000000, 28.000000)">
                <rect id="矩形" fill="#000000" fill-rule="nonzero" opacity="0" x="0" y="0" width="24" height="24"></rect>
                <g id="编组-9" transform="translate(2.000000, 2.000000)" fill="#096DD9">
                    <path d="M4,0 L16,0 C18.209139,-4.05812251e-16 20,1.790861 20,4 L20,16 C20,18.209139 18.209139,20 16,20 L4,20 C1.790861,20 2.705415e-16,18.209139 0,16 L0,4 C-2.705415e-16,1.790861 1.790861,4.05812251e-16 4,0 Z M4.6,1 L15.4,1 C17.3882251,1 19,2.6117749 19,4.6 L19,15.4 C19,17.3882251 17.3882251,19 15.4,19 L4.6,19 C2.6117749,19 1,17.3882251 1,15.4 L1,4.6 C1,2.6117749 2.6117749,1 4.6,1 Z M7.54513889,15.8923611 L5.82638889,15.8923611 C4.88107639,15.8923611 4.10763889,15.1189236 4.10763889,14.1736111 L4.10763889,12.4548611 C4.10763889,12.1397569 4.36545139,11.8819444 4.68055556,11.8819444 C4.99565972,11.8819444 5.25347222,12.1397569 5.25347222,12.4548611 L5.25347222,14.1736111 C5.25347222,14.4887153 5.51128472,14.7465278 5.82638889,14.7465278 L7.54513889,14.7465278 C7.86024306,14.7465278 8.11805556,15.0043403 8.11805556,15.3194444 C8.11805556,15.6345486 7.86024306,15.8923611 7.54513889,15.8923611 Z M14.1736111,15.8923611 L12.4548611,15.8923611 C12.1397569,15.8923611 11.8819444,15.6345486 11.8819444,15.3194444 C11.8819444,15.0043403 12.1397569,14.7465278 12.4548611,14.7465278 L14.1736111,14.7465278 C14.4887153,14.7465278 14.7465278,14.4887153 14.7465278,14.1736111 L14.7465278,12.4548611 C14.7465278,12.1397569 15.0043403,11.8819444 15.3194444,11.8819444 C15.6345486,11.8819444 15.8923611,12.1397569 15.8923611,12.4548611 L15.8923611,14.1736111 C15.8923611,15.1189236 15.1189236,15.8923611 14.1736111,15.8923611 Z M15.3194444,8.11805556 C15.0043403,8.11805556 14.7465278,7.86024306 14.7465278,7.54513889 L14.7465278,5.82638889 C14.7465278,5.51128472 14.4887153,5.25347222 14.1736111,5.25347222 L12.4548611,5.25347222 C12.1397569,5.25347222 11.8819444,4.99565972 11.8819444,4.68055556 C11.8819444,4.36545139 12.1397569,4.10763889 12.4548611,4.10763889 L14.1736111,4.10763889 C15.1189236,4.10763889 15.8923611,4.88107639 15.8923611,5.82638889 L15.8923611,7.54513889 C15.8923611,7.86024306 15.6345486,8.11805556 15.3194444,8.11805556 Z M4.68055556,8.11805556 C4.36545139,8.11805556 4.10763889,7.86024306 4.10763889,7.54513889 L4.10763889,5.82638889 C4.10763889,4.88107639 4.88107639,4.10763889 5.82638889,4.10763889 L7.54513889,4.10763889 C7.86024306,4.10763889 8.11805556,4.36545139 8.11805556,4.68055556 C8.11805556,4.99565972 7.86024306,5.25347222 7.54513889,5.25347222 L5.82638889,5.25347222 C5.51128472,5.25347222 5.25347222,5.51128472 5.25347222,5.82638889 L5.25347222,7.54513889 C5.25347222,7.86024306 4.99565972,8.11805556 4.68055556,8.11805556 Z" id="矩形-3"></path>
                </g>
            </g>
        </g>
    </g>
</svg>