<?xml version="1.0" encoding="UTF-8"?>
<svg width="24px" height="24px" viewBox="0 0 24 24" version="1.1" xmlns="http://www.w3.org/2000/svg" xmlns:xlink="http://www.w3.org/1999/xlink">
    <title>分组</title>
    <g id="页面-1" stroke="none" stroke-width="1" fill="none" fill-rule="evenodd">
        <g id="工作流程图备份" transform="translate(-1723.000000, -28.000000)">
            <g id="分组" transform="translate(1723.000000, 28.000000)">
                <rect id="矩形" fill="#000000" opacity="0" x="0" y="0" width="24" height="24"></rect>
                <path d="M19.193645,5.05368589 C23.0299883,9.02662631 22.9192545,15.3573016 18.9463141,19.193645 C14.9733737,23.0299883 8.64269836,22.9192545 4.80635501,18.9463141 C0.970011654,14.9733737 1.08074546,8.64269836 5.05368589,4.80635501 C9.02662631,0.970011654 15.3573016,1.08074546 19.193645,5.05368589 Z M15.8461775,11 L8.6577949,11 C8.29450481,11 8,11.2945048 8,11.6577949 C8,12.021085 8.29450481,12.3155898 8.6577949,12.3155898 L8.6577949,12.3155898 L15.8461775,12.3155898 C16.2094676,12.3155898 16.5039724,12.021085 16.5039724,11.6577949 C16.5039724,11.2945048 16.2094676,11 15.8461775,11 L15.8461775,11 Z" id="形状" fill="#CDD1E3" fill-rule="nonzero"></path>
            </g>
        </g>
    </g>
</svg>