<?xml version="1.0" encoding="UTF-8"?>
<svg width="24px" height="24px" viewBox="0 0 24 24" version="1.1" xmlns="http://www.w3.org/2000/svg" xmlns:xlink="http://www.w3.org/1999/xlink">
    <title>放大01备份 4</title>
    <g id="页面-1" stroke="none" stroke-width="1" fill="none" fill-rule="evenodd">
        <g id="建木自动化-详情4备份-2" transform="translate(-1277.000000, -434.000000)" fill-rule="nonzero">
            <g id="放大01备份-4" transform="translate(1277.000000, 434.000000)">
                <rect id="矩形" fill="#000000" opacity="0" x="0" y="0" width="24" height="24"></rect>
                <path d="M6.99497978,21.6589475 L4.79538463,21.6589475 C3.58560729,21.6589475 2.59578947,20.6691297 2.59578947,19.4593523 L2.59578947,17.2597572 C2.59578947,16.8564981 2.92572875,16.5265588 3.32898786,16.5265588 C3.73224697,16.5265588 4.06218624,16.8564981 4.06218624,17.2597572 L4.06218624,19.4593523 C4.06218624,19.8626114 4.39212552,20.1925507 4.79538463,20.1925507 L6.99497978,20.1925507 C7.39823889,20.1925507 7.72817817,20.52249 7.72817817,20.9257491 C7.72817817,21.3290082 7.39823889,21.6589475 6.99497978,21.6589475 Z M19.4593523,21.6589475 L17.2597572,21.6589475 C16.8564981,21.6589475 16.5265588,21.3290082 16.5265588,20.9257491 C16.5265588,20.52249 16.8564981,20.1925507 17.2597572,20.1925507 L19.4593523,20.1925507 C19.8626114,20.1925507 20.1925507,19.8626114 20.1925507,19.4593523 L20.1925507,17.2597572 C20.1925507,16.8564981 20.52249,16.5265588 20.9257491,16.5265588 C21.3290082,16.5265588 21.6589475,16.8564981 21.6589475,17.2597572 L21.6589475,19.4593523 C21.6589475,20.6691297 20.6691297,21.6589475 19.4593523,21.6589475 Z M20.9257491,7.72817817 C20.52249,7.72817817 20.1925507,7.39823889 20.1925507,6.99497978 L20.1925507,4.79538463 C20.1925507,4.39212552 19.8626114,4.06218624 19.4593523,4.06218624 L17.2597572,4.06218624 C16.8564981,4.06218624 16.5265588,3.73224697 16.5265588,3.32898786 C16.5265588,2.92572875 16.8564981,2.59578947 17.2597572,2.59578947 L19.4593523,2.59578947 C20.6691297,2.59578947 21.6589475,3.58560729 21.6589475,4.79538463 L21.6589475,6.99497978 C21.6589475,7.39823889 21.3290082,7.72817817 20.9257491,7.72817817 Z M3.32898786,7.72817817 C2.92572875,7.72817817 2.59578947,7.39823889 2.59578947,6.99497978 L2.59578947,4.79538463 C2.59578947,3.58560729 3.58560729,2.59578947 4.79538463,2.59578947 L6.99497978,2.59578947 C7.39823889,2.59578947 7.72817817,2.92572875 7.72817817,3.32898786 C7.72817817,3.73224697 7.39823889,4.06218624 6.99497978,4.06218624 L4.79538463,4.06218624 C4.39212552,4.06218624 4.06218624,4.39212552 4.06218624,4.79538463 L4.06218624,6.99497978 C4.06218624,7.39823889 3.73224697,7.72817817 3.32898786,7.72817817 Z M15.7933604,17.9929556 L8.46137655,17.9929556 C7.25159922,17.9929556 6.2617814,17.0031377 6.2617814,15.7933604 L6.2617814,8.46137655 C6.2617814,7.25159922 7.25159922,6.2617814 8.46137655,6.2617814 L15.7933604,6.2617814 C17.0031377,6.2617814 17.9929556,7.25159922 17.9929556,8.46137655 L17.9929556,15.7933604 C17.9929556,17.0031377 17.0031377,17.9929556 15.7933604,17.9929556 Z M8.46137655,7.72817817 C8.05811744,7.72817817 7.72817817,8.05811744 7.72817817,8.46137655 L7.72817817,15.7933604 C7.72817817,16.1966195 8.05811744,16.5265588 8.46137655,16.5265588 L15.7933604,16.5265588 C16.1966195,16.5265588 16.5265588,16.1966195 16.5265588,15.7933604 L16.5265588,8.46137655 C16.5265588,8.05811744 16.1966195,7.72817817 15.7933604,7.72817817 L8.46137655,7.72817817 Z" id="形状" stroke="#FFFFFF" stroke-width="0.2" fill="#096DD9"></path>
            </g>
        </g>
    </g>
</svg>