<?xml version="1.0" encoding="UTF-8"?>
<svg width="16px" height="16px" viewBox="0 0 16 16" version="1.1" xmlns="http://www.w3.org/2000/svg" xmlns:xlink="http://www.w3.org/1999/xlink">
    <title>workflow</title>
    <g id="页面-1" stroke="none" stroke-width="1" fill="none" fill-rule="evenodd">
        <g id="系统设计规范" transform="translate(-667.000000, -5387.000000)" fill-rule="nonzero">
            <g id="workflow" transform="translate(667.000000, 5387.000000)">
                <rect id="矩形" fill="#000000" opacity="0" x="0" y="0" width="16" height="16"></rect>
                <path d="M12.5,5 C11.1215,5 10,6.1215 10,7.5 C10,7.7735 10.055,8.0325 10.137,8.2795 C8.952,8.704 7.737,8.61 6.4335,7.982 C5.2315,7.403 4.454,6.709 4.1125,5.9155 C5.194,5.64 6,4.666 6,3.5 C6,2.1215 4.8785,1 3.5,1 C2.1215,1 1,2.1215 1,3.5 C1.00173602,4.68736256 1.83697522,5.71032177 3,5.9495 L3,10.0505 C1.83697522,10.2896782 1.00173602,11.3126374 1,12.5 C1,13.8785 2.1215,15 3.5,15 C4.8785,15 6,13.8785 6,12.5 C5.99826398,11.3126374 5.16302478,10.2896782 4,10.0505 L4,7.5025 C4.4985,8.0195 5.166,8.481 5.9995,8.882 C6.909,9.3205 7.8065,9.5395 8.6845,9.5395 C9.3495,9.5395 10.002,9.406 10.6415,9.155 C11.0995,9.6695 11.759,10 12.5,10 C13.8785,10 15,8.8785 15,7.5 C15,6.1215 13.8785,5 12.5,5 Z M2,3.5 C2,2.673 2.673,2 3.5,2 C4.327,2 5,2.673 5,3.5 C5,4.327 4.327,5 3.5,5 C2.673,5 2,4.327 2,3.5 Z M5,12.5 C5,13.327 4.327,14 3.5,14 C2.673,14 2,13.327 2,12.5 C2,11.673 2.673,11 3.5,11 C4.327,11 5,11.673 5,12.5 Z M12.5,9 C11.673,9 11,8.327 11,7.5 C11,6.673 11.673,6 12.5,6 C13.327,6 14,6.673 14,7.5 C14,8.327 13.327,9 12.5,9 Z" id="形状" fill="#595959"></path>
            </g>
        </g>
    </g>
</svg>