<?xml version="1.0" encoding="UTF-8"?>
<svg width="24px" height="24px" viewBox="0 0 24 24" version="1.1" xmlns="http://www.w3.org/2000/svg" xmlns:xlink="http://www.w3.org/1999/xlink">
    <title>跳过</title>
    <g id="页面-1" stroke="none" stroke-width="1" fill="none" fill-rule="evenodd">
        <g id="建木自动化-详情4备份-2" transform="translate(-874.000000, -600.000000)" fill-rule="nonzero">
            <g id="编组-13" transform="translate(811.000000, 585.000000)">
                <g id="跳过" transform="translate(63.000000, 15.000000)">
                    <rect id="矩形" fill="#000000" opacity="0" x="0" y="0" width="24" height="24"></rect>
                    <path d="M18,18 C17.5968443,17.9983073 17.2341349,17.7546871 17.0800827,17.3821212 C16.9260305,17.0095554 17.0107692,16.5809199 17.295,16.295 L21.585,12 L17.295,7.70500001 C16.9552233,7.30823972 16.9780678,6.71680588 17.3474368,6.34743685 C17.7168059,5.97806783 18.3082397,5.95522327 18.705,6.29500001 L23.705,11.295 C24.0927236,11.6850375 24.0927236,12.3149625 23.705,12.705 L18.705,17.705 C18.5183249,17.8927939 18.2647884,17.9988836 18,18 Z" id="路径" fill="#526579"></path>
                    <path d="M3,12 C3,12.8284271 3.67157288,13.5 4.5,13.5 C5.32842712,13.5 6,12.8284271 6,12 C6,11.1715729 5.32842712,10.5 4.5,10.5 C3.67157288,10.5 3,11.1715729 3,12 Z" id="路径" fill="#526579"></path>
                    <path d="M7.5,12 C7.5,12.8284271 8.17157288,13.5 9,13.5 C9.82842712,13.5 10.5,12.8284271 10.5,12 C10.5,11.1715729 9.82842712,10.5 9,10.5 C8.17157288,10.5 7.5,11.1715729 7.5,12 Z" id="路径" fill="#526579"></path>
                    <path d="M15,12 C15,12.8284271 15.6715729,13.5 16.5,13.5 C17.3284271,13.5 18,12.8284271 18,12 C18,11.1715729 17.3284271,10.5 16.5,10.5 C15.6715729,10.5 15,11.1715729 15,12 Z" id="路径" fill="#526579"></path>
                </g>
            </g>
        </g>
    </g>
</svg>