<?xml version="1.0" encoding="UTF-8"?>
<svg width="24px" height="24px" viewBox="0 0 24 24" version="1.1" xmlns="http://www.w3.org/2000/svg" xmlns:xlink="http://www.w3.org/1999/xlink">
    <title>日志服务</title>
    <g id="页面-1" stroke="none" stroke-width="1" fill="none" fill-rule="evenodd">
        <g id="建木自动化-详情1" transform="translate(-1160.000000, -488.000000)" fill-rule="nonzero">
            <g id="日志服务" transform="translate(1160.000000, 488.000000)">
                <rect id="矩形" fill="#000000" opacity="0" x="0" y="0" width="24" height="24"></rect>
                <path d="M7.23684212,7.23684212 C7.65789476,7.23684212 8.0263158,6.86842107 8.0263158,6.44736843 L8.0263158,3.28947369 C8.0263158,2.86842105 7.65789476,2.50000001 7.23684212,2.50000001 C6.81578948,2.50000001 6.44736843,2.86842105 6.44736843,3.28947369 L6.44736843,6.44736843 C6.44736843,6.86842107 6.81578948,7.23684212 7.23684212,7.23684212 Z M14.0789474,7.23684212 C14.5,7.23684212 14.8684211,6.86842107 14.8684211,6.44736843 L14.8684211,3.28947369 C14.8684211,2.86842105 14.5,2.50000001 14.0789474,2.50000001 C13.6578947,2.50000001 13.2894737,2.86842105 13.2894737,3.28947369 L13.2894737,6.44736843 C13.2894737,6.86842107 13.6578947,7.23684212 14.0789474,7.23684212 Z M11.4473684,17.7631579 C11.4473684,15.1842105 13.0263158,12.9210526 15.2368421,11.9736842 L5.39473684,11.9736842 C4.9736842,11.9736842 4.60526316,11.6052632 4.60526316,11.1842105 C4.60526316,10.7631579 4.9736842,10.3947369 5.39473684,10.3947369 L15.3947368,10.3947369 C15.8157895,10.3947369 16.1842105,10.7631579 16.1842105,11.1842105 C16.1842105,11.3947368 16.0789474,11.5526316 15.9736842,11.7105263 C16.5526316,11.5526316 17.131579,11.4473684 17.7631579,11.4473684 C17.9210526,11.4473684 18.1315789,11.4473684 18.2894737,11.5 L18.2894737,6.71052631 C18.2894737,5.55263158 17.3421053,4.60526316 16.1842105,4.60526316 L16.1842105,6.44736843 C16.1842105,7.7631579 15.1315789,8.81578949 13.8157895,8.81578949 C12.5,8.81578949 11.4473684,7.7631579 11.4473684,6.44736843 L11.4473684,4.60526316 L9.34210527,4.60526316 L9.34210527,6.44736843 C9.34210527,7.7631579 8.28947368,8.81578949 6.97368421,8.81578949 C5.65789475,8.81578949 4.60526316,7.7631579 4.60526316,6.44736843 L4.60526316,4.60526316 C3.44736843,4.60526316 2.50000001,5.55263158 2.50000001,6.71052631 L2.50000001,20.3947369 C2.50000001,21.5526316 3.44736843,22.5 4.60526316,22.5 L13.6052632,22.5 C12.2894737,21.3421053 11.4473684,19.6578947 11.4473684,17.7631579 Z M10.131579,18.2894737 L5.39473684,18.2894737 C4.9736842,18.2894737 4.60526316,17.9210527 4.60526316,17.5 C4.60526316,17.0789474 4.9736842,16.7105263 5.39473684,16.7105263 L10.131579,16.7105263 C10.5526316,16.7105263 10.9210526,17.0789474 10.9210526,17.5 C10.9210526,17.9210527 10.5526316,18.2894737 10.131579,18.2894737 Z M10.131579,15.131579 L5.39473684,15.131579 C4.9736842,15.131579 4.60526316,14.7631579 4.60526316,14.3421053 C4.60526316,13.9210526 4.9736842,13.5526316 5.39473684,13.5526316 L10.131579,13.5526316 C10.5526316,13.5526316 10.9210526,13.9210526 10.9210526,14.3421053 C10.9210526,14.7631579 10.5526316,15.131579 10.131579,15.131579 Z M17.7631579,13.0263158 C15.1315789,13.0263158 13.0263158,15.1842105 13.0263158,17.7631579 C13.0263158,20.3421053 15.1842105,22.5 17.7631579,22.5 C20.3421053,22.5 22.5,20.3421053 22.5,17.7631579 C22.5,15.1842105 20.3947369,13.0263158 17.7631579,13.0263158 Z M19.6052632,19.3421053 L16.9736842,19.3421053 C16.5526316,19.3421053 16.1842105,18.9736842 16.1842105,18.5526316 L16.1842105,15.3947368 C16.1842105,14.9736842 16.5526316,14.6052632 16.9736842,14.6052632 C17.3947369,14.6052632 17.7631579,14.9736842 17.7631579,15.3947368 L17.7631579,17.7631579 L19.6052632,17.7631579 C20.0263158,17.7631579 20.3947369,18.1315789 20.3947369,18.5526316 C20.3947369,18.9736842 20.0263158,19.3421053 19.6052632,19.3421053 Z" id="形状" fill="#526579"></path>
            </g>
        </g>
    </g>
</svg>