<svg width="24" height="24" viewBox="0 0 24 24" fill="none" xmlns="http://www.w3.org/2000/svg">
<path fill-rule="evenodd" clip-rule="evenodd" d="M5.5 5C5.5 4.44772 5.94772 4 6.5 4H20.5C21.0523 4 21.5 4.44772 21.5 5V22C21.5 22.5523 21.0523 23 20.5 23H6.5C5.94772 23 5.5 22.5523 5.5 22V5ZM7.5 6V21H19.5V6H7.5Z" fill="#526579"/>
<path fill-rule="evenodd" clip-rule="evenodd" d="M2.5 2.5C2.5 1.67158 3.17158 1 4 1H17.5C18.0523 1 18.5 1.44772 18.5 2V5C18.5 5.55228 18.0523 6 17.5 6C16.9477 6 16.5 5.55228 16.5 5V3H4.5V18H6.5C7.05229 18 7.5 18.4477 7.5 19C7.5 19.5523 7.05229 20 6.5 20H3.5C2.94772 20 2.5 19.5523 2.5 19V2.5Z" fill="#526579"/>
<path fill-rule="evenodd" clip-rule="evenodd" d="M9.5 11C9.5 10.4477 9.94772 10 10.5 10H16.5C17.0523 10 17.5 10.4477 17.5 11C17.5 11.5523 17.0523 12 16.5 12H10.5C9.94772 12 9.5 11.5523 9.5 11Z" fill="#526579"/>
<path fill-rule="evenodd" clip-rule="evenodd" d="M9.5 15C9.5 14.4477 9.94772 14 10.5 14H16.5C17.0523 14 17.5 14.4477 17.5 15C17.5 15.5523 17.0523 16 16.5 16H10.5C9.94772 16 9.5 15.5523 9.5 15Z" fill="#526579"/>
</svg>
