<?xml version="1.0" encoding="UTF-8"?>
<svg width="24px" height="24px" viewBox="0 0 24 24" version="1.1" xmlns="http://www.w3.org/2000/svg" xmlns:xlink="http://www.w3.org/1999/xlink">
    <title>设置</title>
    <g id="页面-1" stroke="none" stroke-width="1" fill="none" fill-rule="evenodd">
        <g id="建木自动化-详情1" transform="translate(-1192.000000, -488.000000)" fill-rule="nonzero">
            <g id="设置" transform="translate(1192.000000, 488.000000)">
                <rect id="矩形" fill="#000000" opacity="0" x="0" y="0" width="24" height="24"></rect>
                <path d="M9.27744402,22.0000008 C8.15942419,21.6788762 7.10512912,21.1614108 6.16211542,20.4709453 L6.20444203,18.4105893 C6.2225862,17.5175389 5.6121007,16.7384415 4.75259422,16.5577511 L2.76688512,16.1399361 C2.31659237,15.0500632 2.057054,13.8884354 2,12.7075534 L3.6084107,11.4568876 C4.30608269,10.9145439 4.52408402,9.94270111 4.12679774,9.14593523 L3.20972146,7.30699336 C3.76754504,6.26983336 4.49774919,5.33890496 5.36792281,4.55552869 L7.33178591,5.05579499 C8.18328421,5.27262825 9.06556186,4.8402096 9.42991079,4.0274698 L10.2709813,2.15147116 C10.8421183,2.05044325 11.4207561,1.99976541 12.0004551,2.00000082 C12.5898416,2.00000082 13.1673949,2.0518811 13.7294739,2.15147116 L14.5705443,4.0274698 C14.9348933,4.8402096 15.8171709,5.27262825 16.6686692,5.05579499 L18.6320772,4.55552869 C19.5022508,5.33890496 20.232455,6.26983336 20.7902785,7.30699336 L19.8736574,9.14593523 C19.4762728,9.94259363 19.6940776,10.9144136 20.3915893,11.4568876 L22,12.7075534 C21.942946,13.8884354 21.6834076,15.0500632 21.2331149,16.1399361 L19.2478609,16.5572879 C18.3883544,16.7379783 17.7778689,17.5170757 17.7960131,18.410126 L17.8378846,20.4709453 C16.8948384,21.1612473 15.8405451,21.678555 14.722556,21.9995368 L13.164209,20.680316 C12.4895233,20.1091258 11.5104767,20.1091258 10.835791,20.680316 L9.27744402,22.0000008 L9.27744402,22.0000008 Z M12,16.3594974 C14.2622259,16.3594974 16.0961223,14.4930236 16.0961223,12.1906115 C16.0961223,9.88819946 14.2622259,8.02172568 12,8.02172568 C9.73777409,8.02172568 7.90387766,9.88819946 7.90387766,12.1906115 C7.90387766,14.4930236 9.73777409,16.3594974 12,16.3594974 Z" id="形状" fill="#526579"></path>
            </g>
        </g>
    </g>
</svg>