<?xml version="1.0" encoding="UTF-8"?>
<svg width="28px" height="28px" viewBox="0 0 28 28" version="1.1" xmlns="http://www.w3.org/2000/svg" xmlns:xlink="http://www.w3.org/1999/xlink">
    <title>设置备份</title>
    <g id="页面-1" stroke="none" stroke-width="1" fill="none" fill-rule="evenodd">
        <g id="建木自动化-详情1" transform="translate(-1305.000000, -488.000000)" fill-rule="nonzero">
            <g id="设置备份" transform="translate(1305.000000, 488.000000)">
                <rect id="矩形" fill="#000000" opacity="0" x="0" y="0" width="28" height="28"></rect>
                <path d="M10.9543055,26.025641 C9.62988199,25.6452328 8.38094783,25.0322353 7.26383929,24.2142993 L7.31398004,21.7735699 C7.33547391,20.7156487 6.61228339,19.7927179 5.59409879,19.5786692 L3.24179725,19.0837192 C2.70837353,17.792639 2.40092038,16.4165569 2.33333333,15.0176658 L4.2386814,13.5361079 C5.06515437,12.8936392 5.3234021,11.7423793 4.85277066,10.7985181 L3.76638798,8.62007931 C4.42719438,7.39144363 5.29220545,6.28865152 6.32302651,5.36065193 L8.64944895,5.95327509 C9.65814693,6.21013911 10.7033066,5.69788932 11.13492,4.73510524 L12.131265,2.5127684 C12.8078427,2.39308918 13.493306,2.33305544 14.1800263,2.3333343 C14.8782226,2.3333343 15.5624011,2.39479249 16.2282485,2.5127684 L17.2245935,4.73510524 C17.6562069,5.69788932 18.7013666,6.21013911 19.7100645,5.95327509 L22.0359478,5.36065193 C23.0667689,6.28865152 23.93178,7.39144363 24.5925864,8.62007931 L23.5067428,10.7985181 C23.0359949,11.7422519 23.2940099,12.8934848 24.120293,13.5361079 L26.025641,15.0176658 C25.958054,16.4165569 25.6506008,17.792639 25.1171771,19.0837192 L22.7654147,19.5781205 C21.7472301,19.7921692 21.0240396,20.7151 21.0455335,21.7730211 L21.0951351,24.2142993 C19.977988,25.0320416 18.729056,25.6448524 17.4046689,26.0250923 L15.5586271,24.4623231 C14.759384,23.7856823 13.5995903,23.7856823 12.8003473,24.4623231 L10.9543055,26.025641 L10.9543055,26.025641 Z M14.1794872,19.3438149 C16.8593548,19.3438149 19.0318167,17.1327613 19.0318167,14.4052885 C19.0318167,11.6778158 16.8593548,9.46676221 14.1794872,9.46676221 C11.4996196,9.46676221 9.32715764,11.6778158 9.32715764,14.4052885 C9.32715764,17.1327613 11.4996196,19.3438149 14.1794872,19.3438149 Z" id="形状" fill="#082340"></path>
            </g>
        </g>
    </g>
</svg>