<?xml version="1.0" encoding="UTF-8"?>
<svg width="28px" height="28px" viewBox="0 0 28 28" version="1.1" xmlns="http://www.w3.org/2000/svg" xmlns:xlink="http://www.w3.org/1999/xlink">
    <title>日志服务备份</title>
    <g id="页面-1" stroke="none" stroke-width="1" fill="none" fill-rule="evenodd">
        <g id="建木自动化-详情1" transform="translate(-1264.000000, -488.000000)" fill-rule="nonzero">
            <g id="日志服务备份" transform="translate(1264.000000, 488.000000)">
                <rect id="矩形" fill="#000000" opacity="0" x="0" y="0" width="28" height="28"></rect>
                <path d="M8.52800271,7.45107964 C9.02678815,7.45107964 9.46322539,7.0146424 9.46322539,6.51585696 L9.46322539,2.77496627 C9.46322539,2.27618084 9.02678815,1.8397436 8.52800271,1.8397436 C8.02921728,1.8397436 7.59278004,2.27618084 7.59278004,2.77496627 L7.59278004,6.51585696 C7.59278004,7.0146424 8.02921728,7.45107964 8.52800271,7.45107964 Z M16.6332659,7.45107964 C17.1320513,7.45107964 17.5684885,7.0146424 17.5684885,6.51585696 L17.5684885,2.77496627 C17.5684885,2.27618084 17.1320513,1.8397436 16.6332659,1.8397436 C16.1344804,1.8397436 15.6980432,2.27618084 15.6980432,2.77496627 L15.6980432,6.51585696 C15.6980432,7.0146424 16.1344804,7.45107964 16.6332659,7.45107964 Z M13.5158569,19.9207153 C13.5158569,16.8656545 15.3863023,14.1846829 18.0049258,13.0624157 L6.34581647,13.0624157 C5.84703103,13.0624157 5.41059379,12.6259784 5.41059379,12.127193 C5.41059379,11.6284076 5.84703103,11.1919703 6.34581647,11.1919703 L18.1919703,11.1919703 C18.6907557,11.1919703 19.127193,11.6284076 19.127193,12.127193 C19.127193,12.3765857 19.0024966,12.5636302 18.8778003,12.7506748 C19.5636303,12.5636302 20.2494602,12.4389339 20.9976383,12.4389339 C21.1846829,12.4389339 21.4340756,12.4389339 21.6211201,12.5012821 L21.6211201,6.82759783 C21.6211201,5.45593792 20.4988529,4.33367072 19.127193,4.33367072 L19.127193,6.51585696 C19.127193,8.07456141 17.8802294,9.32152498 16.321525,9.32152498 C14.7628205,9.32152498 13.5158569,8.07456141 13.5158569,6.51585696 L13.5158569,4.33367072 L11.0219298,4.33367072 L11.0219298,6.51585696 C11.0219298,8.07456141 9.77496626,9.32152498 8.21626181,9.32152498 C6.65755737,9.32152498 5.41059379,8.07456141 5.41059379,6.51585696 L5.41059379,4.33367072 C4.03893388,4.33367072 2.91666668,5.45593792 2.91666668,6.82759783 L2.91666668,23.0381242 C2.91666668,24.4097841 4.03893388,25.5320513 5.41059379,25.5320513 L16.0721323,25.5320513 C14.5134278,24.1603914 13.5158569,22.1652497 13.5158569,19.9207153 Z M11.9571525,20.5441971 L6.34581647,20.5441971 C5.84703103,20.5441971 5.41059379,20.1077598 5.41059379,19.6089744 C5.41059379,19.1101889 5.84703103,18.6737517 6.34581647,18.6737517 L11.9571525,18.6737517 C12.4559379,18.6737517 12.8923752,19.1101889 12.8923752,19.6089744 C12.8923752,20.1077598 12.4559379,20.5441971 11.9571525,20.5441971 Z M11.9571525,16.8033064 L6.34581647,16.8033064 C5.84703103,16.8033064 5.41059379,16.3668691 5.41059379,15.8680837 C5.41059379,15.3692983 5.84703103,14.932861 6.34581647,14.932861 L11.9571525,14.932861 C12.4559379,14.932861 12.8923752,15.3692983 12.8923752,15.8680837 C12.8923752,16.3668691 12.4559379,16.8033064 11.9571525,16.8033064 Z M20.9976383,14.3093792 C17.8802294,14.3093792 15.3863023,16.8656545 15.3863023,19.9207153 C15.3863023,22.975776 17.9425776,25.5320513 20.9976383,25.5320513 C24.0526991,25.5320513 26.6089744,22.975776 26.6089744,19.9207153 C26.6089744,16.8656545 24.1150473,14.3093792 20.9976383,14.3093792 Z M23.1798246,21.7911606 L20.0624157,21.7911606 C19.5636302,21.7911606 19.127193,21.3547234 19.127193,20.8559379 L19.127193,17.1150472 C19.127193,16.6162618 19.5636302,16.1798246 20.0624157,16.1798246 C20.5612011,16.1798246 20.9976383,16.6162618 20.9976383,17.1150472 L20.9976383,19.9207153 L23.1798246,19.9207153 C23.67861,19.9207153 24.1150473,20.3571525 24.1150473,20.8559379 C24.1150473,21.3547234 23.67861,21.7911606 23.1798246,21.7911606 Z" id="形状" fill="#082340"></path>
            </g>
        </g>
    </g>
</svg>