<?xml version="1.0" encoding="UTF-8"?>
<svg width="16px" height="16px" viewBox="0 0 16 16" version="1.1" xmlns="http://www.w3.org/2000/svg" xmlns:xlink="http://www.w3.org/1999/xlink">
    <title>system_icon_remind_default</title>
    <g id="页面-1" stroke="none" stroke-width="1" fill="none" fill-rule="evenodd">
        <g id="系统设计规范" transform="translate(-1628.000000, -5294.000000)" fill-rule="nonzero">
            <g id="system_icon_remind_default" transform="translate(1628.000000, 5294.000000)">
                <rect id="矩形" fill="#000000" opacity="0" x="0" y="0" width="16" height="16"></rect>
                <path d="M8,0 C3.58214286,0 0,3.58214286 0,8 C0,12.4178571 3.58214286,16 8,16 C12.4178571,16 16,12.4178571 16,8 C16,3.58214286 12.4178571,0 8,0 Z" id="形状" fill="#1890FF"></path>
                <path d="M8.57142857,11.8571429 C8.57142857,11.9357143 8.50714286,12 8.42857143,12 L7.57142857,12 C7.49285714,12 7.42857143,11.9357143 7.42857143,11.8571429 L7.42857143,7 C7.42857143,6.92142857 7.49285714,6.85714286 7.57142857,6.85714286 L8.42857143,6.85714286 C8.50714286,6.85714286 8.57142857,6.92142857 8.57142857,7 L8.57142857,11.8571429 Z" id="路径" fill="#FFFFFF"></path>
                <path d="M8,5.71428571 C7.52678571,5.71428571 7.14285714,5.33035714 7.14285714,4.85714286 C7.14285714,4.38392857 7.52678571,4 8,4 C8.47321429,4 8.85714286,4.38392857 8.85714286,4.85714286 C8.85714286,5.33035714 8.47321429,5.71428571 8,5.71428571 Z" id="路径" fill="#FFFFFF"></path>
            </g>
        </g>
    </g>
</svg>