<?xml version="1.0" encoding="UTF-8"?>
<svg width="16px" height="16px" viewBox="0 0 16 16" version="1.1" xmlns="http://www.w3.org/2000/svg" xmlns:xlink="http://www.w3.org/1999/xlink">
    <title>system_icon_mag_default</title>
    <defs>
        <polygon id="path-1" points="1547 5293 1562.77838 5293 1562.77838 5308.76517 1547 5308.76517"></polygon>
    </defs>
    <g id="页面-1" stroke="none" stroke-width="1" fill="none" fill-rule="evenodd">
        <g id="系统设计规范" transform="translate(-1547.000000, -5293.000000)">
            <rect fill="#F2F2F2" x="0" y="0" width="1920" height="9006"></rect>
            <rect id="矩形" fill="#FFFFFF" x="39" y="526" width="1840" height="8739"></rect>
            <mask id="mask-2" fill="white">
                <use xlink:href="#path-1"></use>
            </mask>
            <g id="Clip-2"></g>
            <path d="M1554.88919,5293 C1550.5321,5293 1547,5296.52915 1547,5300.88259 C1547,5305.23601 1550.5321,5308.76518 1554.88919,5308.76518 C1559.24628,5308.76518 1562.77838,5305.23601 1562.77838,5300.88259 C1562.77838,5296.52915 1559.24628,5293 1554.88919,5293" id="Fill-1" fill="#FA8C16"></path>
            <path d="M1555.19792,5304.2625 C1554.72042,5304.2625 1554.33333,5303.87541 1554.33333,5303.39792 C1554.33333,5302.92042 1554.72042,5302.53333 1555.19792,5302.53333 C1555.67541,5302.53333 1556.0625,5302.92042 1556.0625,5303.39792 C1556.0625,5303.87541 1555.67541,5304.2625 1555.19792,5304.2625 L1555.19792,5304.2625 Z M1556.0625,5300.97708 C1556.0625,5301.45458 1555.67541,5301.84167 1555.19792,5301.84167 C1554.72042,5301.84167 1554.33333,5301.45458 1554.33333,5300.97708 L1554.33333,5297.86458 C1554.33333,5297.38709 1554.72042,5297 1555.19792,5297 C1555.67541,5297 1556.0625,5297.38709 1556.0625,5297.86458 L1556.0625,5300.97708 Z" id="形状" fill="#FFFFFF" fill-rule="nonzero"></path>
        </g>
    </g>
</svg>