<?xml version="1.0" encoding="UTF-8"?>
<svg width="44px" height="44px" viewBox="0 0 44 44" version="1.1" xmlns="http://www.w3.org/2000/svg" xmlns:xlink="http://www.w3.org/1999/xlink">
    <title>Group</title>
    <g id="页面-1" stroke="none" stroke-width="1" fill="none" fill-rule="evenodd">
        <g id="工作流程图备份" transform="translate(-889.000000, -212.000000)">
            <g id="Group" transform="translate(889.000000, 212.000000)">
                <rect id="Rectangle" fill="#417505" opacity="0" x="0" y="0" width="44" height="44"></rect>
                <path d="M35.9921875,19.7253906 C36.3230469,19.7253906 36.6152344,19.8457031 36.8558594,20.0863281 C37.0964844,20.3269531 37.2167969,20.6191406 37.2167969,20.95 L37.2167969,25.8613281 C37.2167969,26.1921875 37.0964844,26.484375 36.8558594,26.725 C36.6152344,26.965625 36.3230469,27.0859375 35.9921875,27.0859375 L10.2023438,27.0859375 C9.68671875,27.0859375 9.25273438,26.9097656 8.90039062,26.5488281 L6.19335938,23.8417969 C6.06445312,23.7128906 6,23.5667969 6,23.4035156 C6,23.2402344 6.06445312,23.0855469 6.19335938,22.9652344 L8.90039062,20.2582031 C9.25703125,19.9015625 9.6953125,19.7210937 10.2023438,19.7210937 L20.025,19.7210937 L20.025,16.034375 L24.9363281,16.034375 L24.9363281,19.7339844 L35.9921875,19.7253906 Z M38.7765625,10.6890625 C38.9054688,10.8179687 38.9699219,10.9640625 38.9699219,11.1273437 C38.9699219,11.290625 38.9054688,11.4453125 38.7765625,11.565625 L36.0695313,14.2726562 C35.7128906,14.6292969 35.2746094,14.8097656 34.7675781,14.8097656 L8.98203125,14.8097656 C8.65117187,14.8097656 8.35898437,14.6894531 8.11835937,14.4488281 C7.87773437,14.2082031 7.75742187,13.9203125 7.75742187,13.5851562 L7.75742187,8.67382812 C7.75742187,8.34296875 7.87773437,8.05078125 8.11835937,7.81015625 C8.35898437,7.56953125 8.646875,7.44921875 8.98203125,7.44921875 L20.0378906,7.44921875 L20.0378906,6.22460938 C20.0378906,5.89375 20.1582031,5.6015625 20.3988281,5.3609375 C20.6394531,5.1203125 20.9273438,5 21.2625,5 L23.7203125,5 C24.0511719,5 24.3433594,5.1203125 24.5839844,5.3609375 C24.8246094,5.6015625 24.9449219,5.89375 24.9449219,6.22460938 L24.9449219,7.44921875 L34.7675781,7.44921875 C35.2832031,7.44921875 35.7171875,7.62539062 36.0695313,7.98632812 L38.7765625,10.6890625 Z M20.025,28.3234375 L24.9363281,28.3234375 L24.9363281,38.1460938 C24.9363281,38.4769531 24.8160156,38.7691406 24.5753906,39.0097656 C24.3347656,39.2503906 24.0425781,39.3707031 23.7117188,39.3707031 L21.2539063,39.3707031 C20.9230469,39.3707031 20.6308594,39.2503906 20.3902344,39.0097656 C20.1496094,38.7691406 20.0292969,38.4769531 20.0292969,38.1460938 L20.025,28.3234375 Z" id="Shape" fill="#FFA000" fill-rule="nonzero"></path>
            </g>
        </g>
    </g>
</svg>