<?xml version="1.0" encoding="UTF-8"?>
<svg width="44px" height="44px" viewBox="0 0 44 44" version="1.1" xmlns="http://www.w3.org/2000/svg" xmlns:xlink="http://www.w3.org/1999/xlink">
    <title>编组 5</title>
    <g id="页面-1" stroke="none" stroke-width="1" fill="none" fill-rule="evenodd">
        <g id="工作流程图备份" transform="translate(-234.000000, -633.000000)" fill-rule="nonzero">
            <g id="编组-10备份" transform="translate(216.000000, 615.000000)">
                <g id="编组-5" transform="translate(18.000000, 18.000000)">
                    <rect id="矩形备份-32" fill="#2F54EB" opacity="0" x="0" y="0" width="43.6879433" height="43.6879433"></rect>
                    <path d="M21.4538979,12.0519149 C14.2330604,12.0519149 8.35848063,17.9646809 8.35848063,25.2337589 C8.35848063,32.5028369 14.2330604,38.4160993 21.4538979,38.4160993 C28.6747355,38.4160993 34.5493152,32.5033333 34.5493152,25.2337589 C34.5493152,17.9651773 28.6747355,12.0519149 21.4538979,12.0519149 Z M23.7361444,26.5295035 L23.728712,26.5146099 C23.2797942,27.3203546 22.4339855,27.8699291 21.4538979,27.8699291 C20.0095322,27.8699291 18.8346992,26.6878723 18.8346992,25.2337589 C18.8316279,24.3530441 19.2701753,23.5296416 20.0020998,23.0419149 L19.9946674,23.0270213 L28.630141,18.0555319 L23.7361444,26.53 L23.7361444,26.5295035 Z M35.6706186,13.585461 L37.3275514,11.9178723 C37.6201574,11.6234422 37.6201574,11.1474088 37.3275514,10.8529787 L35.7404834,9.25539006 C35.6005491,9.11398766 35.4100391,9.03444721 35.2112955,9.03444721 C35.012552,9.03444721 34.8220419,9.11398766 34.6821077,9.25539006 L33.0256704,10.9229787 C30.3232448,8.70631205 26.9836136,7.24773051 23.3248842,6.87489363 L23.3248842,3.76609931 L25.5694731,3.76609931 C25.9672613,3.76517871 26.348392,3.60596845 26.6290203,3.3234932 C26.9096486,3.04101796 27.0667867,2.65841679 27.0658657,2.25985814 L27.0658657,1.5067376 C27.0669184,1.10817887 26.9099065,0.725525215 26.629371,0.442956799 C26.3488356,0.160388383 25.9677569,0.00105195231 25.5699686,0 L17.3383228,0 C16.9404485,0.000920475743 16.5592425,0.160198919 16.2786,0.442781611 C15.9979574,0.725364303 15.8408775,1.10809306 15.8419301,1.5067376 L15.8419301,2.25985814 C15.8410092,2.65841679 15.9981472,3.04101796 16.2787755,3.3234932 C16.5594038,3.60596845 16.9405346,3.76517871 17.3383228,3.76609931 L19.5829117,3.76609931 L19.5829117,6.87390071 C15.9241822,7.24822695 12.584551,8.70631205 9.88212545,10.9219858 L8.22568819,9.25439718 C8.08575398,9.11299478 7.89524389,9.03345433 7.69650034,9.03345433 C7.49775679,9.03345433 7.3072467,9.11299478 7.16731249,9.25439718 L5.58024447,10.8524823 C5.28730934,11.1469699 5.28730934,11.6233847 5.58024447,11.9178723 L7.2371772,13.585461 C4.56804569,16.8777211 3.11408185,20.9917038 3.12058912,25.2332624 C3.12058912,35.4249646 11.3294641,43.6879433 21.4538979,43.6879433 C31.5783317,43.6879433 39.7872095,35.4249646 39.7872095,25.2332624 C39.79412,20.9916342 38.3401094,16.8775191 35.6706186,13.585461 Z M21.4538979,41.331773 C12.6321185,41.331773 5.45191142,34.1083688 5.45191142,25.2337589 C5.45191142,16.3596454 12.6321184,9.13624113 21.4538979,9.13624113 C30.2756774,9.13624113 37.4558844,16.3596454 37.4558844,25.2337589 C37.4558844,34.1083688 30.2756774,41.331773 21.4538979,41.331773 L21.4538979,41.331773 Z" id="形状备份-7" fill="#2962FF"></path>
                </g>
            </g>
        </g>
    </g>
</svg>