<?xml version="1.0" encoding="UTF-8"?>
<svg width="44px" height="44px" viewBox="0 0 44 44" version="1.1" xmlns="http://www.w3.org/2000/svg" xmlns:xlink="http://www.w3.org/1999/xlink">
    <title>end-icon</title>
    <g id="页面-1" stroke="none" stroke-width="1" fill="none" fill-rule="evenodd">
        <g id="工作流程图" transform="translate(-1675.000000, -503.000000)" fill-rule="nonzero">
            <g id="结束备份-3" transform="translate(1675.000000, 503.000000)">
                <rect id="矩形" fill="#000000" opacity="0" x="0" y="0" width="44" height="44"></rect>
                <path d="M22,0 C34.1495,0 44,9.8505 44,22 C44,34.1495 34.1495,44 22,44 C9.8505,44 0,34.1495 0,22 C0,9.8505 9.8505,0 22,0 Z M22,3.66666665 C11.8745,3.66666665 3.66666665,11.8745 3.66666665,22 C3.66666665,32.1255 11.8745,40.3333333 22,40.3333333 C32.1255,40.3333333 40.3333333,32.1255 40.3333333,22 C40.3333333,11.8745 32.1255,3.66666665 22,3.66666665 Z M25.6666667,14.6666667 C26.6391271,14.6666667 27.5717582,15.0529751 28.2593915,15.7406085 C28.9470249,16.4282418 29.3333333,17.3608729 29.3333333,18.3333333 L29.3333333,25.6666667 C29.3333333,26.6391271 28.9470249,27.5717582 28.2593915,28.2593915 C27.5717582,28.9470249 26.6391271,29.3333333 25.6666667,29.3333333 L18.3333333,29.3333333 C17.3608729,29.3333333 16.4282418,28.9470249 15.7406085,28.2593915 C15.0529751,27.5717582 14.6666667,26.6391271 14.6666667,25.6666667 L14.6666667,18.3333333 C14.6666667,17.3608729 15.0529751,16.4282418 15.7406085,15.7406085 C16.4282418,15.0529751 17.3608729,14.6666667 18.3333333,14.6666667 L25.6666667,14.6666667 L25.6666667,14.6666667 Z" id="形状" fill="#FA541C"></path>
            </g>
        </g>
    </g>
</svg>