<?xml version="1.0" encoding="UTF-8"?>
<svg width="36px" height="36px" viewBox="0 0 36 36" version="1.1" xmlns="http://www.w3.org/2000/svg" xmlns:xlink="http://www.w3.org/1999/xlink">
    <title>association</title>
    <g id="页面-1" stroke="none" stroke-width="1" fill="none" fill-rule="evenodd">
        <g id="association" transform="translate(18.000000, 18.000000) rotate(-270.000000) translate(-18.000000, -18.000000) " fill-rule="nonzero">
            <rect id="矩形" fill="#000000" opacity="0" x="0" y="0" width="36" height="36"></rect>
            <path d="M27.0034341,6.4755058 C25.9185806,6.4755058 25.0391331,5.59605827 25.0391331,4.51120475 C25.0391331,3.42635124 25.9185806,2.54690371 27.0034341,2.54690371 C28.0882876,2.54690371 28.9677351,3.42635124 28.9677351,4.51120475 C28.9677351,5.59605827 28.0882876,6.4755058 27.0034341,6.4755058 L27.0034341,6.4755058 Z M19.9709365,31.5016007 C19.9709365,32.2960863 19.4923499,33.0123417 18.758341,33.3163782 C18.024332,33.6204147 17.1794511,33.4523575 16.6176649,32.8905713 C16.0558787,32.3287851 15.8878214,31.4839042 16.1918579,30.7498952 C16.4958944,30.0158862 17.2121498,29.5372997 18.0066355,29.5372997 C19.091489,29.5372997 19.9709365,30.4167472 19.9709365,31.5016007 Z M7.04553578,4.51120475 C7.04553578,3.42635124 7.92498331,2.54690371 9.00983682,2.54690371 C10.0946903,2.54690371 10.9741379,3.42635124 10.9741379,4.51120475 C10.9741379,5.59605827 10.0946903,6.4755058 9.00983682,6.4755058 C7.92498331,6.4755058 7.04553578,5.59605827 7.04553578,4.51120475 L7.04553578,4.51120475 Z M31.5018334,4.51120475 C31.5018334,2.19140926 29.737763,0.252038958 27.4283394,0.0329180117 C25.1189159,-0.186202935 23.0215878,1.38679313 22.5853053,3.6651936 C22.1490229,5.94359408 23.5168786,8.18012538 25.7438823,8.82966811 L25.7438823,13.3280674 L18.0066355,21.0053356 L10.2543939,13.3130728 L10.2543939,8.81467344 C12.400964,8.18454373 13.7582821,6.07275471 13.4399789,3.85836778 C13.1216758,1.64398085 11.2244917,4.52451604e-06 8.98734482,4.52451604e-06 C6.7501979,4.52451604e-06 4.85301389,1.64398085 4.53471073,3.85836778 C4.21640756,6.07275471 5.57372566,8.18454373 7.7202957,8.81467344 L7.7202957,14.33271 L16.7170943,23.3295086 L16.7170943,27.1381533 C14.5705243,27.7682831 13.2132062,29.8800721 13.5315094,32.094459 C13.8498126,34.3088459 15.7469966,35.9528223 17.9841435,35.9528223 C20.2212904,35.9528223 22.1184744,34.3088459 22.4367776,32.094459 C22.7550807,29.8800721 21.3977627,27.7682831 19.2511926,27.1381533 L19.2511926,23.3594979 L28.2479913,14.3626993 L28.2479913,8.82966811 C30.173251,8.27537767 31.4998979,6.51466659 31.5018334,4.51120475 Z" id="形状" fill="#00A6AB"></path>
        </g>
    </g>
</svg>