<?xml version="1.0" encoding="UTF-8"?>
<svg width="45px" height="44px" viewBox="0 0 45 44" version="1.1" xmlns="http://www.w3.org/2000/svg" xmlns:xlink="http://www.w3.org/1999/xlink">
    <title>start_icon</title>
    <g id="页面-1" stroke="none" stroke-width="1" fill="none" fill-rule="evenodd">
        <g id="工作流程图" transform="translate(-202.000000, -496.000000)" fill-rule="nonzero">
            <g id="start_icon备份-3" transform="translate(202.000000, 496.000000)">
                <rect id="矩形" fill="#000000" opacity="0" x="0" y="0" width="44" height="44"></rect>
                <path d="M22,41.25 C11.3685,41.25 2.75,32.63425 2.75,22 C2.75,11.36575 11.3685,2.75 22,2.75 C32.63425,2.75 41.25,11.36575 41.25,22 C41.25,32.63425 32.63425,41.25 22,41.25 Z M22,5.9675 L22,5.9565 C12.80125,5.95925 5.9675,13.1615 5.9675,22 C5.9675,30.8385 13.1615,38.0325 22,38.0325 C30.8385,38.0325 38.0325,30.84125 38.0325,22 C38.0325,13.15875 30.84125,5.9675 22,5.9675 Z M19.162,29.80725 C18.7764213,30.0867569 18.2588192,30.1009527 17.8585,29.843 C17.4348588,29.5530594 17.1857233,29.0692611 17.19575,28.556 L17.19575,13.83525 C17.19575,13.30175 17.44875,12.8095 17.8585,12.54825 C18.2600168,12.289845 18.7791492,12.3051458 19.16475,12.58675 L29.4305,19.9485 C29.80175,20.218 30.03,20.691 30.03,21.197 C30.03,21.703 29.80175,22.176 29.42775,22.44275 L19.162,29.80725 L19.162,29.80725 Z" id="形状" fill="#009315"></path>
            </g>
        </g>
    </g>
</svg>