<?xml version="1.0" encoding="UTF-8"?>
<svg width="120px" height="120px" viewBox="0 0 120 120" version="1.1" xmlns="http://www.w3.org/2000/svg" xmlns:xlink="http://www.w3.org/1999/xlink">
    <title>webhook</title>
    <g id="页面-1" stroke="none" stroke-width="1" fill="none" fill-rule="evenodd">
        <g id="节点" transform="translate(-1287.000000, -250.000000)" fill-rule="nonzero">
            <g id="node-version备份" transform="translate(1247.000000, 205.000000)">
                <g id="webhook" transform="translate(40.000000, 44.000000)">
                    <rect id="矩形" fill="#000000" opacity="0" x="0" y="0" width="120" height="120"></rect>
                    <path d="M52.3,95 C45,105.35 30.75,107.95 20.45,100.75 C10.2,93.55 7.8,79.2 15,68.75 C19.0820932,62.8234241 25.7102037,59.1575976 32.9,58.85 L33.15,66 C28.6,66.35 24.2,68.7 21.35,72.8 C16.35,80 17.9,89.7 24.75,94.55 C31.65,99.35 41.3,97.5 46.3,90.35 C47.85,88.1 48.75,85.65 49.1,83.15 L49.1,78.1 L77,77.9 L77.35,77.35 C79.9999999,72.75 85.75,71.1499999 90.25,73.75 C92.4250976,75.0227425 94.0053649,77.1075742 94.643021,79.5456714 C95.2806772,81.9837686 94.9234655,84.5753256 93.65,86.75 C91.0000001,91.3000001 85.2,92.9 80.7,90.3 C78.65,89.15 77.2,87.3 76.55,85.2 L56.2,85.3 C55.6040321,88.7737264 54.274494,92.0805263 52.3,95 M88.7,59.3 C101.35,60.8500001 110.35,72.2 108.8,84.65 C107.25,97.1500001 95.75,106 83.1,104.45 C75.9807624,103.620793 69.6473586,99.5400869 65.95,93.4 L72.15,89.8 C74.7467358,93.8208308 78.9978746,96.4777926 83.75,97.05 C92.5000001,98.1 100.25,92.15 101.3,83.8 C102.35,75.45 96.15,67.8 87.5,66.75 C84.8,66.45 82.2,66.8 79.85,67.65 L75.6,69.85 L62.7,46 L61.6,46 C56.3597686,45.8474208 52.2267572,41.4910033 52.35,36.25 C52.5,31.05 57,27 62.25,27.2 C67.5,27.5 71.65,31.7500001 71.5,36.95 C71.4,39.15 70.5499999,41.15 69.2,42.7 L78.7,60.25 C81.7999999,59.25 85.2,58.9 88.7,59.3 M41.25,45.7 C36.25,33.9499999 41.55,20.5 53.1,15.6 C64.7,10.7 78.1,16.25 83.1,28 C86.05,34.8499999 85.45,42.3499999 82.1,48.35 L75.9,44.75 C78,40.7 78.35,35.75 76.35,31.1 C72.95,23.1 63.9,19.25 56.15,22.5 C48.35,25.8 44.85,35 48.25,43 C49.65,46.3 52,48.85 54.85,50.55 L56.8,51.6 L41.45,76.55 C41.6,76.8 41.8000001,77.1 41.95,77.5 C44.4,82.05 42.7,87.7999999 38.1,90.25 C33.55,92.7 27.8,90.9 25.3,86.2 C22.8499999,81.55 24.55,75.7999999 29.15,73.35 C31.1,72.3 33.2500001,72.05 35.3,72.5 L46.85,53.65 C44.5000001,51.4999999 42.5,48.7999999 41.25,45.7 Z" id="形状" fill="#35474F"></path>
                </g>
            </g>
        </g>
    </g>
</svg>