<?xml version="1.0" encoding="UTF-8"?>
<svg width="36px" height="36px" viewBox="0 0 36 36" version="1.1" xmlns="http://www.w3.org/2000/svg" xmlns:xlink="http://www.w3.org/1999/xlink">
    <title>增加</title>
    <g id="页面-1" stroke="none" stroke-width="1" fill="none" fill-rule="evenodd">
        <g id="建木自动化-密钥管理列表" transform="translate(-294.000000, -271.000000)" fill-rule="nonzero">
            <g id="编组-3" transform="translate(270.000000, 271.000000)">
                <g id="增加" transform="translate(24.000000, 0.000000)">
                    <rect id="矩形" fill="#000000" opacity="0" x="0" y="0" width="36" height="36"></rect>
                    <path d="M29.6296875,16.0875 L19.7015625,16.0875 L19.7015625,6.159375 C19.7015625,5.1609375 18.8929687,4.35234375 17.8945312,4.35234375 C16.8960937,4.35234375 16.0875,5.1609375 16.0875,6.159375 L16.0875,16.0910156 L6.159375,16.0910156 C5.1609375,16.0910156 4.35234375,16.8996094 4.35234375,17.8980469 C4.35234375,18.8964844 5.1609375,19.7050781 6.159375,19.7050781 L16.0910156,19.7050781 L16.0910156,29.6367188 C16.0910156,30.6351563 16.8996094,31.44375 17.8980469,31.44375 C18.8964844,31.44375 19.7050781,30.6351563 19.7050781,29.6367188 L19.7050781,19.7015625 L29.6367187,19.7015625 C30.6351562,19.7015625 31.44375,18.8929688 31.44375,17.8945312 C31.4367187,16.8960938 30.628125,16.0875 29.6296875,16.0875 Z" id="路径" fill="#096DD9"></path>
                </g>
            </g>
        </g>
    </g>
</svg>