<?xml version="1.0" encoding="UTF-8"?>
<svg width="24px" height="24px" viewBox="0 0 24 24" version="1.1" xmlns="http://www.w3.org/2000/svg" xmlns:xlink="http://www.w3.org/1999/xlink">
    <title>删除备份 10</title>
    <g id="页面-1" stroke="none" stroke-width="1" fill="none" fill-rule="evenodd">
        <g id="建木自动化-首页" transform="translate(-442.000000, -352.000000)" fill="#6B7B8D" fill-rule="nonzero">
            <g id="编组-6" transform="translate(442.000000, 352.000000)">
                <path d="M20.25,6.5 L19.5,6.5 L19.5,20 C19.5,20.530433 19.2892863,21.0391408 18.9142136,21.4142136 C18.5391408,21.7892863 18.030433,22 17.5,22 L6.5,22 C5.96956701,22 5.46085918,21.7892863 5.08578643,21.4142136 C4.71071367,21.0391408 4.5,20.530433 4.5,20 L4.5,6.5 L3.75,6.5 C3.33578644,6.5 3,6.16421356 3,5.75 C3,5.33578644 3.33578644,5 3.75,5 L20.25,5 C20.6642136,5 21,5.33578644 21,5.75 C21,6.16421356 20.6642136,6.5 20.25,6.5 Z M18,6.5 L6,6.5 L6,20 C6,20.1326082 6.05267841,20.2597852 6.1464466,20.3535534 C6.24021479,20.4473216 6.36739175,20.5 6.5,20.5 L17.5,20.5 C17.6326083,20.5 17.7597852,20.4473216 17.8535534,20.3535534 C17.9473216,20.2597852 18,20.1326082 18,20 L18,6.5 L18,6.5 Z M14.25,3.5 L9.75,3.5 C9.33578644,3.5 9,3.16421356 9,2.75 C9,2.33578644 9.33578644,2 9.75,2 L14.25,2 C14.6642136,2 15,2.33578644 15,2.75 C15,3.16421356 14.6642136,3.5 14.25,3.5 Z M14.25,17.5 C13.8357864,17.5 13.5,17.1642136 13.5,16.75 L13.5,10.25 C13.5,9.83578644 13.8357864,9.5 14.25,9.5 C14.6642136,9.5 15,9.83578644 15,10.25 L15,16.75 C15,17.1642136 14.6642136,17.5 14.25,17.5 Z M9.75,17.5 C9.33578644,17.5 9,17.1642136 9,16.75 L9,10.25 C9,9.83578644 9.33578644,9.5 9.75,9.5 C10.1642136,9.5 10.5,9.83578644 10.5,10.25 L10.5,16.75 C10.5,17.1642136 10.1642136,17.5 9.75,17.5 Z" id="形状"></path>
            </g>
        </g>
    </g>
</svg>