<?xml version="1.0" encoding="UTF-8"?>
<svg width="24px" height="24px" viewBox="0 0 24 24" version="1.1" xmlns="http://www.w3.org/2000/svg" xmlns:xlink="http://www.w3.org/1999/xlink">
    <title>删除备份 10</title>
    <g id="页面-1" stroke="none" stroke-width="1" fill="none" fill-rule="evenodd" opacity="0.599677507">
        <g id="建木自动化-首页" transform="translate(-758.000000, -352.000000)" fill-rule="nonzero">
            <g id="删除备份-39" transform="translate(758.000000, 352.000000)">
                <rect id="矩形" fill="#000000" opacity="0" x="0" y="0" width="24" height="24"></rect>
                <path d="M20.25,6.49999999 L19.5,6.49999999 L19.5,20 C19.5,20.530433 19.2892863,21.0391408 18.9142136,21.4142136 C18.5391408,21.7892863 18.030433,22 17.5,22 L6.5,22 C5.96956701,22 5.46085918,21.7892863 5.08578643,21.4142136 C4.71071367,21.0391408 4.5,20.530433 4.5,20 L4.5,6.49999999 L3.75,6.49999999 C3.33578644,6.49999999 3,6.16421355 3,5.74999999 C3,5.33578643 3.33578644,4.99999999 3.75,4.99999999 L20.25,4.99999999 C20.6642136,4.99999999 21,5.33578643 21,5.74999999 C21,6.16421355 20.6642136,6.49999999 20.25,6.49999999 Z M18,6.49999999 L6,6.49999999 L6,20 C6,20.1326082 6.05267841,20.2597852 6.1464466,20.3535534 C6.24021479,20.4473216 6.36739175,20.5 6.5,20.5 L17.5,20.5 C17.6326083,20.5 17.7597852,20.4473216 17.8535534,20.3535534 C17.9473216,20.2597852 18,20.1326082 18,20 L18,6.49999999 L18,6.49999999 Z M14.25,3.49999999 L9.75,3.49999999 C9.33578644,3.49999999 9,3.16421355 9,2.74999999 C9,2.33578643 9.33578644,1.99999999 9.75,1.99999999 L14.25,1.99999999 C14.6642136,1.99999999 15,2.33578643 15,2.74999999 C15,3.16421355 14.6642136,3.49999999 14.25,3.49999999 Z M14.25,17.5 C13.8357864,17.5 13.5,17.1642136 13.5,16.75 L13.5,10.25 C13.5,9.83578643 13.8357864,9.49999999 14.25,9.49999999 C14.6642136,9.49999999 15,9.83578643 15,10.25 L15,16.75 C15,17.1642136 14.6642136,17.5 14.25,17.5 Z M9.75,17.5 C9.33578644,17.5 9,17.1642136 9,16.75 L9,10.25 C9,9.83578643 9.33578644,9.49999999 9.75,9.49999999 C10.1642136,9.49999999 10.5,9.83578643 10.5,10.25 L10.5,16.75 C10.5,17.1642136 10.1642136,17.5 9.75,17.5 Z" id="形状" fill="#6B7B8D"></path>
            </g>
        </g>
    </g>
</svg>