<?xml version="1.0" encoding="UTF-8"?>
<svg width="26px" height="26px" viewBox="0 0 26 26" version="1.1" xmlns="http://www.w3.org/2000/svg" xmlns:xlink="http://www.w3.org/1999/xlink">
    <title>禁用</title>
    <g id="页面-1" stroke="none" stroke-width="1" fill="none" fill-rule="evenodd">
        <g id="建木自动化-首页搜索结果展示" transform="translate(-1058.000000, -417.000000)" fill-rule="nonzero">
            <g id="禁用" transform="translate(1058.000000, 417.000000)">
                <rect id="矩形" fill="#000000" opacity="0" x="0" y="0" width="26" height="26"></rect>
                <path d="M2,13 C2.130625,6.80373162 7.04995192,1.88527147 13,2.00203671 C18.9500481,1.88527147 23.869375,6.80373162 24,13 C23.869375,19.1962684 18.9500481,24.1147285 13,23.9979633 C7.04995192,24.1147285 2.130625,19.1962684 2,13 Z M3.69230769,13 C3.80336538,18.2428692 7.96564904,22.4042831 13,22.3059689 C14.6494712,22.3098244 16.2719712,21.8686501 17.7091106,21.0251314 C12.9730288,14.6096528 9.30971154,9.64768111 6.71915865,6.13921626 C4.80603827,7.86344372 3.7023595,10.365087 3.69230769,13 Z M19.1012981,20.0218867 C21.1209615,18.2951933 22.2963221,15.7211257 22.3076923,13 C22.1966346,7.75713078 18.034351,3.59571693 13,3.69403106 C11.2693297,3.69101726 9.57047735,4.17842005 8.08543269,5.10402635 L19.1012981,20.0218867 Z" id="形状" stroke="#FFFFFF" stroke-width="0.2" fill="#6B7B8D"></path>
            </g>
        </g>
    </g>
</svg>