<?xml version="1.0" encoding="UTF-8"?>
<svg width="26px" height="26px" viewBox="0 0 26 26" version="1.1" xmlns="http://www.w3.org/2000/svg" xmlns:xlink="http://www.w3.org/1999/xlink">
    <title>编辑备份 3</title>
    <g id="页面-1" stroke="none" stroke-width="1" fill="none" fill-rule="evenodd">
        <g id="建木自动化-首页备份-4" transform="translate(-1206.000000, -422.000000)">
            <g id="编辑备份-3" transform="translate(1206.000000, 422.000000)">
                <rect id="矩形" fill="#000000" fill-rule="nonzero" opacity="0" x="0" y="0" width="26" height="26"></rect>
                <path d="M22.34375,21.53125 C22.7924785,21.53125 23.15625,21.8950215 23.15625,22.34375 C23.15625,22.7924785 22.7924785,23.15625 22.34375,23.15625 L3.65625,23.15625 C3.20752148,23.15625 2.84375,22.7924785 2.84375,22.34375 C2.84375,21.8950215 3.20752148,21.53125 3.65625,21.53125 L22.34375,21.53125 Z M21.1012598,3.88311523 C22.540248,5.32207812 22.5546191,7.64618359 21.1444238,9.10286914 L21.1012598,9.14674414 L10.3004688,19.9475605 C10.1512409,20.096765 9.94984895,20.1821056 9.73885352,20.1855469 L5.61132812,20.1855469 C5.16709375,20.1855469 4.80611523,19.8290117 4.79882812,19.3865039 L4.79882812,15.2584199 C4.79882812,15.0474017 4.88092668,14.8446615 5.02775,14.6930977 L5.03681445,14.6839063 L15.8376309,3.88308984 C17.2911426,2.42955273 19.647748,2.42955273 21.1012598,3.88308984 L21.1012598,3.88311523 Z M15.3860332,6.63274219 L6.42382812,15.5949727 L6.42382812,18.5605469 L9.38935156,18.5605469 L18.351582,9.59829102 L15.3860332,6.63274219 Z M17.0113887,5.00784375 L16.9866836,5.03214258 L16.5350859,5.48368945 L19.5006348,8.44923828 L19.9522324,7.99769141 C20.7629551,7.18696875 20.7710547,5.87757422 19.9765313,5.05687305 L19.9522324,5.03214258 C19.1415098,4.22141992 17.8320898,4.21332031 17.0113887,5.00784375 Z" id="形状" fill="#6B7B8D"></path>
            </g>
        </g>
    </g>
</svg>