<?xml version="1.0" encoding="UTF-8"?>
<svg width="27px" height="26px" viewBox="0 0 27 26" version="1.1" xmlns="http://www.w3.org/2000/svg" xmlns:xlink="http://www.w3.org/1999/xlink">
    <title>形状</title>
    <g id="页面-1" stroke="none" stroke-width="1" fill="none" fill-rule="evenodd">
        <g id="建木自动化-首页搜索结果展示" transform="translate(-831.000000, -418.000000)" fill="#6B7B8D">
            <g id="执行备份-8" transform="translate(831.655353, 418.000000)">
                <path d="M13,3.57140825 C17.824032,3.57875038 21.8584282,7.23868662 22.3341481,12.0392104 C22.8098681,16.8397343 19.5722663,21.2203074 14.8434969,22.1742879 C10.1147276,23.1282685 5.43200329,20.3455397 4.00934979,15.73605 C2.58669629,11.1265603 4.88658502,6.18874722 9.33046875,4.31171875 C10.4913844,3.82059277 11.7394751,3.5688033 13,3.57140825 M13,2 C6.92495536,2 2,6.92495536 2,13 C2,19.0750446 6.92495536,24 13,24 C19.0750446,24 24,19.0750446 24,13 C24,6.92495536 19.0750446,2 13,2 Z M9.07142857,6.71428571 L9.07142857,19.2857143 L20.0714286,13 L9.07142857,6.71428571 Z" id="形状"></path>
            </g>
        </g>
    </g>
</svg>