<?xml version="1.0" encoding="UTF-8"?>
<svg width="26px" height="26px" viewBox="0 0 26 26" version="1.1" xmlns="http://www.w3.org/2000/svg" xmlns:xlink="http://www.w3.org/1999/xlink">
    <title>形状</title>
    <g id="页面-1" stroke="none" stroke-width="1" fill="none" fill-rule="evenodd">
        <g id="建木自动化-首页备份-4" transform="translate(-213.000000, -422.000000)" fill="#6B7B8D" fill-rule="nonzero">
            <g id="执行备份-4" transform="translate(213.000000, 422.000000)">
                <path d="M13,2.43747724 C18.404195,2.44570237 22.9237884,6.54580139 23.4567209,11.9236609 C23.9896533,17.3015205 20.3626809,22.2089239 15.0652053,23.2776351 C9.76772983,24.3463462 4.52183702,21.2289522 2.92808788,16.0651015 C1.33433874,10.9012508 3.91082393,5.36959087 8.88915202,3.26682129 C10.1896854,2.71662996 11.5878779,2.434559 13,2.43747724 M13,0.677083333 C6.19433919,0.677083333 0.677083333,6.19433919 0.677083333,13 C0.677083333,19.8056608 6.19433919,25.3229167 13,25.3229167 C19.8056608,25.3229167 25.3229167,19.8056608 25.3229167,13 C25.3229167,6.19433919 19.8056608,0.677083333 13,0.677083333 Z M8.59895833,5.95833333 L8.59895833,20.0416667 L20.921875,13 L8.59895833,5.95833333 Z" id="形状"></path>
            </g>
        </g>
    </g>
</svg>