<?xml version="1.0" encoding="UTF-8"?>
<svg width="26px" height="26px" viewBox="0 0 26 26" version="1.1" xmlns="http://www.w3.org/2000/svg" xmlns:xlink="http://www.w3.org/1999/xlink">
    <title>刷新同步备份</title>
    <g id="页面-1" stroke="none" stroke-width="1" fill="none" fill-rule="evenodd">
        <g id="建木自动化-首页备份-4" transform="translate(-259.000000, -1038.000000)">
            <g id="刷新同步备份-3" transform="translate(259.000000, 1038.000000)">
                <rect id="矩形" fill="#000000" fill-rule="nonzero" opacity="0" x="0" y="0" width="26" height="26"></rect>
                <path d="M4.23660714,10.3482143 C4.63839286,10.3482143 4.97321429,10.0803571 5.08482143,9.70089286 C6.33482143,6.26339286 9.63839286,3.78571429 13.5,3.78571429 C17.8080357,3.78571429 21.4241071,6.86607143 22.25,10.9285714 L20.6428571,10.9285714 L23.3660714,13.6294643 L26,10.9285714 L24.0580357,10.9285714 C23.2098214,5.86160714 18.8125,2 13.5,2 C8.83482143,2 4.86160714,4.99107143 3.38839286,9.16517857 C3.36607143,9.25446429 3.34375,9.34375 3.34375,9.45535714 C3.34375,9.94642857 3.74553571,10.3482143 4.23660714,10.3482143 Z M22.7633929,15.0803571 C22.3616071,15.0803571 22.0267857,15.3482143 21.9151786,15.7276786 C20.6651786,19.1651786 17.3616071,21.6428571 13.5,21.6428571 C9.19196429,21.6428571 5.57589286,18.5625 4.75,14.5 L6.33482143,14.5 L3.63392857,11.7991071 L1,14.5 L2.94196429,14.5 C3.79017857,19.5669643 8.1875,23.4285714 13.5,23.4285714 C18.1651786,23.4285714 22.1383929,20.4375 23.6116071,16.2633929 C23.6339286,16.1741071 23.65625,16.0848214 23.65625,15.9732143 C23.65625,15.4821429 23.2544643,15.0803571 22.7633929,15.0803571 L22.7633929,15.0803571 Z" id="形状" fill="#6B7B8D"></path>
            </g>
        </g>
    </g>
</svg>