<?xml version="1.0" encoding="UTF-8"?>
<svg width="16px" height="16px" viewBox="0 0 16 16" version="1.1" xmlns="http://www.w3.org/2000/svg" xmlns:xlink="http://www.w3.org/1999/xlink">
    <title>分组</title>
    <g id="页面-1" stroke="none" stroke-width="1" fill="none" fill-rule="evenodd">
        <g id="系统设计规范" transform="translate(-1377.000000, -5363.000000)">
            <g id="分组" transform="translate(1385.000000, 5370.500000) scale(1, -1) translate(-1385.000000, -5370.500000) translate(1377.000000, 5362.000000)">
                <rect id="矩形" fill="#000000" opacity="0" x="0" y="0" width="16" height="16.4102564"></rect>
                <path d="M8,5.64841026 L13.2464,11.0293333 C13.4416879,11.2296286 13.7583121,11.2296286 13.9536,11.0293333 C14.1488879,10.8290381 14.1488879,10.5042953 13.9536,10.304 L8.4096,4.61784615 C8.18312383,4.38570096 7.81607617,4.38570096 7.5896,4.61784615 L2.0464,10.304 C1.92007089,10.4335683 1.87073375,10.6224183 1.91697342,10.7994119 C1.96321308,10.9764055 2.09800464,11.1146532 2.27057342,11.1620785 C2.44314219,11.2095038 2.62727089,11.1589017 2.7536,11.0293333 L8,5.64841026 Z" id="路径" fill="#595959"></path>
            </g>
        </g>
    </g>
</svg>