<?xml version="1.0" encoding="UTF-8"?>
<svg width="24px" height="24px" viewBox="0 0 24 24" version="1.1" xmlns="http://www.w3.org/2000/svg" xmlns:xlink="http://www.w3.org/1999/xlink">
    <title>mag_icon_success_default</title>
    <g id="页面-1" stroke="none" stroke-width="1" fill="none" fill-rule="evenodd">
        <g id="系统设计规范" transform="translate(-1522.000000, -5457.000000)">
            <rect x="0" y="0" width="1920" height="8568"></rect>
            <rect id="矩形" x="39" y="526" width="1840" height="8739"></rect>
            <g id="mag_icon_success_default" transform="translate(1522.000000, 5457.000000)" fill-rule="nonzero">
                <rect id="矩形" fill="#000000" opacity="0" x="0" y="0" width="24" height="24"></rect>
                <path d="M12,23 C5.94981558,23 1,18.0498221 1,11.9998773 C1,5.94993252 5.94981558,1 12,1 C18.0501844,1 23,5.94993252 23,11.9998773 C23,18.0498221 18.0499385,23 12,23 Z M15.5494579,20.4385394 C17.747914,19.4990787 19.4978647,17.7486852 20.434112,15.5526495 C21.3963584,13.281455 21.3963584,10.7182996 20.434112,8.44710514 C19.4980798,6.25092468 17.7480595,4.50046164 15.5494579,3.56121527 C13.2816926,2.59999369 10.7197828,2.59999369 8.45201744,3.56121527 C6.25272865,4.49995685 4.5020775,6.25052217 3.56588801,8.44710514 C2.60364158,10.7182996 2.60364158,13.281455 3.56588801,15.5526495 C4.50201872,17.7489604 6.25235826,19.4993905 8.45127976,20.438294 C10.7190797,21.3993458 13.2809203,21.3993458 15.5487202,20.438294 L15.5494579,20.4385394 Z" id="形状" fill="#13C2C2"></path>
                <polygon id="路径" fill="#13C2C2" points="16.4296296 7 9.86509804 12.84375 6.85891068 9.8875 6 10.85 10.0491503 16.075 10.3559041 15.73125 11.5215686 14.425 17.2885403 7.9625"></polygon>
            </g>
        </g>
    </g>
</svg>