<?xml version="1.0" encoding="UTF-8"?>
<svg width="16px" height="16px" viewBox="0 0 16 16" version="1.1" xmlns="http://www.w3.org/2000/svg" xmlns:xlink="http://www.w3.org/1999/xlink">
    <title>溯源标识备份 14</title>
    <g id="页面-1" stroke="none" stroke-width="1" fill="none" fill-rule="evenodd">
        <g id="建木自动化-外部参数列表" transform="translate(-257.000000, -435.000000)" fill-rule="nonzero">
            <g id="溯源标识备份-14" transform="translate(257.000000, 435.000000)">
                <rect id="矩形" fill="#000000" opacity="0" x="0" y="0" width="16" height="16"></rect>
                <path d="M7.15111017,10.5080575 C7.36628379,10.6321932 7.63893535,10.5971821 7.81499891,10.4228077 L10.5749983,7.6904135 C10.7185927,7.55439303 10.7766049,7.35209994 10.7266268,7.16167297 C10.6766486,6.971246 10.5265043,6.82249686 10.3341893,6.77288214 C10.1418744,6.72326743 9.93749599,6.78055441 9.79999846,6.92261514 L7.42277678,9.27551011 L6.13944373,8.02151279 C5.91825806,7.83693049 5.59157769,7.84907634 5.38499946,8.04956273 C5.17981435,8.24884399 5.16690931,8.5718588 5.35555502,8.78656115 L7.02222131,10.4151077 C7.0604409,10.4520715 7.10385181,10.4833778 7.15111017,10.5080575 L7.15111017,10.5080575 Z M8.0033322,13.99945 C7.9354288,13.9998643 7.86789997,13.9894649 7.80333225,13.9686501 C7.60833229,13.9015502 3,12.3065536 3,7.88896307 L3,5.56686804 C3.00012193,5.32706857 3.14203718,5.10954747 3.3627777,5.01081923 L7.74055448,3.05502342 C7.90557978,2.98165886 8.09441796,2.98165886 8.25944325,3.05502342 L12.63722,5.01081923 C12.8594422,5.11091902 13.0005533,5.32816855 13,5.56631804 L13,7.88896307 C13,12.3258036 8.39110989,13.9021002 8.19722104,13.9692001 C8.13442472,13.9894403 8.06881708,13.9998326 8.00277664,14 L8.0033322,13.99945 Z" id="形状" fill="#F7B500"></path>
            </g>
        </g>
    </g>
</svg>